<?xml version="1.0" standalone="no"?>
<!DOCTYPE svg PUBLIC "-//W3C//DTD SVG 1.1//EN" "http://www.w3.org/Graphics/SVG/1.1/DTD/svg11.dtd" >
<svg xmlns="http://www.w3.org/2000/svg">
<metadata></metadata>
<defs>
<font id="amplify_personal_use_onlyRg" horiz-adv-x="1857" >
<font-face units-per-em="2048" ascent="1536" descent="-512" />
<missing-glyph horiz-adv-x="614" />
<glyph horiz-adv-x="0" />
<glyph unicode="&#xd;" horiz-adv-x="614" />
<glyph unicode=" "  horiz-adv-x="614" />
<glyph unicode="&#x09;" horiz-adv-x="614" />
<glyph unicode="&#xa0;" horiz-adv-x="614" />
<glyph unicode="!" horiz-adv-x="278" d="M13 22.5q-7 16.5 12 45.5q6 12 18 31.5t23 35.5q16 25 44.5 30t53 -3t37 -28.5t-3.5 -49.5q-10 -16 -26.5 -32.5t-27.5 -24.5q-27 -16 -55.5 -22.5t-48 -2.5t-26.5 20.5zM213 354.5q-8 14.5 6 44.5q8 18 34 66.5t58.5 110t69.5 128t67.5 123t51 94t22.5 42.5q14 25 46 39 t64 14t52 -14.5t12 -47.5q-2 -6 -28.5 -50t-66.5 -105.5t-86 -132t-86 -132t-68.5 -102.5t-30.5 -45q-20 -25 -46 -37t-44.5 -11t-26.5 15.5z" />
<glyph unicode="&#x22;" horiz-adv-x="301" d="M154 673.5q-4 14.5 10 45.5q12 29 26.5 65.5t26.5 71.5t21.5 60.5t11.5 31.5q12 20 34.5 34.5t45 18t42 -4t25.5 -25.5q18 16 44 24.5t47.5 5t33.5 -18.5t4 -42q-2 -10 -24.5 -46t-48 -76t-49 -72.5t-27.5 -38.5q-20 -25 -42 -37.5t-35 -11.5t-17 15.5t10 45.5 q12 27 25.5 60.5t25.5 68.5l-96 -141q-20 -25 -42 -37.5t-35 -11.5t-17 15.5z" />
<glyph unicode="#" horiz-adv-x="681" d="M37 175.5q-6 17.5 5 40t35.5 40.5t53.5 20h27l49 99h-25q-35 0 -41 17.5t5.5 40t36 41t53.5 20.5h34l52 102q14 25 41.5 39t54 14t43 -14t8.5 -47q-2 -6 -14.5 -31t-34.5 -63h90l51 102q14 25 42 39t54.5 14t43 -14t8.5 -47q-2 -6 -14.5 -31t-35.5 -63h19q31 0 37 -17.5 t-4.5 -39t-32.5 -41t-49 -19.5q-10 0 -18.5 -1t-18.5 -1l-57 -99h38q31 0 37 -17t-4 -38.5t-32.5 -41t-49.5 -19.5q-16 -2 -29.5 -2h-29.5l-55 -90q-20 -25 -46 -37.5t-44.5 -11.5t-26.5 16.5t6 46.5q4 10 13.5 29.5t23.5 46.5h-111l-55 -90q-20 -25 -46 -37.5t-44.5 -11.5 t-26.5 16.5t6 46.5q4 10 13.5 29.5t23.5 46.5h-18q-35 0 -41 17.5zM295 276h102l49 99h-94z" />
<glyph unicode="$" horiz-adv-x="813" d="M12 303q4 59 29 107.5t59 68.5q29 18 54.5 6t41 -36.5t15.5 -54t-23 -48.5q-37 -31 -31.5 -79t50.5 -85q10 10 16 16.5t10 10.5q25 20 46.5 29.5t36 7.5t16.5 -17.5t-17 -44.5l-26 -43q51 -16 98 -10t84 28.5t59.5 58.5t22.5 81q0 55 -34 96t-81 79t-97 78t-81 94 t-32 128t48 180q25 55 70 102.5t104.5 75t133 32.5t155.5 -19l21 39q16 23 46 33t56.5 7t41 -20.5t1.5 -48.5q-4 -6 -17.5 -23.5t-31.5 -39.5q78 -51 93.5 -120t-10.5 -135.5t-81 -122t-117 -79.5q-27 -10 -49 0t-34.5 26.5t-12.5 35t17 26.5q49 27 84.5 58.5t51 67.5 t9.5 71.5t-39 68.5l-43 -45q-25 -20 -47.5 -29.5t-35.5 -7.5t-15 17.5t16 44.5q10 14 20.5 32.5t20.5 36.5q-47 14 -93 5t-85 -32.5t-68.5 -54t-42.5 -59.5q-37 -78 -24.5 -132t50.5 -97t91 -81t100 -80t75 -95.5t18 -128.5q-12 -86 -60.5 -147.5t-116 -96.5t-147.5 -41 t-160 18l-22 -47q-16 -23 -46 -33t-56.5 -7t-41 20.5t-2.5 48.5q4 6 19.5 27.5t38.5 48.5q-57 47 -80 108.5t-19 120.5z" />
<glyph unicode="%" horiz-adv-x="686" d="M-80 18.5q-10 16.5 12 42.5l715 840q18 18 47 24.5t52.5 0.5t34 -21.5t-10.5 -40.5q-12 -14 -66.5 -77.5t-130 -152.5t-161.5 -190.5t-161 -189.5t-129 -151.5t-65 -75.5q-18 -20 -47.5 -26.5t-54.5 -2.5t-35 20.5zM154 793q0 66 45 110.5t110 44.5q66 0 111 -45t45 -110 q0 -66 -45 -111t-111 -45t-110.5 45t-44.5 111zM268 805q0 -23 14.5 -37t36.5 -14q23 0 37.5 14t14.5 37t-14.5 37t-37.5 14t-37 -14t-14 -37zM270 162q0 66 45 110.5t111 44.5t111 -45t45 -110q0 -66 -45 -111t-111 -45t-111 45t-45 111zM385 174q0 -23 14.5 -37t36.5 -14 q23 0 37 14.5t14 36.5q0 23 -14 37t-37 14t-37 -14t-14 -37z" />
<glyph unicode="&#x26;" horiz-adv-x="882" d="M12 317q4 57 19.5 99.5t38 73t49 52t53.5 33.5q63 31 141 31q-39 72 -25.5 160t61.5 173t126 157.5t168 114.5t184.5 43t180.5 -58q55 -39 68.5 -98.5t-4 -128t-57.5 -139t-90.5 -131t-103.5 -105.5t-96 -62q-27 -10 -49.5 0.5t-34.5 26.5t-12 34.5t16 27.5q37 18 79 55 t82 82t71.5 95t47 95t10.5 82t-40 57q-63 35 -131 25t-129.5 -51t-111.5 -104.5t-75.5 -134t-22.5 -140.5t48 -123q23 -29 9.5 -51.5t-36.5 -18.5q-41 10 -88 5t-89 -24t-72.5 -53t-40.5 -81q-10 -45 3 -86t41.5 -70.5t72.5 -46t100 -12.5q31 2 69.5 17.5t79.5 38t80 48 t70 47.5h-146q-35 0 -41 17.5t5.5 40t36 41t53.5 20.5q25 2 71.5 2t98 -1t99.5 -1h77q31 0 37 -17.5t-4.5 -39t-32.5 -41t-49 -19.5q-16 -2 -29.5 -2h-26.5q-31 -45 -83 -92t-115.5 -86t-131 -66.5t-129.5 -31.5q-76 -6 -142 13.5t-114.5 60.5t-74 103.5t-19.5 143.5z" />
<glyph unicode="'" horiz-adv-x="8" d="M133 735.5q-4 14.5 10 44.5q12 29 26.5 66t27 71.5t21.5 60.5t11 32q14 25 42 39t54.5 14t43 -14.5t8.5 -47.5q-2 -10 -24.5 -45.5t-48 -75.5t-49.5 -73t-28 -39q-20 -25 -41.5 -37t-35 -11t-17.5 15.5z" />
<glyph unicode="(" horiz-adv-x="481" d="M39.5 15q7.5 124 60.5 282q84 252 228.5 404.5t302.5 211.5q33 12 51 -2t21.5 -38.5t-7 -51t-32.5 -39.5q-61 -33 -126 -85t-123.5 -120.5t-106.5 -152.5t-79 -182q-45 -137 -48 -240.5t26 -175.5q14 -37 -3.5 -58.5t-45 -24.5t-57 10.5t-40.5 45.5q-29 92 -21.5 216z " />
<glyph unicode=")" horiz-adv-x="555" d="M-159 -213q-3 25 7.5 51.5t32.5 38.5q61 33 126 85t123 121t106.5 152.5t78.5 182.5q45 137 48.5 240.5t-25.5 175.5q-14 37 3 58t45 24.5t57.5 -10t39.5 -46.5q29 -92 22 -216t-61 -282q-84 -252 -228 -404.5t-302 -211.5q-33 -12 -51.5 2t-21.5 39z" />
<glyph unicode="*" horiz-adv-x="573" d="M143.5 454.5q6.5 14.5 40.5 30.5q23 10 63 27.5t87 40.5l-107 125q-16 23 -5 35t37 12t58.5 -13.5t61.5 -39.5l14 -19l21 45q14 25 41.5 39.5t54.5 14.5t43 -14.5t8 -47.5l-22 -47q27 12 44 19.5t21 11.5q31 12 62.5 11t51 -12t19.5 -28.5t-32 -36.5q-6 -4 -26 -12 t-49.5 -19.5t-65.5 -25.5t-72 -29q33 -45 57 -80.5t26 -40.5q8 -20 -1 -31.5t-28.5 -10.5t-45 14.5t-47.5 40.5l-29 32q-33 -59 -41 -67q-20 -25 -46 -37t-44.5 -11t-26.5 16t6 46l25 53q-18 -6 -28.5 -10t-14.5 -4q-35 -10 -62.5 -9t-41 9t-7 22.5z" />
<glyph unicode="+" horiz-adv-x="681" d="M139 289.5q-6 17.5 5.5 40t36 41t52.5 20.5h105l51 111q14 25 42 39t54.5 14t43 -14t8.5 -47q-2 -8 -16.5 -37t-37.5 -66q33 0 64 -1t47 1q31 0 37 -17.5t-4.5 -39t-33 -41t-48.5 -19.5q-37 -2 -69 -2h-62q-23 -35 -37.5 -60.5t-18.5 -29.5q-20 -25 -45.5 -37t-44 -11 t-27 16.5t6.5 46.5l35 75h-103q-35 0 -41 17.5z" />
<glyph unicode="," horiz-adv-x="272" d="M-133 -142.5q0 15.5 22 40.5q20 25 49 62.5t57 75.5t48 67.5t25 33.5q20 20 51 26.5t56.5 -1.5t37.5 -26.5t-6 -47.5q-4 -8 -40 -43t-79 -74t-79 -71.5t-42 -36.5q-27 -16 -50 -22.5t-36.5 -2.5t-13.5 19.5z" />
<glyph unicode="-" horiz-adv-x="565" d="M139 289.5q-6 17.5 5.5 40t36 41t52.5 20.5q49 4 105.5 1t112.5 -1q31 0 37 -17.5t-4.5 -39t-33 -41t-49.5 -19.5q-55 -2 -77.5 -2h-39h-36h-68.5q-35 0 -41 17.5z" />
<glyph unicode="." horiz-adv-x="239" d="M13 22.5q-7 16.5 12 45.5q6 12 18 31.5t23 35.5q16 25 44.5 30t53 -3t37 -28.5t-3.5 -49.5q-10 -16 -26.5 -32.5t-27.5 -24.5q-27 -16 -55.5 -22.5t-48 -2.5t-26.5 20.5z" />
<glyph unicode="/" horiz-adv-x="565" d="M-125 -110.5q-10 16.5 12 42.5l715 840q18 18 47 24.5t52.5 0.5t33.5 -21.5t-10 -40.5q-12 -14 -66.5 -77.5t-130 -152.5t-161.5 -190.5t-161 -189.5t-129 -151.5t-65 -75.5q-18 -20 -48 -26.5t-54.5 -2.5t-34.5 20.5z" />
<glyph unicode="0" d="M70 -193q0 17 8 23q10 10 20 10l27 4q10 0 10 6q0 16 -16 17q-10 0 -15.5 -6t-5.5 -11h-24q0 25 15 31t30 6q29 0 35 -10t6 -20v-56q0 -10 1 -12t5 -6v-4h-29v6q-2 2 -2 6l-8 -8q-8 -4 -13 -5t-10 -1q-12 0 -23 6t-11 24zM96 -190q0 -4 5 -9.5t10 -5.5q2 0 5 1t15 9 q4 8 4 13v12q-2 0 -10 -4l-10 -2q-18 -4 -19 -14zM125 565v494l268 59l-10 37l41 12l-8 39l41 8l-6 48h41v41h36l4 36l39 -6l9 41l43 -6l10 39l39 -10l16 37l39 -17l23 39l34 -18l23 35l37 -25l24 33l35 -27l27 29l26 -25l27 23l27 -29l34 23l23 -37l39 20l18 -35l37 17 l17 -41l43 12l12 -39l39 10l8 -43l43 4l2 -26l404 88v-496l-185 -41l4 -2l-24 -26l24 -29l-32 -27l22 -34l-37 -23l23 -37l-35 -20l14 -37l-39 -17l13 -43l-37 -12l6 -39l-39 -8v-43l-39 -4v-39h-35l-6 -35h-39l-8 -37l-43 6l-10 -40l-39 12l-14 -39l-44 16l-18 -39l-37 21 l-22 -35l-37 23l-25 -33l-30 26l-31 -26l-27 24l-26 -24l-25 31l-35 -23l-24 37l-37 -21l-19 35l-39 -16l-18 41l-39 -13l-12 37l-41 -8l-8 43l-43 -4l-5 41h-40v35l-35 4l4 41l-41 6l8 43l-41 12l12 37l-28 12zM186 -115h25l2 -18l6 10q4 4 5 7t18 3h6v-28h-8 q-27 0 -27 -25v-55h-27v106zM236 76v16q0 29 23.5 46.5t49.5 17.5h6q29 0 47.5 -19.5t14.5 -30.5h-33q-2 10 -12 16.5t-21 6.5h-14l-14 -12q-10 -4 -12.5 -16.5t-2.5 -26.5q0 -51 37 -51h4q12 0 25.5 8t13.5 24h-37v27h66v-84h-21l-4 20q-16 -25 -51 -24q-12 0 -25.5 6 t-19.5 16q-12 10 -16 26.5t-4 33.5zM236 702h10l8 5l10 10l19 20q4 8 8 13l63 86l39 61q6 8 11.5 15.5t9.5 15.5l16 33q0 2 1 2t1 2q0 4 -6 4q-8 0 -10 -2l-8 -4l-33 -41q-6 -6 -15 -19l-16 -20l-82 -121l-26 -49v-11zM262 -78h29v-24h-29v24zM262 -115h29v-106h-29v106z M274 895q0 -10 13 -18l18 -7q4 0 16.5 1t12.5 8q0 2 -2 2h-4q-4 0 -7.5 -2t-7.5 -2q-31 0 -30 22q0 6 2 12q12 23 50 46.5t73 37.5l28 4q16 4 27 5q4 0 18.5 -3.5t18.5 -7.5l10 -12v-16q0 -12 -2 -21l-10 -18q-10 -14 -21.5 -29.5t-34.5 -30.5l-22 -14l-39 -16q-2 0 -5 -1 t-7 -1h-4q-2 0 -7.5 -2.5t-5.5 -6.5q0 -2 2 -2h4q4 0 7 2l30 9l54 22l49 33l37 39q10 16 14 28.5t4 20.5q0 2 -1 3t-1 5l-6 14l-15 11q-23 6 -43 6q-47 0 -103 -23.5t-99 -66.5l-9 -21q-2 -4 -2 -10zM317 -115h25v-16q12 18 33 18q12 0 24.5 -7t12.5 -30v-71h-29v63 q0 10 -3 16.5t-15 6.5t-16.5 -8.5t-4.5 -16.5v-61h-27v106zM395 57q0 33 16.5 45.5t39.5 12.5q31 0 41 -19.5t10 -42.5v-8h-78q0 -8 6 -16.5t21 -8.5q10 0 15 4.5t5 8.5h31l-10 -21l-17 -12l-12 -3t-12 -1q-55 0 -56 61zM428 68h45l-8 16t-14 8q-23 0 -23 -24zM430 -166 q0 6 2 12.5t4 12.5q12 29 39 28q10 0 18.5 -4t12.5 -14l2 16h24v-100q0 -20 -10 -33.5t-43 -13.5q-18 0 -30.5 7t-12.5 24h27l6 -9q2 -2 12 -2q23 0 24 9.5t1 7.5v18q-12 -14 -29 -14q-14 0 -30.5 10t-16.5 45zM461 -168q0 -8 2 -14q0 -8 7 -11.5t11 -3.5q25 0 25 29 q0 10 -7 21.5t-18 11.5q-20 0 -20 -33zM498 717q20 0 20 -15v-49q0 -8 10 -22l17 -4q4 -2 18 -2q25 0 35 10q8 6 8 18q-4 -10 -10 -16l-12 -8h-15q-10 0 -21 3t-11 21v49q0 10 6 12.5t12 2.5h6v4h-63v-4zM510 92v21h16v28h31v-28h16v-21h-16v-61q0 -6 1 -8.5t11 -2.5l2 3 l2 -25h-16q-10 0 -20.5 2t-10.5 23v69h-16zM510 821q6 -20 27 -20q20 0 46.5 11t49.5 34l39 35q0 2 3 5t3 5l4 6l31 37q6 4 10 10t8 10l10 -8q0 -2 2 -4v-2q0 -2 -2 -4t-4 -6l-16 -17l-27 -39l-4 -18q-2 -2 -2 -8l4 -14h8q10 0 17 2l16 10q8 8 18.5 18t20.5 17l16 22l9 10 q4 4 4 5l33 47q0 -10 3 -17.5t3 -11.5l4 -8q-16 -4 -25 -13l-20 -14q-6 -10 -10.5 -17t-4.5 -18q0 -6 11 -10h18q18 0 35.5 15.5t28.5 25.5l8 18q6 8 6 19v16q0 6 -4 15l-6 16l-7 6q0 4 -3 7t-3 5v11h-8l-4 -4l-12 -9l-6 -14l-37 -51l-10 -17l-3 -2q-2 0 -4 -2l-10 -16 l-37 -39l-12 -6q-4 -4 -12 -4v2l14 20l14 19l19 28l4 15q2 6 2 14q-2 2 -2 8l-2 4q0 4 -2 7v22l6 10v4q0 2 -3 6.5t-7 4.5q-10 0 -25.5 -9.5t-15.5 -23.5q0 -8 2 -12l4 -2l4 -5l-12 -12l-43 -53q-4 0 -4 -4l-2 -4q0 -2 -2 -2l-11 -15q-16 -14 -30.5 -25.5t-30.5 -19.5 l-21 -8q-8 -4 -12 -4q-14 0 -14 12q0 2 4 11l12 24q4 -2 12 -2h19q10 4 21.5 10t29.5 17l14 16q4 4 7.5 8t3.5 8l8 13q0 16 -12 24h-19h-9t-9 -4l-21 -8q-33 -16 -59.5 -42t-34.5 -60v-17zM545 -115h14v27h29v-27h16v-20h-16v-55v-7.5t10 -3.5l6 2v-22h-16q-29 0 -29 22v64 h-14v20zM567 870l15 23l24 29l21 18l12 4q2 0 3 1t5 1q2 0 3 -1t3 -1v-10l-6 -8q-8 -8 -12 -19.5t-21 -19.5l-22 -17q-6 -2 -12 -2q-10 0 -13 2zM580 717h10q8 0 12 -8.5t4 -16.5v15l10 8l2 2h9v4h-47v-4zM610 -115h33l21 -78l20 78h31l-37 -104l-14 -35q-8 -8 -25 -8h-14 v22h16q2 0 6 4v5q2 2 2 6l-37 102zM639 694q0 -4 3 -10t7 -6l13 -6q2 -2 20 -6l8 -2q4 -2 16.5 -5.5t12.5 -15.5q0 -2 -3 -7t-9 -7h-11q-10 0 -16 2l-16 6l-11 10q-10 10 -10 21h-2l2 -43q0 4 4 7t8 3q2 0 5.5 -2t7.5 -2l14 -4q4 -2 14 -2q14 0 19.5 7t15.5 11v21l-6 6 q-2 4 -12 8l-17 6l-12 2q-4 0 -19.5 5t-11.5 11v9q0 -2 3 4t20 6q23 0 30 -9.5t17 -23.5h2l-2 31q-2 -6 -8 -6h-8q-16 10 -31 10q-8 0 -21 -4l-12 -8q-2 -4 -3 -7.5t-1 -9.5zM641 92v21h14v8q0 33 35 33h15v-25h-15q-4 0 -4 -4v-12h19v-21h-19v-94h-31v94h-14zM723 37v76h29 v-70q0 -20 20 -20h10l11 10q0 2 2 5t2 7v68h26v-115h-26v16q-8 -10 -18.5 -14t-16.5 -4q-39 0 -39 41zM731 -115h25v-16h4q2 0 4 2l16 14q2 2 8 2q12 0 29 -12t17 -43q0 -23 -14.5 -39t-31.5 -16q-10 0 -14 2l-8 6q-2 2 -5 2t-3 4v-51h-27v145zM741 627h103v39l-17 -27 q-6 -6 -8 -6l-10 -2q-4 -2 -12 -2h-15l2 41q8 0 19 -6l4 -7q0 -2 1 -3t1 -3v-8v59l-4 -18q-10 -10 -19 -10h-4v43h17q16 0 22 -2l8 -6l11 -25h4v37h-103v-4h4q16 0 17 -15v-57q0 -16 -17 -16zM756 -170q0 -14 8 -20q6 -8 16 -9q23 0 23 31q0 10 -4 21.5t-19 11.5 q-25 0 -24 -35zM793 868v9l10 18q8 10 18 18l23 11q0 -4 1 -6.5t1 -4.5q-2 -4 -2 -8v-12l-4 -8l-17 -17q-4 0 -10 -3t-10 -3q-8 0 -10 6zM844 -166q0 17 4 25q12 29 43 28q51 0 51 -57v-6h-72q0 -25 23 -25q6 0 14 4l6 9h27q-4 -23 -16.5 -29t-30.5 -6q-49 0 -49 57zM852 -2 v156h29v-156h-29zM870 -158h43q0 8 -5 15.5t-17 7.5q-16 0 -21 -23zM903 -2v156h29v-156h-29zM905 674q0 -29 21.5 -39t36.5 -10q20 0 29.5 7t19.5 17q6 8 6 25q0 16 -14.5 32.5t-40.5 16.5q-29 0 -43.5 -16.5t-14.5 -32.5zM915 901q0 -8 5 -8l10 -8q2 0 4 -1t4 -1l2 2h12 q8 2 14.5 4t12.5 4l27 14l41 37l14 21l16 34q0 2 1 4.5t1 4.5q0 -4 -2 11t-30 15q-6 0 -13.5 -2t-17.5 -6l-12 -4l-48 -35l-28 -37q-10 -16 -13 -26v-23zM928 674q0 4 1 8t1 8l12 23q2 2 8 5t15 3q0 -2 2 -2h4l16 -12q0 -6 4 -11.5t4 -21.5q0 -14 -5 -29.5t-27 -15.5 q-23 0 -25 12l-6 12q-4 12 -4 21zM940 895v12q4 14 10 21l15 22l34 43l9.5 9.5l9.5 9.5l18 12q4 2 11 2q6 0 6 -10q0 -2 -4 -10l-11 -19l-26 -41l-37 -39q-4 -4 -8 -6q-4 -4 -7.5 -5t-7.5 -3h-8q-4 0 -4 2zM948 -115h17v9q0 29 30 28h13v-22h-13l-2 -2l-2 -13h19v-20h-19 v-86h-26v86h-17v20zM1010 92v21h14v8q0 33 35 33h12v-25h-12q-2 0 -4 -4v-12h20v-21h-20v-94h-31v94h-14zM1018 -193q0 17 10 23q10 10 21 10l24 4q8 0 8 6q0 16 -14 17q-8 0 -13 -6t-5 -11h-27q0 27 18.5 32t26.5 5q43 0 43 -30v-56q0 -10 1 -12t5 -6v-4l-31 2q0 2 -1 2 t-1 2v6q-14 -6 -17 -10t-15 -4q-8 0 -15 2l-14 10q-4 8 -4 18zM1032 627l49 2q-6 0 -10 2h-8l-4 10q-2 2 -2 12v56l80 -82h4v65q0 10 2 17.5t18 7.5v4h-47v-4h8l6 -6q8 -8 9 -19v-39l-66 68h-37v-4q12 0 15.5 -4t3.5 -11v-53q0 -6 -2 -10l-7 -8q-4 0 -7 -1t-5 -1v-2z M1047 -190q0 -14 12 -15q4 0 6 4l14 6q2 4 2 13v12l-8 -4l-14 -2q-12 0 -12 -14zM1051 905q2 0 3 -1t3 -1q4 0 8 2l8 4q0 8 8 9l4 6q0 4 5 4l36 43l39 41l39 37l23 12q2 0 2 -2l-6 -4q-2 -6 -9 -8l-16 -21q-4 -4 -6 -7t-6 -7l-29 -43l-6 -19q-2 -4 -2 -10q0 -12 10 -12h19 q4 2 9 5t13 7l19 14l22 23q-2 -2 -2 -6q0 -10 5 -17.5t16 -7.5q16 0 38 17l21 14l7 7l7 7l13 13v-5q0 -2 -1.5 -3t-1.5 -3v-6q-2 -2 -2 -6t3.5 -10t7.5 -6h16l6 4l21 12l49 43l-4 -12q-4 -6 -4 -19v-6q4 0 4 -2t6 -2q2 0 10 3t10 7l23 19q4 0 12 9t17 17l18 21v4q0 2 -2 2 q-4 0 -8 -4l-2 -4l-23 -27q-10 -6 -12 -12l-14 -12l-17 -9l-2 -2q-2 0 -4 2l10 15q4 8 8 12l7 12q4 2 8 11l63 92q10 10 13 16l53 59q10 10 17 20.5t16 20.5l10 19v8q-2 2 -8 2q-4 0 -14.5 -4t-18.5 -12l-8 -6l-39 -37q-10 -10 -16.5 -18.5t-16.5 -24.5l-53 -86l-27 -49 l-16 -15q-4 -6 -8.5 -10t-10.5 -10l-18 -17l-17 -12l-4 -2l-4 -4h-10l12 20q0 4 8.5 15.5t12.5 15.5l16 29l23 33l8 12q-4 0 2 4t6 6q0 6 -6 6l-20 -10l-33 -25q0 18 -21 19q-6 0 -15 -3t-15 -7l-25 -13l-18 -16q-23 -16 -37.5 -36.5t-20.5 -39.5h-4l-16 -18 q-10 -8 -21.5 -18.5t-23.5 -10.5h-2q-2 0 -2 2l2 2l12 19l33 41q4 6 9 13t9 15l8 17q2 4 2 10q0 16 -8 16q-6 0 -8 -2l-25 -12l-20 -17q-8 -8 -12 -8l-21 -22q-4 -4 -9 -9.5t-9 -9.5l-21 -22l2 4l51 72q0 2 3.5 6t3.5 8l-7 6q-2 0 -3 1t-3 1t-4 -1t-6 -1l-14 -10 q-4 -2 -4 -4t-2 -4l-82 -140q-2 -2 -2 -4v-2zM1083 55q0 4 1 14.5t7.5 20.5t17.5 17.5t34 7.5q10 0 23.5 -3.5t17.5 -11.5q16 -16 16 -45q0 -16 -11 -37.5t-46 -21.5q-29 0 -44.5 16.5t-15.5 42.5zM1114 55q0 -20 8 -26t21 -6q16 0 20 10q6 6 6 22q0 14 -6 24.5t-20 10.5 q-29 0 -29 -35zM1128 -170q1 16 11 41q12 16 39 16q18 0 33.5 -12t15.5 -29h-31q0 4 -3 11.5t-13 7.5t-17.5 -9.5t-7.5 -21.5q0 -6 1 -10t1 -8l8 -11q4 -4 13 -4q4 0 11 3t7 14h27q0 -18 -13.5 -29.5t-31.5 -11.5q-20 0 -35 12t-15 41zM1167 627h107v41h-2q-4 -4 -7 -10.5 t-3 -10.5l-5 -6q-6 -6 -10 -9t-16 -3h-25v73q0 14 19 15h6v4h-64v-4h4q16 0 17 -15v-57q0 -16 -17 -16zM1221 -2v115h28v-17q12 18 35 19q14 0 21 -4l14 -13q4 -12 4 -20v-80h-29v70q0 23 -20 22q-23 0 -23 -27v-65h-30zM1237 -166q0 9 4 25q12 29 45 28q27 0 38 -17t11 -40 v-6h-71q0 -25 22 -25q6 0 14 4l7 9h26q-10 -35 -47 -35q-49 0 -49 57zM1264 -158h43q0 8 -5.5 15.5t-17.5 7.5q-16 0 -20 -23zM1266 963q2 0 2 2t2 4l6 10l8 10l14 23l45 57l23 21q2 2 8 3t8 1l7 -4q0 -2 1 -3.5t1 -3.5q0 -8 -7 -14l-28 -45l-17 -14l-26 -27l-23 -18 q-4 0 -9 -4.5t-9 -4.5l-2 2h-2q-2 2 -2 5zM1268 721l2 -4q6 0 12 -1t10 -11l29 -39v-21q0 -16 -16 -16l-7 -2h68l-8 2q-16 0 -17 16v23l29 41q8 4 10 4h2l4 2q2 0 7 2v4h-47v-4h6q14 0 14 -8q0 -4 -6 -11l-19 -26l-24 30q-4 8 -4 9v2q0 4 8 4h8v4h-61zM1337 92v21h19v28h26 v-28h21v-21h-21v-61q0 -10 13 -11l8 3v-25h-21q-25 0 -26 12v82h-19zM1352 -190h30v-31h-30v31zM1401 -170q0 16 10 41q12 16 39 16q16 0 32.5 -10t16.5 -31h-29l-6 13q-6 6 -12 6q-8 0 -15 -8.5t-7 -22.5q0 -33 20 -33q18 0 18 17h31q-4 -16 -14 -28.5t-35 -12.5 q-18 0 -33.5 11t-15.5 42zM1473 31q0 18 10 24t22 11l27 4q10 0 10 8q0 14 -18 14t-21 -18h-26q0 14 8 27.5t26 13.5h13q23 0 35 -6.5t12 -26.5v-72q0 -6 8 -6v-6h-33q-2 0 -2 2v2v2q0 4 -1 5t-1 3l-8 -8q-2 -2 -3 -2t-3 -2t-4 -2q-6 0 -9.5 -1t-7.5 -1q-8 0 -21 5t-13 30z M1501 31q0 -8 5 -10.5t10 -2.5l12 2q14 6 14 21v14q-6 -6 -12 -6l-14 -4q-15 0 -15 -14zM1511 -168q0 13 2 21q12 35 52 34q16 0 33.5 -11t17.5 -44q0 -23 -11.5 -39t-39.5 -16q-53 0 -54 55zM1538 -168q0 -12 5 -21.5t22 -9.5q16 0 20 10.5t4 20.5q0 13 -6 23q-4 10 -18 10 q-16 0 -21.5 -10.5t-5.5 -22.5zM1567 1167l28 37l13 23l26 35q0 2 3 4t5 4q0 -8 -2 -10l-8 -11l-12 -18l-35 -41l-10 -12q-4 -8 -8 -11zM1585 92v21h14v28h33v-28h19v-21h-19v-69q2 0 4 -1.5t6 -1.5l9 3v-25h-19q-8 0 -20.5 3t-12.5 22v69h-14zM1636 -115h27v-16q8 18 31 18 q18 0 28 -16q6 16 27 16q37 0 37 -37v-71h-27v63q0 23 -16 23q-18 0 -19 -23v-63h-26v74q0 6 -6 9t-13 3q-16 0 -16 -23v-63h-27v106z" />
<glyph unicode="1" d="M70 -193q0 17 8 23q10 10 20 10l27 4q10 0 10 6q0 16 -16 17q-10 0 -15.5 -6t-5.5 -11h-24q0 25 15 31t30 6q29 0 35 -10t6 -20v-56q0 -10 1 -12t5 -6v-4h-29v6q-2 2 -2 6l-8 -8q-8 -4 -13 -5t-10 -1q-12 0 -23 6t-11 24zM96 -190q0 -4 5 -9.5t10 -5.5q2 0 5 1t15 9 q4 8 4 13v12q-2 0 -10 -4l-10 -2q-18 -4 -19 -14zM125 565v494l268 59l-10 37l41 12l-8 39l41 8l-6 48h41v41h36l4 36l39 -6l9 41l43 -6l10 39l39 -10l16 37l39 -17l23 39l34 -18l23 35l37 -25l24 33l35 -27l27 29l26 -25l27 23l27 -29l34 23l23 -37l39 20l18 -35l37 17 l17 -41l43 12l12 -39l39 10l8 -43l43 4l2 -26l404 88v-496l-185 -41l4 -2l-24 -26l24 -29l-32 -27l22 -34l-37 -23l23 -37l-35 -20l14 -37l-39 -17l13 -43l-37 -12l6 -39l-39 -8v-43l-39 -4v-39h-35l-6 -35h-39l-8 -37l-43 6l-10 -40l-39 12l-14 -39l-44 16l-18 -39l-37 21 l-22 -35l-37 23l-25 -33l-30 26l-31 -26l-27 24l-26 -24l-25 31l-35 -23l-24 37l-37 -21l-19 35l-39 -16l-18 41l-39 -13l-12 37l-41 -8l-8 43l-43 -4l-5 41h-40v35l-35 4l4 41l-41 6l8 43l-41 12l12 37l-28 12zM186 -115h25l2 -18l6 10q4 4 5 7t18 3h6v-28h-8 q-27 0 -27 -25v-55h-27v106zM236 76v16q0 29 23.5 46.5t49.5 17.5h6q29 0 47.5 -19.5t14.5 -30.5h-33q-2 10 -12 16.5t-21 6.5h-14l-14 -12q-10 -4 -12.5 -16.5t-2.5 -26.5q0 -51 37 -51h4q12 0 25.5 8t13.5 24h-37v27h66v-84h-21l-4 20q-16 -25 -51 -24q-12 0 -25.5 6 t-19.5 16q-12 10 -16 26.5t-4 33.5zM236 702h10l8 5l10 10l19 20q4 8 8 13l63 86l39 61q6 8 11.5 15.5t9.5 15.5l16 33q0 2 1 2t1 2q0 4 -6 4q-8 0 -10 -2l-8 -4l-33 -41q-6 -6 -15 -19l-16 -20l-82 -121l-26 -49v-11zM262 -78h29v-24h-29v24zM262 -115h29v-106h-29v106z M274 895q0 -10 13 -18l18 -7q4 0 16.5 1t12.5 8q0 2 -2 2h-4q-4 0 -7.5 -2t-7.5 -2q-31 0 -30 22q0 6 2 12q12 23 50 46.5t73 37.5l28 4q16 4 27 5q4 0 18.5 -3.5t18.5 -7.5l10 -12v-16q0 -12 -2 -21l-10 -18q-10 -14 -21.5 -29.5t-34.5 -30.5l-22 -14l-39 -16q-2 0 -5 -1 t-7 -1h-4q-2 0 -7.5 -2.5t-5.5 -6.5q0 -2 2 -2h4q4 0 7 2l30 9l54 22l49 33l37 39q10 16 14 28.5t4 20.5q0 2 -1 3t-1 5l-6 14l-15 11q-23 6 -43 6q-47 0 -103 -23.5t-99 -66.5l-9 -21q-2 -4 -2 -10zM317 -115h25v-16q12 18 33 18q12 0 24.5 -7t12.5 -30v-71h-29v63 q0 10 -3 16.5t-15 6.5t-16.5 -8.5t-4.5 -16.5v-61h-27v106zM395 57q0 33 16.5 45.5t39.5 12.5q31 0 41 -19.5t10 -42.5v-8h-78q0 -8 6 -16.5t21 -8.5q10 0 15 4.5t5 8.5h31l-10 -21l-17 -12l-12 -3t-12 -1q-55 0 -56 61zM428 68h45l-8 16t-14 8q-23 0 -23 -24zM430 -166 q0 6 2 12.5t4 12.5q12 29 39 28q10 0 18.5 -4t12.5 -14l2 16h24v-100q0 -20 -10 -33.5t-43 -13.5q-18 0 -30.5 7t-12.5 24h27l6 -9q2 -2 12 -2q23 0 24 9.5t1 7.5v18q-12 -14 -29 -14q-14 0 -30.5 10t-16.5 45zM461 -168q0 -8 2 -14q0 -8 7 -11.5t11 -3.5q25 0 25 29 q0 10 -7 21.5t-18 11.5q-20 0 -20 -33zM498 717q20 0 20 -15v-49q0 -8 10 -22l17 -4q4 -2 18 -2q25 0 35 10q8 6 8 18q-4 -10 -10 -16l-12 -8h-15q-10 0 -21 3t-11 21v49q0 10 6 12.5t12 2.5h6v4h-63v-4zM510 92v21h16v28h31v-28h16v-21h-16v-61q0 -6 1 -8.5t11 -2.5l2 3 l2 -25h-16q-10 0 -20.5 2t-10.5 23v69h-16zM510 821q6 -20 27 -20q20 0 46.5 11t49.5 34l39 35q0 2 3 5t3 5l4 6l31 37q6 4 10 10t8 10l10 -8q0 -2 2 -4v-2q0 -2 -2 -4t-4 -6l-16 -17l-27 -39l-4 -18q-2 -2 -2 -8l4 -14h8q10 0 17 2l16 10q8 8 18.5 18t20.5 17l16 22l9 10 q4 4 4 5l33 47q0 -10 3 -17.5t3 -11.5l4 -8q-16 -4 -25 -13l-20 -14q-6 -10 -10.5 -17t-4.5 -18q0 -6 11 -10h18q18 0 35.5 15.5t28.5 25.5l8 18q6 8 6 19v16q0 6 -4 15l-6 16l-7 6q0 4 -3 7t-3 5v11h-8l-4 -4l-12 -9l-6 -14l-37 -51l-10 -17l-3 -2q-2 0 -4 -2l-10 -16 l-37 -39l-12 -6q-4 -4 -12 -4v2l14 20l14 19l19 28l4 15q2 6 2 14q-2 2 -2 8l-2 4q0 4 -2 7v22l6 10v4q0 2 -3 6.5t-7 4.5q-10 0 -25.5 -9.5t-15.5 -23.5q0 -8 2 -12l4 -2l4 -5l-12 -12l-43 -53q-4 0 -4 -4l-2 -4q0 -2 -2 -2l-11 -15q-16 -14 -30.5 -25.5t-30.5 -19.5 l-21 -8q-8 -4 -12 -4q-14 0 -14 12q0 2 4 11l12 24q4 -2 12 -2h19q10 4 21.5 10t29.5 17l14 16q4 4 7.5 8t3.5 8l8 13q0 16 -12 24h-19h-9t-9 -4l-21 -8q-33 -16 -59.5 -42t-34.5 -60v-17zM545 -115h14v27h29v-27h16v-20h-16v-55v-7.5t10 -3.5l6 2v-22h-16q-29 0 -29 22v64 h-14v20zM567 870l15 23l24 29l21 18l12 4q2 0 3 1t5 1q2 0 3 -1t3 -1v-10l-6 -8q-8 -8 -12 -19.5t-21 -19.5l-22 -17q-6 -2 -12 -2q-10 0 -13 2zM580 717h10q8 0 12 -8.5t4 -16.5v15l10 8l2 2h9v4h-47v-4zM610 -115h33l21 -78l20 78h31l-37 -104l-14 -35q-8 -8 -25 -8h-14 v22h16q2 0 6 4v5q2 2 2 6l-37 102zM639 694q0 -4 3 -10t7 -6l13 -6q2 -2 20 -6l8 -2q4 -2 16.5 -5.5t12.5 -15.5q0 -2 -3 -7t-9 -7h-11q-10 0 -16 2l-16 6l-11 10q-10 10 -10 21h-2l2 -43q0 4 4 7t8 3q2 0 5.5 -2t7.5 -2l14 -4q4 -2 14 -2q14 0 19.5 7t15.5 11v21l-6 6 q-2 4 -12 8l-17 6l-12 2q-4 0 -19.5 5t-11.5 11v9q0 -2 3 4t20 6q23 0 30 -9.5t17 -23.5h2l-2 31q-2 -6 -8 -6h-8q-16 10 -31 10q-8 0 -21 -4l-12 -8q-2 -4 -3 -7.5t-1 -9.5zM641 92v21h14v8q0 33 35 33h15v-25h-15q-4 0 -4 -4v-12h19v-21h-19v-94h-31v94h-14zM723 37v76h29 v-70q0 -20 20 -20h10l11 10q0 2 2 5t2 7v68h26v-115h-26v16q-8 -10 -18.5 -14t-16.5 -4q-39 0 -39 41zM731 -115h25v-16h4q2 0 4 2l16 14q2 2 8 2q12 0 29 -12t17 -43q0 -23 -14.5 -39t-31.5 -16q-10 0 -14 2l-8 6q-2 2 -5 2t-3 4v-51h-27v145zM741 627h103v39l-17 -27 q-6 -6 -8 -6l-10 -2q-4 -2 -12 -2h-15l2 41q8 0 19 -6l4 -7q0 -2 1 -3t1 -3v-8v59l-4 -18q-10 -10 -19 -10h-4v43h17q16 0 22 -2l8 -6l11 -25h4v37h-103v-4h4q16 0 17 -15v-57q0 -16 -17 -16zM756 -170q0 -14 8 -20q6 -8 16 -9q23 0 23 31q0 10 -4 21.5t-19 11.5 q-25 0 -24 -35zM793 868v9l10 18q8 10 18 18l23 11q0 -4 1 -6.5t1 -4.5q-2 -4 -2 -8v-12l-4 -8l-17 -17q-4 0 -10 -3t-10 -3q-8 0 -10 6zM844 -166q0 17 4 25q12 29 43 28q51 0 51 -57v-6h-72q0 -25 23 -25q6 0 14 4l6 9h27q-4 -23 -16.5 -29t-30.5 -6q-49 0 -49 57zM852 -2 v156h29v-156h-29zM870 -158h43q0 8 -5 15.5t-17 7.5q-16 0 -21 -23zM903 -2v156h29v-156h-29zM905 674q0 -29 21.5 -39t36.5 -10q20 0 29.5 7t19.5 17q6 8 6 25q0 16 -14.5 32.5t-40.5 16.5q-29 0 -43.5 -16.5t-14.5 -32.5zM915 901q0 -8 5 -8l10 -8q2 0 4 -1t4 -1l2 2h12 q8 2 14.5 4t12.5 4l27 14l41 37l14 21l16 34q0 2 1 4.5t1 4.5q0 -4 -2 11t-30 15q-6 0 -13.5 -2t-17.5 -6l-12 -4l-48 -35l-28 -37q-10 -16 -13 -26v-23zM928 674q0 4 1 8t1 8l12 23q2 2 8 5t15 3q0 -2 2 -2h4l16 -12q0 -6 4 -11.5t4 -21.5q0 -14 -5 -29.5t-27 -15.5 q-23 0 -25 12l-6 12q-4 12 -4 21zM940 895v12q4 14 10 21l15 22l34 43l9.5 9.5l9.5 9.5l18 12q4 2 11 2q6 0 6 -10q0 -2 -4 -10l-11 -19l-26 -41l-37 -39q-4 -4 -8 -6q-4 -4 -7.5 -5t-7.5 -3h-8q-4 0 -4 2zM948 -115h17v9q0 29 30 28h13v-22h-13l-2 -2l-2 -13h19v-20h-19 v-86h-26v86h-17v20zM1010 92v21h14v8q0 33 35 33h12v-25h-12q-2 0 -4 -4v-12h20v-21h-20v-94h-31v94h-14zM1018 -193q0 17 10 23q10 10 21 10l24 4q8 0 8 6q0 16 -14 17q-8 0 -13 -6t-5 -11h-27q0 27 18.5 32t26.5 5q43 0 43 -30v-56q0 -10 1 -12t5 -6v-4l-31 2q0 2 -1 2 t-1 2v6q-14 -6 -17 -10t-15 -4q-8 0 -15 2l-14 10q-4 8 -4 18zM1032 627l49 2q-6 0 -10 2h-8l-4 10q-2 2 -2 12v56l80 -82h4v65q0 10 2 17.5t18 7.5v4h-47v-4h8l6 -6q8 -8 9 -19v-39l-66 68h-37v-4q12 0 15.5 -4t3.5 -11v-53q0 -6 -2 -10l-7 -8q-4 0 -7 -1t-5 -1v-2z M1047 -190q0 -14 12 -15q4 0 6 4l14 6q2 4 2 13v12l-8 -4l-14 -2q-12 0 -12 -14zM1051 905q2 0 3 -1t3 -1q4 0 8 2l8 4q0 8 8 9l4 6q0 4 5 4l36 43l39 41l39 37l23 12q2 0 2 -2l-6 -4q-2 -6 -9 -8l-16 -21q-4 -4 -6 -7t-6 -7l-29 -43l-6 -19q-2 -4 -2 -10q0 -12 10 -12h19 q4 2 9 5t13 7l19 14l22 23q-2 -2 -2 -6q0 -10 5 -17.5t16 -7.5q16 0 38 17l21 14l7 7l7 7l13 13v-5q0 -2 -1.5 -3t-1.5 -3v-6q-2 -2 -2 -6t3.5 -10t7.5 -6h16l6 4l21 12l49 43l-4 -12q-4 -6 -4 -19v-6q4 0 4 -2t6 -2q2 0 10 3t10 7l23 19q4 0 12 9t17 17l18 21v4q0 2 -2 2 q-4 0 -8 -4l-2 -4l-23 -27q-10 -6 -12 -12l-14 -12l-17 -9l-2 -2q-2 0 -4 2l10 15q4 8 8 12l7 12q4 2 8 11l63 92q10 10 13 16l53 59q10 10 17 20.5t16 20.5l10 19v8q-2 2 -8 2q-4 0 -14.5 -4t-18.5 -12l-8 -6l-39 -37q-10 -10 -16.5 -18.5t-16.5 -24.5l-53 -86l-27 -49 l-16 -15q-4 -6 -8.5 -10t-10.5 -10l-18 -17l-17 -12l-4 -2l-4 -4h-10l12 20q0 4 8.5 15.5t12.5 15.5l16 29l23 33l8 12q-4 0 2 4t6 6q0 6 -6 6l-20 -10l-33 -25q0 18 -21 19q-6 0 -15 -3t-15 -7l-25 -13l-18 -16q-23 -16 -37.5 -36.5t-20.5 -39.5h-4l-16 -18 q-10 -8 -21.5 -18.5t-23.5 -10.5h-2q-2 0 -2 2l2 2l12 19l33 41q4 6 9 13t9 15l8 17q2 4 2 10q0 16 -8 16q-6 0 -8 -2l-25 -12l-20 -17q-8 -8 -12 -8l-21 -22q-4 -4 -9 -9.5t-9 -9.5l-21 -22l2 4l51 72q0 2 3.5 6t3.5 8l-7 6q-2 0 -3 1t-3 1t-4 -1t-6 -1l-14 -10 q-4 -2 -4 -4t-2 -4l-82 -140q-2 -2 -2 -4v-2zM1083 55q0 4 1 14.5t7.5 20.5t17.5 17.5t34 7.5q10 0 23.5 -3.5t17.5 -11.5q16 -16 16 -45q0 -16 -11 -37.5t-46 -21.5q-29 0 -44.5 16.5t-15.5 42.5zM1114 55q0 -20 8 -26t21 -6q16 0 20 10q6 6 6 22q0 14 -6 24.5t-20 10.5 q-29 0 -29 -35zM1128 -170q1 16 11 41q12 16 39 16q18 0 33.5 -12t15.5 -29h-31q0 4 -3 11.5t-13 7.5t-17.5 -9.5t-7.5 -21.5q0 -6 1 -10t1 -8l8 -11q4 -4 13 -4q4 0 11 3t7 14h27q0 -18 -13.5 -29.5t-31.5 -11.5q-20 0 -35 12t-15 41zM1167 627h107v41h-2q-4 -4 -7 -10.5 t-3 -10.5l-5 -6q-6 -6 -10 -9t-16 -3h-25v73q0 14 19 15h6v4h-64v-4h4q16 0 17 -15v-57q0 -16 -17 -16zM1221 -2v115h28v-17q12 18 35 19q14 0 21 -4l14 -13q4 -12 4 -20v-80h-29v70q0 23 -20 22q-23 0 -23 -27v-65h-30zM1237 -166q0 9 4 25q12 29 45 28q27 0 38 -17t11 -40 v-6h-71q0 -25 22 -25q6 0 14 4l7 9h26q-10 -35 -47 -35q-49 0 -49 57zM1264 -158h43q0 8 -5.5 15.5t-17.5 7.5q-16 0 -20 -23zM1266 963q2 0 2 2t2 4l6 10l8 10l14 23l45 57l23 21q2 2 8 3t8 1l7 -4q0 -2 1 -3.5t1 -3.5q0 -8 -7 -14l-28 -45l-17 -14l-26 -27l-23 -18 q-4 0 -9 -4.5t-9 -4.5l-2 2h-2q-2 2 -2 5zM1268 721l2 -4q6 0 12 -1t10 -11l29 -39v-21q0 -16 -16 -16l-7 -2h68l-8 2q-16 0 -17 16v23l29 41q8 4 10 4h2l4 2q2 0 7 2v4h-47v-4h6q14 0 14 -8q0 -4 -6 -11l-19 -26l-24 30q-4 8 -4 9v2q0 4 8 4h8v4h-61zM1337 92v21h19v28h26 v-28h21v-21h-21v-61q0 -10 13 -11l8 3v-25h-21q-25 0 -26 12v82h-19zM1352 -190h30v-31h-30v31zM1401 -170q0 16 10 41q12 16 39 16q16 0 32.5 -10t16.5 -31h-29l-6 13q-6 6 -12 6q-8 0 -15 -8.5t-7 -22.5q0 -33 20 -33q18 0 18 17h31q-4 -16 -14 -28.5t-35 -12.5 q-18 0 -33.5 11t-15.5 42zM1473 31q0 18 10 24t22 11l27 4q10 0 10 8q0 14 -18 14t-21 -18h-26q0 14 8 27.5t26 13.5h13q23 0 35 -6.5t12 -26.5v-72q0 -6 8 -6v-6h-33q-2 0 -2 2v2v2q0 4 -1 5t-1 3l-8 -8q-2 -2 -3 -2t-3 -2t-4 -2q-6 0 -9.5 -1t-7.5 -1q-8 0 -21 5t-13 30z M1501 31q0 -8 5 -10.5t10 -2.5l12 2q14 6 14 21v14q-6 -6 -12 -6l-14 -4q-15 0 -15 -14zM1511 -168q0 13 2 21q12 35 52 34q16 0 33.5 -11t17.5 -44q0 -23 -11.5 -39t-39.5 -16q-53 0 -54 55zM1538 -168q0 -12 5 -21.5t22 -9.5q16 0 20 10.5t4 20.5q0 13 -6 23q-4 10 -18 10 q-16 0 -21.5 -10.5t-5.5 -22.5zM1567 1167l28 37l13 23l26 35q0 2 3 4t5 4q0 -8 -2 -10l-8 -11l-12 -18l-35 -41l-10 -12q-4 -8 -8 -11zM1585 92v21h14v28h33v-28h19v-21h-19v-69q2 0 4 -1.5t6 -1.5l9 3v-25h-19q-8 0 -20.5 3t-12.5 22v69h-14zM1636 -115h27v-16q8 18 31 18 q18 0 28 -16q6 16 27 16q37 0 37 -37v-71h-27v63q0 23 -16 23q-18 0 -19 -23v-63h-26v74q0 6 -6 9t-13 3q-16 0 -16 -23v-63h-27v106z" />
<glyph unicode="2" d="M70 -193q0 17 8 23q10 10 20 10l27 4q10 0 10 6q0 16 -16 17q-10 0 -15.5 -6t-5.5 -11h-24q0 25 15 31t30 6q29 0 35 -10t6 -20v-56q0 -10 1 -12t5 -6v-4h-29v6q-2 2 -2 6l-8 -8q-8 -4 -13 -5t-10 -1q-12 0 -23 6t-11 24zM96 -190q0 -4 5 -9.5t10 -5.5q2 0 5 1t15 9 q4 8 4 13v12q-2 0 -10 -4l-10 -2q-18 -4 -19 -14zM125 565v494l268 59l-10 37l41 12l-8 39l41 8l-6 48h41v41h36l4 36l39 -6l9 41l43 -6l10 39l39 -10l16 37l39 -17l23 39l34 -18l23 35l37 -25l24 33l35 -27l27 29l26 -25l27 23l27 -29l34 23l23 -37l39 20l18 -35l37 17 l17 -41l43 12l12 -39l39 10l8 -43l43 4l2 -26l404 88v-496l-185 -41l4 -2l-24 -26l24 -29l-32 -27l22 -34l-37 -23l23 -37l-35 -20l14 -37l-39 -17l13 -43l-37 -12l6 -39l-39 -8v-43l-39 -4v-39h-35l-6 -35h-39l-8 -37l-43 6l-10 -40l-39 12l-14 -39l-44 16l-18 -39l-37 21 l-22 -35l-37 23l-25 -33l-30 26l-31 -26l-27 24l-26 -24l-25 31l-35 -23l-24 37l-37 -21l-19 35l-39 -16l-18 41l-39 -13l-12 37l-41 -8l-8 43l-43 -4l-5 41h-40v35l-35 4l4 41l-41 6l8 43l-41 12l12 37l-28 12zM186 -115h25l2 -18l6 10q4 4 5 7t18 3h6v-28h-8 q-27 0 -27 -25v-55h-27v106zM236 76v16q0 29 23.5 46.5t49.5 17.5h6q29 0 47.5 -19.5t14.5 -30.5h-33q-2 10 -12 16.5t-21 6.5h-14l-14 -12q-10 -4 -12.5 -16.5t-2.5 -26.5q0 -51 37 -51h4q12 0 25.5 8t13.5 24h-37v27h66v-84h-21l-4 20q-16 -25 -51 -24q-12 0 -25.5 6 t-19.5 16q-12 10 -16 26.5t-4 33.5zM236 702h10l8 5l10 10l19 20q4 8 8 13l63 86l39 61q6 8 11.5 15.5t9.5 15.5l16 33q0 2 1 2t1 2q0 4 -6 4q-8 0 -10 -2l-8 -4l-33 -41q-6 -6 -15 -19l-16 -20l-82 -121l-26 -49v-11zM262 -78h29v-24h-29v24zM262 -115h29v-106h-29v106z M274 895q0 -10 13 -18l18 -7q4 0 16.5 1t12.5 8q0 2 -2 2h-4q-4 0 -7.5 -2t-7.5 -2q-31 0 -30 22q0 6 2 12q12 23 50 46.5t73 37.5l28 4q16 4 27 5q4 0 18.5 -3.5t18.5 -7.5l10 -12v-16q0 -12 -2 -21l-10 -18q-10 -14 -21.5 -29.5t-34.5 -30.5l-22 -14l-39 -16q-2 0 -5 -1 t-7 -1h-4q-2 0 -7.5 -2.5t-5.5 -6.5q0 -2 2 -2h4q4 0 7 2l30 9l54 22l49 33l37 39q10 16 14 28.5t4 20.5q0 2 -1 3t-1 5l-6 14l-15 11q-23 6 -43 6q-47 0 -103 -23.5t-99 -66.5l-9 -21q-2 -4 -2 -10zM317 -115h25v-16q12 18 33 18q12 0 24.5 -7t12.5 -30v-71h-29v63 q0 10 -3 16.5t-15 6.5t-16.5 -8.5t-4.5 -16.5v-61h-27v106zM395 57q0 33 16.5 45.5t39.5 12.5q31 0 41 -19.5t10 -42.5v-8h-78q0 -8 6 -16.5t21 -8.5q10 0 15 4.5t5 8.5h31l-10 -21l-17 -12l-12 -3t-12 -1q-55 0 -56 61zM428 68h45l-8 16t-14 8q-23 0 -23 -24zM430 -166 q0 6 2 12.5t4 12.5q12 29 39 28q10 0 18.5 -4t12.5 -14l2 16h24v-100q0 -20 -10 -33.5t-43 -13.5q-18 0 -30.5 7t-12.5 24h27l6 -9q2 -2 12 -2q23 0 24 9.5t1 7.5v18q-12 -14 -29 -14q-14 0 -30.5 10t-16.5 45zM461 -168q0 -8 2 -14q0 -8 7 -11.5t11 -3.5q25 0 25 29 q0 10 -7 21.5t-18 11.5q-20 0 -20 -33zM498 717q20 0 20 -15v-49q0 -8 10 -22l17 -4q4 -2 18 -2q25 0 35 10q8 6 8 18q-4 -10 -10 -16l-12 -8h-15q-10 0 -21 3t-11 21v49q0 10 6 12.5t12 2.5h6v4h-63v-4zM510 92v21h16v28h31v-28h16v-21h-16v-61q0 -6 1 -8.5t11 -2.5l2 3 l2 -25h-16q-10 0 -20.5 2t-10.5 23v69h-16zM510 821q6 -20 27 -20q20 0 46.5 11t49.5 34l39 35q0 2 3 5t3 5l4 6l31 37q6 4 10 10t8 10l10 -8q0 -2 2 -4v-2q0 -2 -2 -4t-4 -6l-16 -17l-27 -39l-4 -18q-2 -2 -2 -8l4 -14h8q10 0 17 2l16 10q8 8 18.5 18t20.5 17l16 22l9 10 q4 4 4 5l33 47q0 -10 3 -17.5t3 -11.5l4 -8q-16 -4 -25 -13l-20 -14q-6 -10 -10.5 -17t-4.5 -18q0 -6 11 -10h18q18 0 35.5 15.5t28.5 25.5l8 18q6 8 6 19v16q0 6 -4 15l-6 16l-7 6q0 4 -3 7t-3 5v11h-8l-4 -4l-12 -9l-6 -14l-37 -51l-10 -17l-3 -2q-2 0 -4 -2l-10 -16 l-37 -39l-12 -6q-4 -4 -12 -4v2l14 20l14 19l19 28l4 15q2 6 2 14q-2 2 -2 8l-2 4q0 4 -2 7v22l6 10v4q0 2 -3 6.5t-7 4.5q-10 0 -25.5 -9.5t-15.5 -23.5q0 -8 2 -12l4 -2l4 -5l-12 -12l-43 -53q-4 0 -4 -4l-2 -4q0 -2 -2 -2l-11 -15q-16 -14 -30.5 -25.5t-30.5 -19.5 l-21 -8q-8 -4 -12 -4q-14 0 -14 12q0 2 4 11l12 24q4 -2 12 -2h19q10 4 21.5 10t29.5 17l14 16q4 4 7.5 8t3.5 8l8 13q0 16 -12 24h-19h-9t-9 -4l-21 -8q-33 -16 -59.5 -42t-34.5 -60v-17zM545 -115h14v27h29v-27h16v-20h-16v-55v-7.5t10 -3.5l6 2v-22h-16q-29 0 -29 22v64 h-14v20zM567 870l15 23l24 29l21 18l12 4q2 0 3 1t5 1q2 0 3 -1t3 -1v-10l-6 -8q-8 -8 -12 -19.5t-21 -19.5l-22 -17q-6 -2 -12 -2q-10 0 -13 2zM580 717h10q8 0 12 -8.5t4 -16.5v15l10 8l2 2h9v4h-47v-4zM610 -115h33l21 -78l20 78h31l-37 -104l-14 -35q-8 -8 -25 -8h-14 v22h16q2 0 6 4v5q2 2 2 6l-37 102zM639 694q0 -4 3 -10t7 -6l13 -6q2 -2 20 -6l8 -2q4 -2 16.5 -5.5t12.5 -15.5q0 -2 -3 -7t-9 -7h-11q-10 0 -16 2l-16 6l-11 10q-10 10 -10 21h-2l2 -43q0 4 4 7t8 3q2 0 5.5 -2t7.5 -2l14 -4q4 -2 14 -2q14 0 19.5 7t15.5 11v21l-6 6 q-2 4 -12 8l-17 6l-12 2q-4 0 -19.5 5t-11.5 11v9q0 -2 3 4t20 6q23 0 30 -9.5t17 -23.5h2l-2 31q-2 -6 -8 -6h-8q-16 10 -31 10q-8 0 -21 -4l-12 -8q-2 -4 -3 -7.5t-1 -9.5zM641 92v21h14v8q0 33 35 33h15v-25h-15q-4 0 -4 -4v-12h19v-21h-19v-94h-31v94h-14zM723 37v76h29 v-70q0 -20 20 -20h10l11 10q0 2 2 5t2 7v68h26v-115h-26v16q-8 -10 -18.5 -14t-16.5 -4q-39 0 -39 41zM731 -115h25v-16h4q2 0 4 2l16 14q2 2 8 2q12 0 29 -12t17 -43q0 -23 -14.5 -39t-31.5 -16q-10 0 -14 2l-8 6q-2 2 -5 2t-3 4v-51h-27v145zM741 627h103v39l-17 -27 q-6 -6 -8 -6l-10 -2q-4 -2 -12 -2h-15l2 41q8 0 19 -6l4 -7q0 -2 1 -3t1 -3v-8v59l-4 -18q-10 -10 -19 -10h-4v43h17q16 0 22 -2l8 -6l11 -25h4v37h-103v-4h4q16 0 17 -15v-57q0 -16 -17 -16zM756 -170q0 -14 8 -20q6 -8 16 -9q23 0 23 31q0 10 -4 21.5t-19 11.5 q-25 0 -24 -35zM793 868v9l10 18q8 10 18 18l23 11q0 -4 1 -6.5t1 -4.5q-2 -4 -2 -8v-12l-4 -8l-17 -17q-4 0 -10 -3t-10 -3q-8 0 -10 6zM844 -166q0 17 4 25q12 29 43 28q51 0 51 -57v-6h-72q0 -25 23 -25q6 0 14 4l6 9h27q-4 -23 -16.5 -29t-30.5 -6q-49 0 -49 57zM852 -2 v156h29v-156h-29zM870 -158h43q0 8 -5 15.5t-17 7.5q-16 0 -21 -23zM903 -2v156h29v-156h-29zM905 674q0 -29 21.5 -39t36.5 -10q20 0 29.5 7t19.5 17q6 8 6 25q0 16 -14.5 32.5t-40.5 16.5q-29 0 -43.5 -16.5t-14.5 -32.5zM915 901q0 -8 5 -8l10 -8q2 0 4 -1t4 -1l2 2h12 q8 2 14.5 4t12.5 4l27 14l41 37l14 21l16 34q0 2 1 4.5t1 4.5q0 -4 -2 11t-30 15q-6 0 -13.5 -2t-17.5 -6l-12 -4l-48 -35l-28 -37q-10 -16 -13 -26v-23zM928 674q0 4 1 8t1 8l12 23q2 2 8 5t15 3q0 -2 2 -2h4l16 -12q0 -6 4 -11.5t4 -21.5q0 -14 -5 -29.5t-27 -15.5 q-23 0 -25 12l-6 12q-4 12 -4 21zM940 895v12q4 14 10 21l15 22l34 43l9.5 9.5l9.5 9.5l18 12q4 2 11 2q6 0 6 -10q0 -2 -4 -10l-11 -19l-26 -41l-37 -39q-4 -4 -8 -6q-4 -4 -7.5 -5t-7.5 -3h-8q-4 0 -4 2zM948 -115h17v9q0 29 30 28h13v-22h-13l-2 -2l-2 -13h19v-20h-19 v-86h-26v86h-17v20zM1010 92v21h14v8q0 33 35 33h12v-25h-12q-2 0 -4 -4v-12h20v-21h-20v-94h-31v94h-14zM1018 -193q0 17 10 23q10 10 21 10l24 4q8 0 8 6q0 16 -14 17q-8 0 -13 -6t-5 -11h-27q0 27 18.5 32t26.5 5q43 0 43 -30v-56q0 -10 1 -12t5 -6v-4l-31 2q0 2 -1 2 t-1 2v6q-14 -6 -17 -10t-15 -4q-8 0 -15 2l-14 10q-4 8 -4 18zM1032 627l49 2q-6 0 -10 2h-8l-4 10q-2 2 -2 12v56l80 -82h4v65q0 10 2 17.5t18 7.5v4h-47v-4h8l6 -6q8 -8 9 -19v-39l-66 68h-37v-4q12 0 15.5 -4t3.5 -11v-53q0 -6 -2 -10l-7 -8q-4 0 -7 -1t-5 -1v-2z M1047 -190q0 -14 12 -15q4 0 6 4l14 6q2 4 2 13v12l-8 -4l-14 -2q-12 0 -12 -14zM1051 905q2 0 3 -1t3 -1q4 0 8 2l8 4q0 8 8 9l4 6q0 4 5 4l36 43l39 41l39 37l23 12q2 0 2 -2l-6 -4q-2 -6 -9 -8l-16 -21q-4 -4 -6 -7t-6 -7l-29 -43l-6 -19q-2 -4 -2 -10q0 -12 10 -12h19 q4 2 9 5t13 7l19 14l22 23q-2 -2 -2 -6q0 -10 5 -17.5t16 -7.5q16 0 38 17l21 14l7 7l7 7l13 13v-5q0 -2 -1.5 -3t-1.5 -3v-6q-2 -2 -2 -6t3.5 -10t7.5 -6h16l6 4l21 12l49 43l-4 -12q-4 -6 -4 -19v-6q4 0 4 -2t6 -2q2 0 10 3t10 7l23 19q4 0 12 9t17 17l18 21v4q0 2 -2 2 q-4 0 -8 -4l-2 -4l-23 -27q-10 -6 -12 -12l-14 -12l-17 -9l-2 -2q-2 0 -4 2l10 15q4 8 8 12l7 12q4 2 8 11l63 92q10 10 13 16l53 59q10 10 17 20.5t16 20.5l10 19v8q-2 2 -8 2q-4 0 -14.5 -4t-18.5 -12l-8 -6l-39 -37q-10 -10 -16.5 -18.5t-16.5 -24.5l-53 -86l-27 -49 l-16 -15q-4 -6 -8.5 -10t-10.5 -10l-18 -17l-17 -12l-4 -2l-4 -4h-10l12 20q0 4 8.5 15.5t12.5 15.5l16 29l23 33l8 12q-4 0 2 4t6 6q0 6 -6 6l-20 -10l-33 -25q0 18 -21 19q-6 0 -15 -3t-15 -7l-25 -13l-18 -16q-23 -16 -37.5 -36.5t-20.5 -39.5h-4l-16 -18 q-10 -8 -21.5 -18.5t-23.5 -10.5h-2q-2 0 -2 2l2 2l12 19l33 41q4 6 9 13t9 15l8 17q2 4 2 10q0 16 -8 16q-6 0 -8 -2l-25 -12l-20 -17q-8 -8 -12 -8l-21 -22q-4 -4 -9 -9.5t-9 -9.5l-21 -22l2 4l51 72q0 2 3.5 6t3.5 8l-7 6q-2 0 -3 1t-3 1t-4 -1t-6 -1l-14 -10 q-4 -2 -4 -4t-2 -4l-82 -140q-2 -2 -2 -4v-2zM1083 55q0 4 1 14.5t7.5 20.5t17.5 17.5t34 7.5q10 0 23.5 -3.5t17.5 -11.5q16 -16 16 -45q0 -16 -11 -37.5t-46 -21.5q-29 0 -44.5 16.5t-15.5 42.5zM1114 55q0 -20 8 -26t21 -6q16 0 20 10q6 6 6 22q0 14 -6 24.5t-20 10.5 q-29 0 -29 -35zM1128 -170q1 16 11 41q12 16 39 16q18 0 33.5 -12t15.5 -29h-31q0 4 -3 11.5t-13 7.5t-17.5 -9.5t-7.5 -21.5q0 -6 1 -10t1 -8l8 -11q4 -4 13 -4q4 0 11 3t7 14h27q0 -18 -13.5 -29.5t-31.5 -11.5q-20 0 -35 12t-15 41zM1167 627h107v41h-2q-4 -4 -7 -10.5 t-3 -10.5l-5 -6q-6 -6 -10 -9t-16 -3h-25v73q0 14 19 15h6v4h-64v-4h4q16 0 17 -15v-57q0 -16 -17 -16zM1221 -2v115h28v-17q12 18 35 19q14 0 21 -4l14 -13q4 -12 4 -20v-80h-29v70q0 23 -20 22q-23 0 -23 -27v-65h-30zM1237 -166q0 9 4 25q12 29 45 28q27 0 38 -17t11 -40 v-6h-71q0 -25 22 -25q6 0 14 4l7 9h26q-10 -35 -47 -35q-49 0 -49 57zM1264 -158h43q0 8 -5.5 15.5t-17.5 7.5q-16 0 -20 -23zM1266 963q2 0 2 2t2 4l6 10l8 10l14 23l45 57l23 21q2 2 8 3t8 1l7 -4q0 -2 1 -3.5t1 -3.5q0 -8 -7 -14l-28 -45l-17 -14l-26 -27l-23 -18 q-4 0 -9 -4.5t-9 -4.5l-2 2h-2q-2 2 -2 5zM1268 721l2 -4q6 0 12 -1t10 -11l29 -39v-21q0 -16 -16 -16l-7 -2h68l-8 2q-16 0 -17 16v23l29 41q8 4 10 4h2l4 2q2 0 7 2v4h-47v-4h6q14 0 14 -8q0 -4 -6 -11l-19 -26l-24 30q-4 8 -4 9v2q0 4 8 4h8v4h-61zM1337 92v21h19v28h26 v-28h21v-21h-21v-61q0 -10 13 -11l8 3v-25h-21q-25 0 -26 12v82h-19zM1352 -190h30v-31h-30v31zM1401 -170q0 16 10 41q12 16 39 16q16 0 32.5 -10t16.5 -31h-29l-6 13q-6 6 -12 6q-8 0 -15 -8.5t-7 -22.5q0 -33 20 -33q18 0 18 17h31q-4 -16 -14 -28.5t-35 -12.5 q-18 0 -33.5 11t-15.5 42zM1473 31q0 18 10 24t22 11l27 4q10 0 10 8q0 14 -18 14t-21 -18h-26q0 14 8 27.5t26 13.5h13q23 0 35 -6.5t12 -26.5v-72q0 -6 8 -6v-6h-33q-2 0 -2 2v2v2q0 4 -1 5t-1 3l-8 -8q-2 -2 -3 -2t-3 -2t-4 -2q-6 0 -9.5 -1t-7.5 -1q-8 0 -21 5t-13 30z M1501 31q0 -8 5 -10.5t10 -2.5l12 2q14 6 14 21v14q-6 -6 -12 -6l-14 -4q-15 0 -15 -14zM1511 -168q0 13 2 21q12 35 52 34q16 0 33.5 -11t17.5 -44q0 -23 -11.5 -39t-39.5 -16q-53 0 -54 55zM1538 -168q0 -12 5 -21.5t22 -9.5q16 0 20 10.5t4 20.5q0 13 -6 23q-4 10 -18 10 q-16 0 -21.5 -10.5t-5.5 -22.5zM1567 1167l28 37l13 23l26 35q0 2 3 4t5 4q0 -8 -2 -10l-8 -11l-12 -18l-35 -41l-10 -12q-4 -8 -8 -11zM1585 92v21h14v28h33v-28h19v-21h-19v-69q2 0 4 -1.5t6 -1.5l9 3v-25h-19q-8 0 -20.5 3t-12.5 22v69h-14zM1636 -115h27v-16q8 18 31 18 q18 0 28 -16q6 16 27 16q37 0 37 -37v-71h-27v63q0 23 -16 23q-18 0 -19 -23v-63h-26v74q0 6 -6 9t-13 3q-16 0 -16 -23v-63h-27v106z" />
<glyph unicode="3" d="M70 -193q0 17 8 23q10 10 20 10l27 4q10 0 10 6q0 16 -16 17q-10 0 -15.5 -6t-5.5 -11h-24q0 25 15 31t30 6q29 0 35 -10t6 -20v-56q0 -10 1 -12t5 -6v-4h-29v6q-2 2 -2 6l-8 -8q-8 -4 -13 -5t-10 -1q-12 0 -23 6t-11 24zM96 -190q0 -4 5 -9.5t10 -5.5q2 0 5 1t15 9 q4 8 4 13v12q-2 0 -10 -4l-10 -2q-18 -4 -19 -14zM125 565v494l268 59l-10 37l41 12l-8 39l41 8l-6 48h41v41h36l4 36l39 -6l9 41l43 -6l10 39l39 -10l16 37l39 -17l23 39l34 -18l23 35l37 -25l24 33l35 -27l27 29l26 -25l27 23l27 -29l34 23l23 -37l39 20l18 -35l37 17 l17 -41l43 12l12 -39l39 10l8 -43l43 4l2 -26l404 88v-496l-185 -41l4 -2l-24 -26l24 -29l-32 -27l22 -34l-37 -23l23 -37l-35 -20l14 -37l-39 -17l13 -43l-37 -12l6 -39l-39 -8v-43l-39 -4v-39h-35l-6 -35h-39l-8 -37l-43 6l-10 -40l-39 12l-14 -39l-44 16l-18 -39l-37 21 l-22 -35l-37 23l-25 -33l-30 26l-31 -26l-27 24l-26 -24l-25 31l-35 -23l-24 37l-37 -21l-19 35l-39 -16l-18 41l-39 -13l-12 37l-41 -8l-8 43l-43 -4l-5 41h-40v35l-35 4l4 41l-41 6l8 43l-41 12l12 37l-28 12zM186 -115h25l2 -18l6 10q4 4 5 7t18 3h6v-28h-8 q-27 0 -27 -25v-55h-27v106zM236 76v16q0 29 23.5 46.5t49.5 17.5h6q29 0 47.5 -19.5t14.5 -30.5h-33q-2 10 -12 16.5t-21 6.5h-14l-14 -12q-10 -4 -12.5 -16.5t-2.5 -26.5q0 -51 37 -51h4q12 0 25.5 8t13.5 24h-37v27h66v-84h-21l-4 20q-16 -25 -51 -24q-12 0 -25.5 6 t-19.5 16q-12 10 -16 26.5t-4 33.5zM236 702h10l8 5l10 10l19 20q4 8 8 13l63 86l39 61q6 8 11.5 15.5t9.5 15.5l16 33q0 2 1 2t1 2q0 4 -6 4q-8 0 -10 -2l-8 -4l-33 -41q-6 -6 -15 -19l-16 -20l-82 -121l-26 -49v-11zM262 -78h29v-24h-29v24zM262 -115h29v-106h-29v106z M274 895q0 -10 13 -18l18 -7q4 0 16.5 1t12.5 8q0 2 -2 2h-4q-4 0 -7.5 -2t-7.5 -2q-31 0 -30 22q0 6 2 12q12 23 50 46.5t73 37.5l28 4q16 4 27 5q4 0 18.5 -3.5t18.5 -7.5l10 -12v-16q0 -12 -2 -21l-10 -18q-10 -14 -21.5 -29.5t-34.5 -30.5l-22 -14l-39 -16q-2 0 -5 -1 t-7 -1h-4q-2 0 -7.5 -2.5t-5.5 -6.5q0 -2 2 -2h4q4 0 7 2l30 9l54 22l49 33l37 39q10 16 14 28.5t4 20.5q0 2 -1 3t-1 5l-6 14l-15 11q-23 6 -43 6q-47 0 -103 -23.5t-99 -66.5l-9 -21q-2 -4 -2 -10zM317 -115h25v-16q12 18 33 18q12 0 24.5 -7t12.5 -30v-71h-29v63 q0 10 -3 16.5t-15 6.5t-16.5 -8.5t-4.5 -16.5v-61h-27v106zM395 57q0 33 16.5 45.5t39.5 12.5q31 0 41 -19.5t10 -42.5v-8h-78q0 -8 6 -16.5t21 -8.5q10 0 15 4.5t5 8.5h31l-10 -21l-17 -12l-12 -3t-12 -1q-55 0 -56 61zM428 68h45l-8 16t-14 8q-23 0 -23 -24zM430 -166 q0 6 2 12.5t4 12.5q12 29 39 28q10 0 18.5 -4t12.5 -14l2 16h24v-100q0 -20 -10 -33.5t-43 -13.5q-18 0 -30.5 7t-12.5 24h27l6 -9q2 -2 12 -2q23 0 24 9.5t1 7.5v18q-12 -14 -29 -14q-14 0 -30.5 10t-16.5 45zM461 -168q0 -8 2 -14q0 -8 7 -11.5t11 -3.5q25 0 25 29 q0 10 -7 21.5t-18 11.5q-20 0 -20 -33zM498 717q20 0 20 -15v-49q0 -8 10 -22l17 -4q4 -2 18 -2q25 0 35 10q8 6 8 18q-4 -10 -10 -16l-12 -8h-15q-10 0 -21 3t-11 21v49q0 10 6 12.5t12 2.5h6v4h-63v-4zM510 92v21h16v28h31v-28h16v-21h-16v-61q0 -6 1 -8.5t11 -2.5l2 3 l2 -25h-16q-10 0 -20.5 2t-10.5 23v69h-16zM510 821q6 -20 27 -20q20 0 46.5 11t49.5 34l39 35q0 2 3 5t3 5l4 6l31 37q6 4 10 10t8 10l10 -8q0 -2 2 -4v-2q0 -2 -2 -4t-4 -6l-16 -17l-27 -39l-4 -18q-2 -2 -2 -8l4 -14h8q10 0 17 2l16 10q8 8 18.5 18t20.5 17l16 22l9 10 q4 4 4 5l33 47q0 -10 3 -17.5t3 -11.5l4 -8q-16 -4 -25 -13l-20 -14q-6 -10 -10.5 -17t-4.5 -18q0 -6 11 -10h18q18 0 35.5 15.5t28.5 25.5l8 18q6 8 6 19v16q0 6 -4 15l-6 16l-7 6q0 4 -3 7t-3 5v11h-8l-4 -4l-12 -9l-6 -14l-37 -51l-10 -17l-3 -2q-2 0 -4 -2l-10 -16 l-37 -39l-12 -6q-4 -4 -12 -4v2l14 20l14 19l19 28l4 15q2 6 2 14q-2 2 -2 8l-2 4q0 4 -2 7v22l6 10v4q0 2 -3 6.5t-7 4.5q-10 0 -25.5 -9.5t-15.5 -23.5q0 -8 2 -12l4 -2l4 -5l-12 -12l-43 -53q-4 0 -4 -4l-2 -4q0 -2 -2 -2l-11 -15q-16 -14 -30.5 -25.5t-30.5 -19.5 l-21 -8q-8 -4 -12 -4q-14 0 -14 12q0 2 4 11l12 24q4 -2 12 -2h19q10 4 21.5 10t29.5 17l14 16q4 4 7.5 8t3.5 8l8 13q0 16 -12 24h-19h-9t-9 -4l-21 -8q-33 -16 -59.5 -42t-34.5 -60v-17zM545 -115h14v27h29v-27h16v-20h-16v-55v-7.5t10 -3.5l6 2v-22h-16q-29 0 -29 22v64 h-14v20zM567 870l15 23l24 29l21 18l12 4q2 0 3 1t5 1q2 0 3 -1t3 -1v-10l-6 -8q-8 -8 -12 -19.5t-21 -19.5l-22 -17q-6 -2 -12 -2q-10 0 -13 2zM580 717h10q8 0 12 -8.5t4 -16.5v15l10 8l2 2h9v4h-47v-4zM610 -115h33l21 -78l20 78h31l-37 -104l-14 -35q-8 -8 -25 -8h-14 v22h16q2 0 6 4v5q2 2 2 6l-37 102zM639 694q0 -4 3 -10t7 -6l13 -6q2 -2 20 -6l8 -2q4 -2 16.5 -5.5t12.5 -15.5q0 -2 -3 -7t-9 -7h-11q-10 0 -16 2l-16 6l-11 10q-10 10 -10 21h-2l2 -43q0 4 4 7t8 3q2 0 5.5 -2t7.5 -2l14 -4q4 -2 14 -2q14 0 19.5 7t15.5 11v21l-6 6 q-2 4 -12 8l-17 6l-12 2q-4 0 -19.5 5t-11.5 11v9q0 -2 3 4t20 6q23 0 30 -9.5t17 -23.5h2l-2 31q-2 -6 -8 -6h-8q-16 10 -31 10q-8 0 -21 -4l-12 -8q-2 -4 -3 -7.5t-1 -9.5zM641 92v21h14v8q0 33 35 33h15v-25h-15q-4 0 -4 -4v-12h19v-21h-19v-94h-31v94h-14zM723 37v76h29 v-70q0 -20 20 -20h10l11 10q0 2 2 5t2 7v68h26v-115h-26v16q-8 -10 -18.5 -14t-16.5 -4q-39 0 -39 41zM731 -115h25v-16h4q2 0 4 2l16 14q2 2 8 2q12 0 29 -12t17 -43q0 -23 -14.5 -39t-31.5 -16q-10 0 -14 2l-8 6q-2 2 -5 2t-3 4v-51h-27v145zM741 627h103v39l-17 -27 q-6 -6 -8 -6l-10 -2q-4 -2 -12 -2h-15l2 41q8 0 19 -6l4 -7q0 -2 1 -3t1 -3v-8v59l-4 -18q-10 -10 -19 -10h-4v43h17q16 0 22 -2l8 -6l11 -25h4v37h-103v-4h4q16 0 17 -15v-57q0 -16 -17 -16zM756 -170q0 -14 8 -20q6 -8 16 -9q23 0 23 31q0 10 -4 21.5t-19 11.5 q-25 0 -24 -35zM793 868v9l10 18q8 10 18 18l23 11q0 -4 1 -6.5t1 -4.5q-2 -4 -2 -8v-12l-4 -8l-17 -17q-4 0 -10 -3t-10 -3q-8 0 -10 6zM844 -166q0 17 4 25q12 29 43 28q51 0 51 -57v-6h-72q0 -25 23 -25q6 0 14 4l6 9h27q-4 -23 -16.5 -29t-30.5 -6q-49 0 -49 57zM852 -2 v156h29v-156h-29zM870 -158h43q0 8 -5 15.5t-17 7.5q-16 0 -21 -23zM903 -2v156h29v-156h-29zM905 674q0 -29 21.5 -39t36.5 -10q20 0 29.5 7t19.5 17q6 8 6 25q0 16 -14.5 32.5t-40.5 16.5q-29 0 -43.5 -16.5t-14.5 -32.5zM915 901q0 -8 5 -8l10 -8q2 0 4 -1t4 -1l2 2h12 q8 2 14.5 4t12.5 4l27 14l41 37l14 21l16 34q0 2 1 4.5t1 4.5q0 -4 -2 11t-30 15q-6 0 -13.5 -2t-17.5 -6l-12 -4l-48 -35l-28 -37q-10 -16 -13 -26v-23zM928 674q0 4 1 8t1 8l12 23q2 2 8 5t15 3q0 -2 2 -2h4l16 -12q0 -6 4 -11.5t4 -21.5q0 -14 -5 -29.5t-27 -15.5 q-23 0 -25 12l-6 12q-4 12 -4 21zM940 895v12q4 14 10 21l15 22l34 43l9.5 9.5l9.5 9.5l18 12q4 2 11 2q6 0 6 -10q0 -2 -4 -10l-11 -19l-26 -41l-37 -39q-4 -4 -8 -6q-4 -4 -7.5 -5t-7.5 -3h-8q-4 0 -4 2zM948 -115h17v9q0 29 30 28h13v-22h-13l-2 -2l-2 -13h19v-20h-19 v-86h-26v86h-17v20zM1010 92v21h14v8q0 33 35 33h12v-25h-12q-2 0 -4 -4v-12h20v-21h-20v-94h-31v94h-14zM1018 -193q0 17 10 23q10 10 21 10l24 4q8 0 8 6q0 16 -14 17q-8 0 -13 -6t-5 -11h-27q0 27 18.5 32t26.5 5q43 0 43 -30v-56q0 -10 1 -12t5 -6v-4l-31 2q0 2 -1 2 t-1 2v6q-14 -6 -17 -10t-15 -4q-8 0 -15 2l-14 10q-4 8 -4 18zM1032 627l49 2q-6 0 -10 2h-8l-4 10q-2 2 -2 12v56l80 -82h4v65q0 10 2 17.5t18 7.5v4h-47v-4h8l6 -6q8 -8 9 -19v-39l-66 68h-37v-4q12 0 15.5 -4t3.5 -11v-53q0 -6 -2 -10l-7 -8q-4 0 -7 -1t-5 -1v-2z M1047 -190q0 -14 12 -15q4 0 6 4l14 6q2 4 2 13v12l-8 -4l-14 -2q-12 0 -12 -14zM1051 905q2 0 3 -1t3 -1q4 0 8 2l8 4q0 8 8 9l4 6q0 4 5 4l36 43l39 41l39 37l23 12q2 0 2 -2l-6 -4q-2 -6 -9 -8l-16 -21q-4 -4 -6 -7t-6 -7l-29 -43l-6 -19q-2 -4 -2 -10q0 -12 10 -12h19 q4 2 9 5t13 7l19 14l22 23q-2 -2 -2 -6q0 -10 5 -17.5t16 -7.5q16 0 38 17l21 14l7 7l7 7l13 13v-5q0 -2 -1.5 -3t-1.5 -3v-6q-2 -2 -2 -6t3.5 -10t7.5 -6h16l6 4l21 12l49 43l-4 -12q-4 -6 -4 -19v-6q4 0 4 -2t6 -2q2 0 10 3t10 7l23 19q4 0 12 9t17 17l18 21v4q0 2 -2 2 q-4 0 -8 -4l-2 -4l-23 -27q-10 -6 -12 -12l-14 -12l-17 -9l-2 -2q-2 0 -4 2l10 15q4 8 8 12l7 12q4 2 8 11l63 92q10 10 13 16l53 59q10 10 17 20.5t16 20.5l10 19v8q-2 2 -8 2q-4 0 -14.5 -4t-18.5 -12l-8 -6l-39 -37q-10 -10 -16.5 -18.5t-16.5 -24.5l-53 -86l-27 -49 l-16 -15q-4 -6 -8.5 -10t-10.5 -10l-18 -17l-17 -12l-4 -2l-4 -4h-10l12 20q0 4 8.5 15.5t12.5 15.5l16 29l23 33l8 12q-4 0 2 4t6 6q0 6 -6 6l-20 -10l-33 -25q0 18 -21 19q-6 0 -15 -3t-15 -7l-25 -13l-18 -16q-23 -16 -37.5 -36.5t-20.5 -39.5h-4l-16 -18 q-10 -8 -21.5 -18.5t-23.5 -10.5h-2q-2 0 -2 2l2 2l12 19l33 41q4 6 9 13t9 15l8 17q2 4 2 10q0 16 -8 16q-6 0 -8 -2l-25 -12l-20 -17q-8 -8 -12 -8l-21 -22q-4 -4 -9 -9.5t-9 -9.5l-21 -22l2 4l51 72q0 2 3.5 6t3.5 8l-7 6q-2 0 -3 1t-3 1t-4 -1t-6 -1l-14 -10 q-4 -2 -4 -4t-2 -4l-82 -140q-2 -2 -2 -4v-2zM1083 55q0 4 1 14.5t7.5 20.5t17.5 17.5t34 7.5q10 0 23.5 -3.5t17.5 -11.5q16 -16 16 -45q0 -16 -11 -37.5t-46 -21.5q-29 0 -44.5 16.5t-15.5 42.5zM1114 55q0 -20 8 -26t21 -6q16 0 20 10q6 6 6 22q0 14 -6 24.5t-20 10.5 q-29 0 -29 -35zM1128 -170q1 16 11 41q12 16 39 16q18 0 33.5 -12t15.5 -29h-31q0 4 -3 11.5t-13 7.5t-17.5 -9.5t-7.5 -21.5q0 -6 1 -10t1 -8l8 -11q4 -4 13 -4q4 0 11 3t7 14h27q0 -18 -13.5 -29.5t-31.5 -11.5q-20 0 -35 12t-15 41zM1167 627h107v41h-2q-4 -4 -7 -10.5 t-3 -10.5l-5 -6q-6 -6 -10 -9t-16 -3h-25v73q0 14 19 15h6v4h-64v-4h4q16 0 17 -15v-57q0 -16 -17 -16zM1221 -2v115h28v-17q12 18 35 19q14 0 21 -4l14 -13q4 -12 4 -20v-80h-29v70q0 23 -20 22q-23 0 -23 -27v-65h-30zM1237 -166q0 9 4 25q12 29 45 28q27 0 38 -17t11 -40 v-6h-71q0 -25 22 -25q6 0 14 4l7 9h26q-10 -35 -47 -35q-49 0 -49 57zM1264 -158h43q0 8 -5.5 15.5t-17.5 7.5q-16 0 -20 -23zM1266 963q2 0 2 2t2 4l6 10l8 10l14 23l45 57l23 21q2 2 8 3t8 1l7 -4q0 -2 1 -3.5t1 -3.5q0 -8 -7 -14l-28 -45l-17 -14l-26 -27l-23 -18 q-4 0 -9 -4.5t-9 -4.5l-2 2h-2q-2 2 -2 5zM1268 721l2 -4q6 0 12 -1t10 -11l29 -39v-21q0 -16 -16 -16l-7 -2h68l-8 2q-16 0 -17 16v23l29 41q8 4 10 4h2l4 2q2 0 7 2v4h-47v-4h6q14 0 14 -8q0 -4 -6 -11l-19 -26l-24 30q-4 8 -4 9v2q0 4 8 4h8v4h-61zM1337 92v21h19v28h26 v-28h21v-21h-21v-61q0 -10 13 -11l8 3v-25h-21q-25 0 -26 12v82h-19zM1352 -190h30v-31h-30v31zM1401 -170q0 16 10 41q12 16 39 16q16 0 32.5 -10t16.5 -31h-29l-6 13q-6 6 -12 6q-8 0 -15 -8.5t-7 -22.5q0 -33 20 -33q18 0 18 17h31q-4 -16 -14 -28.5t-35 -12.5 q-18 0 -33.5 11t-15.5 42zM1473 31q0 18 10 24t22 11l27 4q10 0 10 8q0 14 -18 14t-21 -18h-26q0 14 8 27.5t26 13.5h13q23 0 35 -6.5t12 -26.5v-72q0 -6 8 -6v-6h-33q-2 0 -2 2v2v2q0 4 -1 5t-1 3l-8 -8q-2 -2 -3 -2t-3 -2t-4 -2q-6 0 -9.5 -1t-7.5 -1q-8 0 -21 5t-13 30z M1501 31q0 -8 5 -10.5t10 -2.5l12 2q14 6 14 21v14q-6 -6 -12 -6l-14 -4q-15 0 -15 -14zM1511 -168q0 13 2 21q12 35 52 34q16 0 33.5 -11t17.5 -44q0 -23 -11.5 -39t-39.5 -16q-53 0 -54 55zM1538 -168q0 -12 5 -21.5t22 -9.5q16 0 20 10.5t4 20.5q0 13 -6 23q-4 10 -18 10 q-16 0 -21.5 -10.5t-5.5 -22.5zM1567 1167l28 37l13 23l26 35q0 2 3 4t5 4q0 -8 -2 -10l-8 -11l-12 -18l-35 -41l-10 -12q-4 -8 -8 -11zM1585 92v21h14v28h33v-28h19v-21h-19v-69q2 0 4 -1.5t6 -1.5l9 3v-25h-19q-8 0 -20.5 3t-12.5 22v69h-14zM1636 -115h27v-16q8 18 31 18 q18 0 28 -16q6 16 27 16q37 0 37 -37v-71h-27v63q0 23 -16 23q-18 0 -19 -23v-63h-26v74q0 6 -6 9t-13 3q-16 0 -16 -23v-63h-27v106z" />
<glyph unicode="4" d="M70 -193q0 17 8 23q10 10 20 10l27 4q10 0 10 6q0 16 -16 17q-10 0 -15.5 -6t-5.5 -11h-24q0 25 15 31t30 6q29 0 35 -10t6 -20v-56q0 -10 1 -12t5 -6v-4h-29v6q-2 2 -2 6l-8 -8q-8 -4 -13 -5t-10 -1q-12 0 -23 6t-11 24zM96 -190q0 -4 5 -9.5t10 -5.5q2 0 5 1t15 9 q4 8 4 13v12q-2 0 -10 -4l-10 -2q-18 -4 -19 -14zM125 565v494l268 59l-10 37l41 12l-8 39l41 8l-6 48h41v41h36l4 36l39 -6l9 41l43 -6l10 39l39 -10l16 37l39 -17l23 39l34 -18l23 35l37 -25l24 33l35 -27l27 29l26 -25l27 23l27 -29l34 23l23 -37l39 20l18 -35l37 17 l17 -41l43 12l12 -39l39 10l8 -43l43 4l2 -26l404 88v-496l-185 -41l4 -2l-24 -26l24 -29l-32 -27l22 -34l-37 -23l23 -37l-35 -20l14 -37l-39 -17l13 -43l-37 -12l6 -39l-39 -8v-43l-39 -4v-39h-35l-6 -35h-39l-8 -37l-43 6l-10 -40l-39 12l-14 -39l-44 16l-18 -39l-37 21 l-22 -35l-37 23l-25 -33l-30 26l-31 -26l-27 24l-26 -24l-25 31l-35 -23l-24 37l-37 -21l-19 35l-39 -16l-18 41l-39 -13l-12 37l-41 -8l-8 43l-43 -4l-5 41h-40v35l-35 4l4 41l-41 6l8 43l-41 12l12 37l-28 12zM186 -115h25l2 -18l6 10q4 4 5 7t18 3h6v-28h-8 q-27 0 -27 -25v-55h-27v106zM236 76v16q0 29 23.5 46.5t49.5 17.5h6q29 0 47.5 -19.5t14.5 -30.5h-33q-2 10 -12 16.5t-21 6.5h-14l-14 -12q-10 -4 -12.5 -16.5t-2.5 -26.5q0 -51 37 -51h4q12 0 25.5 8t13.5 24h-37v27h66v-84h-21l-4 20q-16 -25 -51 -24q-12 0 -25.5 6 t-19.5 16q-12 10 -16 26.5t-4 33.5zM236 702h10l8 5l10 10l19 20q4 8 8 13l63 86l39 61q6 8 11.5 15.5t9.5 15.5l16 33q0 2 1 2t1 2q0 4 -6 4q-8 0 -10 -2l-8 -4l-33 -41q-6 -6 -15 -19l-16 -20l-82 -121l-26 -49v-11zM262 -78h29v-24h-29v24zM262 -115h29v-106h-29v106z M274 895q0 -10 13 -18l18 -7q4 0 16.5 1t12.5 8q0 2 -2 2h-4q-4 0 -7.5 -2t-7.5 -2q-31 0 -30 22q0 6 2 12q12 23 50 46.5t73 37.5l28 4q16 4 27 5q4 0 18.5 -3.5t18.5 -7.5l10 -12v-16q0 -12 -2 -21l-10 -18q-10 -14 -21.5 -29.5t-34.5 -30.5l-22 -14l-39 -16q-2 0 -5 -1 t-7 -1h-4q-2 0 -7.5 -2.5t-5.5 -6.5q0 -2 2 -2h4q4 0 7 2l30 9l54 22l49 33l37 39q10 16 14 28.5t4 20.5q0 2 -1 3t-1 5l-6 14l-15 11q-23 6 -43 6q-47 0 -103 -23.5t-99 -66.5l-9 -21q-2 -4 -2 -10zM317 -115h25v-16q12 18 33 18q12 0 24.5 -7t12.5 -30v-71h-29v63 q0 10 -3 16.5t-15 6.5t-16.5 -8.5t-4.5 -16.5v-61h-27v106zM395 57q0 33 16.5 45.5t39.5 12.5q31 0 41 -19.5t10 -42.5v-8h-78q0 -8 6 -16.5t21 -8.5q10 0 15 4.5t5 8.5h31l-10 -21l-17 -12l-12 -3t-12 -1q-55 0 -56 61zM428 68h45l-8 16t-14 8q-23 0 -23 -24zM430 -166 q0 6 2 12.5t4 12.5q12 29 39 28q10 0 18.5 -4t12.5 -14l2 16h24v-100q0 -20 -10 -33.5t-43 -13.5q-18 0 -30.5 7t-12.5 24h27l6 -9q2 -2 12 -2q23 0 24 9.5t1 7.5v18q-12 -14 -29 -14q-14 0 -30.5 10t-16.5 45zM461 -168q0 -8 2 -14q0 -8 7 -11.5t11 -3.5q25 0 25 29 q0 10 -7 21.5t-18 11.5q-20 0 -20 -33zM498 717q20 0 20 -15v-49q0 -8 10 -22l17 -4q4 -2 18 -2q25 0 35 10q8 6 8 18q-4 -10 -10 -16l-12 -8h-15q-10 0 -21 3t-11 21v49q0 10 6 12.5t12 2.5h6v4h-63v-4zM510 92v21h16v28h31v-28h16v-21h-16v-61q0 -6 1 -8.5t11 -2.5l2 3 l2 -25h-16q-10 0 -20.5 2t-10.5 23v69h-16zM510 821q6 -20 27 -20q20 0 46.5 11t49.5 34l39 35q0 2 3 5t3 5l4 6l31 37q6 4 10 10t8 10l10 -8q0 -2 2 -4v-2q0 -2 -2 -4t-4 -6l-16 -17l-27 -39l-4 -18q-2 -2 -2 -8l4 -14h8q10 0 17 2l16 10q8 8 18.5 18t20.5 17l16 22l9 10 q4 4 4 5l33 47q0 -10 3 -17.5t3 -11.5l4 -8q-16 -4 -25 -13l-20 -14q-6 -10 -10.5 -17t-4.5 -18q0 -6 11 -10h18q18 0 35.5 15.5t28.5 25.5l8 18q6 8 6 19v16q0 6 -4 15l-6 16l-7 6q0 4 -3 7t-3 5v11h-8l-4 -4l-12 -9l-6 -14l-37 -51l-10 -17l-3 -2q-2 0 -4 -2l-10 -16 l-37 -39l-12 -6q-4 -4 -12 -4v2l14 20l14 19l19 28l4 15q2 6 2 14q-2 2 -2 8l-2 4q0 4 -2 7v22l6 10v4q0 2 -3 6.5t-7 4.5q-10 0 -25.5 -9.5t-15.5 -23.5q0 -8 2 -12l4 -2l4 -5l-12 -12l-43 -53q-4 0 -4 -4l-2 -4q0 -2 -2 -2l-11 -15q-16 -14 -30.5 -25.5t-30.5 -19.5 l-21 -8q-8 -4 -12 -4q-14 0 -14 12q0 2 4 11l12 24q4 -2 12 -2h19q10 4 21.5 10t29.5 17l14 16q4 4 7.5 8t3.5 8l8 13q0 16 -12 24h-19h-9t-9 -4l-21 -8q-33 -16 -59.5 -42t-34.5 -60v-17zM545 -115h14v27h29v-27h16v-20h-16v-55v-7.5t10 -3.5l6 2v-22h-16q-29 0 -29 22v64 h-14v20zM567 870l15 23l24 29l21 18l12 4q2 0 3 1t5 1q2 0 3 -1t3 -1v-10l-6 -8q-8 -8 -12 -19.5t-21 -19.5l-22 -17q-6 -2 -12 -2q-10 0 -13 2zM580 717h10q8 0 12 -8.5t4 -16.5v15l10 8l2 2h9v4h-47v-4zM610 -115h33l21 -78l20 78h31l-37 -104l-14 -35q-8 -8 -25 -8h-14 v22h16q2 0 6 4v5q2 2 2 6l-37 102zM639 694q0 -4 3 -10t7 -6l13 -6q2 -2 20 -6l8 -2q4 -2 16.5 -5.5t12.5 -15.5q0 -2 -3 -7t-9 -7h-11q-10 0 -16 2l-16 6l-11 10q-10 10 -10 21h-2l2 -43q0 4 4 7t8 3q2 0 5.5 -2t7.5 -2l14 -4q4 -2 14 -2q14 0 19.5 7t15.5 11v21l-6 6 q-2 4 -12 8l-17 6l-12 2q-4 0 -19.5 5t-11.5 11v9q0 -2 3 4t20 6q23 0 30 -9.5t17 -23.5h2l-2 31q-2 -6 -8 -6h-8q-16 10 -31 10q-8 0 -21 -4l-12 -8q-2 -4 -3 -7.5t-1 -9.5zM641 92v21h14v8q0 33 35 33h15v-25h-15q-4 0 -4 -4v-12h19v-21h-19v-94h-31v94h-14zM723 37v76h29 v-70q0 -20 20 -20h10l11 10q0 2 2 5t2 7v68h26v-115h-26v16q-8 -10 -18.5 -14t-16.5 -4q-39 0 -39 41zM731 -115h25v-16h4q2 0 4 2l16 14q2 2 8 2q12 0 29 -12t17 -43q0 -23 -14.5 -39t-31.5 -16q-10 0 -14 2l-8 6q-2 2 -5 2t-3 4v-51h-27v145zM741 627h103v39l-17 -27 q-6 -6 -8 -6l-10 -2q-4 -2 -12 -2h-15l2 41q8 0 19 -6l4 -7q0 -2 1 -3t1 -3v-8v59l-4 -18q-10 -10 -19 -10h-4v43h17q16 0 22 -2l8 -6l11 -25h4v37h-103v-4h4q16 0 17 -15v-57q0 -16 -17 -16zM756 -170q0 -14 8 -20q6 -8 16 -9q23 0 23 31q0 10 -4 21.5t-19 11.5 q-25 0 -24 -35zM793 868v9l10 18q8 10 18 18l23 11q0 -4 1 -6.5t1 -4.5q-2 -4 -2 -8v-12l-4 -8l-17 -17q-4 0 -10 -3t-10 -3q-8 0 -10 6zM844 -166q0 17 4 25q12 29 43 28q51 0 51 -57v-6h-72q0 -25 23 -25q6 0 14 4l6 9h27q-4 -23 -16.5 -29t-30.5 -6q-49 0 -49 57zM852 -2 v156h29v-156h-29zM870 -158h43q0 8 -5 15.5t-17 7.5q-16 0 -21 -23zM903 -2v156h29v-156h-29zM905 674q0 -29 21.5 -39t36.5 -10q20 0 29.5 7t19.5 17q6 8 6 25q0 16 -14.5 32.5t-40.5 16.5q-29 0 -43.5 -16.5t-14.5 -32.5zM915 901q0 -8 5 -8l10 -8q2 0 4 -1t4 -1l2 2h12 q8 2 14.5 4t12.5 4l27 14l41 37l14 21l16 34q0 2 1 4.5t1 4.5q0 -4 -2 11t-30 15q-6 0 -13.5 -2t-17.5 -6l-12 -4l-48 -35l-28 -37q-10 -16 -13 -26v-23zM928 674q0 4 1 8t1 8l12 23q2 2 8 5t15 3q0 -2 2 -2h4l16 -12q0 -6 4 -11.5t4 -21.5q0 -14 -5 -29.5t-27 -15.5 q-23 0 -25 12l-6 12q-4 12 -4 21zM940 895v12q4 14 10 21l15 22l34 43l9.5 9.5l9.5 9.5l18 12q4 2 11 2q6 0 6 -10q0 -2 -4 -10l-11 -19l-26 -41l-37 -39q-4 -4 -8 -6q-4 -4 -7.5 -5t-7.5 -3h-8q-4 0 -4 2zM948 -115h17v9q0 29 30 28h13v-22h-13l-2 -2l-2 -13h19v-20h-19 v-86h-26v86h-17v20zM1010 92v21h14v8q0 33 35 33h12v-25h-12q-2 0 -4 -4v-12h20v-21h-20v-94h-31v94h-14zM1018 -193q0 17 10 23q10 10 21 10l24 4q8 0 8 6q0 16 -14 17q-8 0 -13 -6t-5 -11h-27q0 27 18.5 32t26.5 5q43 0 43 -30v-56q0 -10 1 -12t5 -6v-4l-31 2q0 2 -1 2 t-1 2v6q-14 -6 -17 -10t-15 -4q-8 0 -15 2l-14 10q-4 8 -4 18zM1032 627l49 2q-6 0 -10 2h-8l-4 10q-2 2 -2 12v56l80 -82h4v65q0 10 2 17.5t18 7.5v4h-47v-4h8l6 -6q8 -8 9 -19v-39l-66 68h-37v-4q12 0 15.5 -4t3.5 -11v-53q0 -6 -2 -10l-7 -8q-4 0 -7 -1t-5 -1v-2z M1047 -190q0 -14 12 -15q4 0 6 4l14 6q2 4 2 13v12l-8 -4l-14 -2q-12 0 -12 -14zM1051 905q2 0 3 -1t3 -1q4 0 8 2l8 4q0 8 8 9l4 6q0 4 5 4l36 43l39 41l39 37l23 12q2 0 2 -2l-6 -4q-2 -6 -9 -8l-16 -21q-4 -4 -6 -7t-6 -7l-29 -43l-6 -19q-2 -4 -2 -10q0 -12 10 -12h19 q4 2 9 5t13 7l19 14l22 23q-2 -2 -2 -6q0 -10 5 -17.5t16 -7.5q16 0 38 17l21 14l7 7l7 7l13 13v-5q0 -2 -1.5 -3t-1.5 -3v-6q-2 -2 -2 -6t3.5 -10t7.5 -6h16l6 4l21 12l49 43l-4 -12q-4 -6 -4 -19v-6q4 0 4 -2t6 -2q2 0 10 3t10 7l23 19q4 0 12 9t17 17l18 21v4q0 2 -2 2 q-4 0 -8 -4l-2 -4l-23 -27q-10 -6 -12 -12l-14 -12l-17 -9l-2 -2q-2 0 -4 2l10 15q4 8 8 12l7 12q4 2 8 11l63 92q10 10 13 16l53 59q10 10 17 20.5t16 20.5l10 19v8q-2 2 -8 2q-4 0 -14.5 -4t-18.5 -12l-8 -6l-39 -37q-10 -10 -16.5 -18.5t-16.5 -24.5l-53 -86l-27 -49 l-16 -15q-4 -6 -8.5 -10t-10.5 -10l-18 -17l-17 -12l-4 -2l-4 -4h-10l12 20q0 4 8.5 15.5t12.5 15.5l16 29l23 33l8 12q-4 0 2 4t6 6q0 6 -6 6l-20 -10l-33 -25q0 18 -21 19q-6 0 -15 -3t-15 -7l-25 -13l-18 -16q-23 -16 -37.5 -36.5t-20.5 -39.5h-4l-16 -18 q-10 -8 -21.5 -18.5t-23.5 -10.5h-2q-2 0 -2 2l2 2l12 19l33 41q4 6 9 13t9 15l8 17q2 4 2 10q0 16 -8 16q-6 0 -8 -2l-25 -12l-20 -17q-8 -8 -12 -8l-21 -22q-4 -4 -9 -9.5t-9 -9.5l-21 -22l2 4l51 72q0 2 3.5 6t3.5 8l-7 6q-2 0 -3 1t-3 1t-4 -1t-6 -1l-14 -10 q-4 -2 -4 -4t-2 -4l-82 -140q-2 -2 -2 -4v-2zM1083 55q0 4 1 14.5t7.5 20.5t17.5 17.5t34 7.5q10 0 23.5 -3.5t17.5 -11.5q16 -16 16 -45q0 -16 -11 -37.5t-46 -21.5q-29 0 -44.5 16.5t-15.5 42.5zM1114 55q0 -20 8 -26t21 -6q16 0 20 10q6 6 6 22q0 14 -6 24.5t-20 10.5 q-29 0 -29 -35zM1128 -170q1 16 11 41q12 16 39 16q18 0 33.5 -12t15.5 -29h-31q0 4 -3 11.5t-13 7.5t-17.5 -9.5t-7.5 -21.5q0 -6 1 -10t1 -8l8 -11q4 -4 13 -4q4 0 11 3t7 14h27q0 -18 -13.5 -29.5t-31.5 -11.5q-20 0 -35 12t-15 41zM1167 627h107v41h-2q-4 -4 -7 -10.5 t-3 -10.5l-5 -6q-6 -6 -10 -9t-16 -3h-25v73q0 14 19 15h6v4h-64v-4h4q16 0 17 -15v-57q0 -16 -17 -16zM1221 -2v115h28v-17q12 18 35 19q14 0 21 -4l14 -13q4 -12 4 -20v-80h-29v70q0 23 -20 22q-23 0 -23 -27v-65h-30zM1237 -166q0 9 4 25q12 29 45 28q27 0 38 -17t11 -40 v-6h-71q0 -25 22 -25q6 0 14 4l7 9h26q-10 -35 -47 -35q-49 0 -49 57zM1264 -158h43q0 8 -5.5 15.5t-17.5 7.5q-16 0 -20 -23zM1266 963q2 0 2 2t2 4l6 10l8 10l14 23l45 57l23 21q2 2 8 3t8 1l7 -4q0 -2 1 -3.5t1 -3.5q0 -8 -7 -14l-28 -45l-17 -14l-26 -27l-23 -18 q-4 0 -9 -4.5t-9 -4.5l-2 2h-2q-2 2 -2 5zM1268 721l2 -4q6 0 12 -1t10 -11l29 -39v-21q0 -16 -16 -16l-7 -2h68l-8 2q-16 0 -17 16v23l29 41q8 4 10 4h2l4 2q2 0 7 2v4h-47v-4h6q14 0 14 -8q0 -4 -6 -11l-19 -26l-24 30q-4 8 -4 9v2q0 4 8 4h8v4h-61zM1337 92v21h19v28h26 v-28h21v-21h-21v-61q0 -10 13 -11l8 3v-25h-21q-25 0 -26 12v82h-19zM1352 -190h30v-31h-30v31zM1401 -170q0 16 10 41q12 16 39 16q16 0 32.5 -10t16.5 -31h-29l-6 13q-6 6 -12 6q-8 0 -15 -8.5t-7 -22.5q0 -33 20 -33q18 0 18 17h31q-4 -16 -14 -28.5t-35 -12.5 q-18 0 -33.5 11t-15.5 42zM1473 31q0 18 10 24t22 11l27 4q10 0 10 8q0 14 -18 14t-21 -18h-26q0 14 8 27.5t26 13.5h13q23 0 35 -6.5t12 -26.5v-72q0 -6 8 -6v-6h-33q-2 0 -2 2v2v2q0 4 -1 5t-1 3l-8 -8q-2 -2 -3 -2t-3 -2t-4 -2q-6 0 -9.5 -1t-7.5 -1q-8 0 -21 5t-13 30z M1501 31q0 -8 5 -10.5t10 -2.5l12 2q14 6 14 21v14q-6 -6 -12 -6l-14 -4q-15 0 -15 -14zM1511 -168q0 13 2 21q12 35 52 34q16 0 33.5 -11t17.5 -44q0 -23 -11.5 -39t-39.5 -16q-53 0 -54 55zM1538 -168q0 -12 5 -21.5t22 -9.5q16 0 20 10.5t4 20.5q0 13 -6 23q-4 10 -18 10 q-16 0 -21.5 -10.5t-5.5 -22.5zM1567 1167l28 37l13 23l26 35q0 2 3 4t5 4q0 -8 -2 -10l-8 -11l-12 -18l-35 -41l-10 -12q-4 -8 -8 -11zM1585 92v21h14v28h33v-28h19v-21h-19v-69q2 0 4 -1.5t6 -1.5l9 3v-25h-19q-8 0 -20.5 3t-12.5 22v69h-14zM1636 -115h27v-16q8 18 31 18 q18 0 28 -16q6 16 27 16q37 0 37 -37v-71h-27v63q0 23 -16 23q-18 0 -19 -23v-63h-26v74q0 6 -6 9t-13 3q-16 0 -16 -23v-63h-27v106z" />
<glyph unicode="5" d="M70 -193q0 17 8 23q10 10 20 10l27 4q10 0 10 6q0 16 -16 17q-10 0 -15.5 -6t-5.5 -11h-24q0 25 15 31t30 6q29 0 35 -10t6 -20v-56q0 -10 1 -12t5 -6v-4h-29v6q-2 2 -2 6l-8 -8q-8 -4 -13 -5t-10 -1q-12 0 -23 6t-11 24zM96 -190q0 -4 5 -9.5t10 -5.5q2 0 5 1t15 9 q4 8 4 13v12q-2 0 -10 -4l-10 -2q-18 -4 -19 -14zM125 565v494l268 59l-10 37l41 12l-8 39l41 8l-6 48h41v41h36l4 36l39 -6l9 41l43 -6l10 39l39 -10l16 37l39 -17l23 39l34 -18l23 35l37 -25l24 33l35 -27l27 29l26 -25l27 23l27 -29l34 23l23 -37l39 20l18 -35l37 17 l17 -41l43 12l12 -39l39 10l8 -43l43 4l2 -26l404 88v-496l-185 -41l4 -2l-24 -26l24 -29l-32 -27l22 -34l-37 -23l23 -37l-35 -20l14 -37l-39 -17l13 -43l-37 -12l6 -39l-39 -8v-43l-39 -4v-39h-35l-6 -35h-39l-8 -37l-43 6l-10 -40l-39 12l-14 -39l-44 16l-18 -39l-37 21 l-22 -35l-37 23l-25 -33l-30 26l-31 -26l-27 24l-26 -24l-25 31l-35 -23l-24 37l-37 -21l-19 35l-39 -16l-18 41l-39 -13l-12 37l-41 -8l-8 43l-43 -4l-5 41h-40v35l-35 4l4 41l-41 6l8 43l-41 12l12 37l-28 12zM186 -115h25l2 -18l6 10q4 4 5 7t18 3h6v-28h-8 q-27 0 -27 -25v-55h-27v106zM236 76v16q0 29 23.5 46.5t49.5 17.5h6q29 0 47.5 -19.5t14.5 -30.5h-33q-2 10 -12 16.5t-21 6.5h-14l-14 -12q-10 -4 -12.5 -16.5t-2.5 -26.5q0 -51 37 -51h4q12 0 25.5 8t13.5 24h-37v27h66v-84h-21l-4 20q-16 -25 -51 -24q-12 0 -25.5 6 t-19.5 16q-12 10 -16 26.5t-4 33.5zM236 702h10l8 5l10 10l19 20q4 8 8 13l63 86l39 61q6 8 11.5 15.5t9.5 15.5l16 33q0 2 1 2t1 2q0 4 -6 4q-8 0 -10 -2l-8 -4l-33 -41q-6 -6 -15 -19l-16 -20l-82 -121l-26 -49v-11zM262 -78h29v-24h-29v24zM262 -115h29v-106h-29v106z M274 895q0 -10 13 -18l18 -7q4 0 16.5 1t12.5 8q0 2 -2 2h-4q-4 0 -7.5 -2t-7.5 -2q-31 0 -30 22q0 6 2 12q12 23 50 46.5t73 37.5l28 4q16 4 27 5q4 0 18.5 -3.5t18.5 -7.5l10 -12v-16q0 -12 -2 -21l-10 -18q-10 -14 -21.5 -29.5t-34.5 -30.5l-22 -14l-39 -16q-2 0 -5 -1 t-7 -1h-4q-2 0 -7.5 -2.5t-5.5 -6.5q0 -2 2 -2h4q4 0 7 2l30 9l54 22l49 33l37 39q10 16 14 28.5t4 20.5q0 2 -1 3t-1 5l-6 14l-15 11q-23 6 -43 6q-47 0 -103 -23.5t-99 -66.5l-9 -21q-2 -4 -2 -10zM317 -115h25v-16q12 18 33 18q12 0 24.5 -7t12.5 -30v-71h-29v63 q0 10 -3 16.5t-15 6.5t-16.5 -8.5t-4.5 -16.5v-61h-27v106zM395 57q0 33 16.5 45.5t39.5 12.5q31 0 41 -19.5t10 -42.5v-8h-78q0 -8 6 -16.5t21 -8.5q10 0 15 4.5t5 8.5h31l-10 -21l-17 -12l-12 -3t-12 -1q-55 0 -56 61zM428 68h45l-8 16t-14 8q-23 0 -23 -24zM430 -166 q0 6 2 12.5t4 12.5q12 29 39 28q10 0 18.5 -4t12.5 -14l2 16h24v-100q0 -20 -10 -33.5t-43 -13.5q-18 0 -30.5 7t-12.5 24h27l6 -9q2 -2 12 -2q23 0 24 9.5t1 7.5v18q-12 -14 -29 -14q-14 0 -30.5 10t-16.5 45zM461 -168q0 -8 2 -14q0 -8 7 -11.5t11 -3.5q25 0 25 29 q0 10 -7 21.5t-18 11.5q-20 0 -20 -33zM498 717q20 0 20 -15v-49q0 -8 10 -22l17 -4q4 -2 18 -2q25 0 35 10q8 6 8 18q-4 -10 -10 -16l-12 -8h-15q-10 0 -21 3t-11 21v49q0 10 6 12.5t12 2.5h6v4h-63v-4zM510 92v21h16v28h31v-28h16v-21h-16v-61q0 -6 1 -8.5t11 -2.5l2 3 l2 -25h-16q-10 0 -20.5 2t-10.5 23v69h-16zM510 821q6 -20 27 -20q20 0 46.5 11t49.5 34l39 35q0 2 3 5t3 5l4 6l31 37q6 4 10 10t8 10l10 -8q0 -2 2 -4v-2q0 -2 -2 -4t-4 -6l-16 -17l-27 -39l-4 -18q-2 -2 -2 -8l4 -14h8q10 0 17 2l16 10q8 8 18.5 18t20.5 17l16 22l9 10 q4 4 4 5l33 47q0 -10 3 -17.5t3 -11.5l4 -8q-16 -4 -25 -13l-20 -14q-6 -10 -10.5 -17t-4.5 -18q0 -6 11 -10h18q18 0 35.5 15.5t28.5 25.5l8 18q6 8 6 19v16q0 6 -4 15l-6 16l-7 6q0 4 -3 7t-3 5v11h-8l-4 -4l-12 -9l-6 -14l-37 -51l-10 -17l-3 -2q-2 0 -4 -2l-10 -16 l-37 -39l-12 -6q-4 -4 -12 -4v2l14 20l14 19l19 28l4 15q2 6 2 14q-2 2 -2 8l-2 4q0 4 -2 7v22l6 10v4q0 2 -3 6.5t-7 4.5q-10 0 -25.5 -9.5t-15.5 -23.5q0 -8 2 -12l4 -2l4 -5l-12 -12l-43 -53q-4 0 -4 -4l-2 -4q0 -2 -2 -2l-11 -15q-16 -14 -30.5 -25.5t-30.5 -19.5 l-21 -8q-8 -4 -12 -4q-14 0 -14 12q0 2 4 11l12 24q4 -2 12 -2h19q10 4 21.5 10t29.5 17l14 16q4 4 7.5 8t3.5 8l8 13q0 16 -12 24h-19h-9t-9 -4l-21 -8q-33 -16 -59.5 -42t-34.5 -60v-17zM545 -115h14v27h29v-27h16v-20h-16v-55v-7.5t10 -3.5l6 2v-22h-16q-29 0 -29 22v64 h-14v20zM567 870l15 23l24 29l21 18l12 4q2 0 3 1t5 1q2 0 3 -1t3 -1v-10l-6 -8q-8 -8 -12 -19.5t-21 -19.5l-22 -17q-6 -2 -12 -2q-10 0 -13 2zM580 717h10q8 0 12 -8.5t4 -16.5v15l10 8l2 2h9v4h-47v-4zM610 -115h33l21 -78l20 78h31l-37 -104l-14 -35q-8 -8 -25 -8h-14 v22h16q2 0 6 4v5q2 2 2 6l-37 102zM639 694q0 -4 3 -10t7 -6l13 -6q2 -2 20 -6l8 -2q4 -2 16.5 -5.5t12.5 -15.5q0 -2 -3 -7t-9 -7h-11q-10 0 -16 2l-16 6l-11 10q-10 10 -10 21h-2l2 -43q0 4 4 7t8 3q2 0 5.5 -2t7.5 -2l14 -4q4 -2 14 -2q14 0 19.5 7t15.5 11v21l-6 6 q-2 4 -12 8l-17 6l-12 2q-4 0 -19.5 5t-11.5 11v9q0 -2 3 4t20 6q23 0 30 -9.5t17 -23.5h2l-2 31q-2 -6 -8 -6h-8q-16 10 -31 10q-8 0 -21 -4l-12 -8q-2 -4 -3 -7.5t-1 -9.5zM641 92v21h14v8q0 33 35 33h15v-25h-15q-4 0 -4 -4v-12h19v-21h-19v-94h-31v94h-14zM723 37v76h29 v-70q0 -20 20 -20h10l11 10q0 2 2 5t2 7v68h26v-115h-26v16q-8 -10 -18.5 -14t-16.5 -4q-39 0 -39 41zM731 -115h25v-16h4q2 0 4 2l16 14q2 2 8 2q12 0 29 -12t17 -43q0 -23 -14.5 -39t-31.5 -16q-10 0 -14 2l-8 6q-2 2 -5 2t-3 4v-51h-27v145zM741 627h103v39l-17 -27 q-6 -6 -8 -6l-10 -2q-4 -2 -12 -2h-15l2 41q8 0 19 -6l4 -7q0 -2 1 -3t1 -3v-8v59l-4 -18q-10 -10 -19 -10h-4v43h17q16 0 22 -2l8 -6l11 -25h4v37h-103v-4h4q16 0 17 -15v-57q0 -16 -17 -16zM756 -170q0 -14 8 -20q6 -8 16 -9q23 0 23 31q0 10 -4 21.5t-19 11.5 q-25 0 -24 -35zM793 868v9l10 18q8 10 18 18l23 11q0 -4 1 -6.5t1 -4.5q-2 -4 -2 -8v-12l-4 -8l-17 -17q-4 0 -10 -3t-10 -3q-8 0 -10 6zM844 -166q0 17 4 25q12 29 43 28q51 0 51 -57v-6h-72q0 -25 23 -25q6 0 14 4l6 9h27q-4 -23 -16.5 -29t-30.5 -6q-49 0 -49 57zM852 -2 v156h29v-156h-29zM870 -158h43q0 8 -5 15.5t-17 7.5q-16 0 -21 -23zM903 -2v156h29v-156h-29zM905 674q0 -29 21.5 -39t36.5 -10q20 0 29.5 7t19.5 17q6 8 6 25q0 16 -14.5 32.5t-40.5 16.5q-29 0 -43.5 -16.5t-14.5 -32.5zM915 901q0 -8 5 -8l10 -8q2 0 4 -1t4 -1l2 2h12 q8 2 14.5 4t12.5 4l27 14l41 37l14 21l16 34q0 2 1 4.5t1 4.5q0 -4 -2 11t-30 15q-6 0 -13.5 -2t-17.5 -6l-12 -4l-48 -35l-28 -37q-10 -16 -13 -26v-23zM928 674q0 4 1 8t1 8l12 23q2 2 8 5t15 3q0 -2 2 -2h4l16 -12q0 -6 4 -11.5t4 -21.5q0 -14 -5 -29.5t-27 -15.5 q-23 0 -25 12l-6 12q-4 12 -4 21zM940 895v12q4 14 10 21l15 22l34 43l9.5 9.5l9.5 9.5l18 12q4 2 11 2q6 0 6 -10q0 -2 -4 -10l-11 -19l-26 -41l-37 -39q-4 -4 -8 -6q-4 -4 -7.5 -5t-7.5 -3h-8q-4 0 -4 2zM948 -115h17v9q0 29 30 28h13v-22h-13l-2 -2l-2 -13h19v-20h-19 v-86h-26v86h-17v20zM1010 92v21h14v8q0 33 35 33h12v-25h-12q-2 0 -4 -4v-12h20v-21h-20v-94h-31v94h-14zM1018 -193q0 17 10 23q10 10 21 10l24 4q8 0 8 6q0 16 -14 17q-8 0 -13 -6t-5 -11h-27q0 27 18.5 32t26.5 5q43 0 43 -30v-56q0 -10 1 -12t5 -6v-4l-31 2q0 2 -1 2 t-1 2v6q-14 -6 -17 -10t-15 -4q-8 0 -15 2l-14 10q-4 8 -4 18zM1032 627l49 2q-6 0 -10 2h-8l-4 10q-2 2 -2 12v56l80 -82h4v65q0 10 2 17.5t18 7.5v4h-47v-4h8l6 -6q8 -8 9 -19v-39l-66 68h-37v-4q12 0 15.5 -4t3.5 -11v-53q0 -6 -2 -10l-7 -8q-4 0 -7 -1t-5 -1v-2z M1047 -190q0 -14 12 -15q4 0 6 4l14 6q2 4 2 13v12l-8 -4l-14 -2q-12 0 -12 -14zM1051 905q2 0 3 -1t3 -1q4 0 8 2l8 4q0 8 8 9l4 6q0 4 5 4l36 43l39 41l39 37l23 12q2 0 2 -2l-6 -4q-2 -6 -9 -8l-16 -21q-4 -4 -6 -7t-6 -7l-29 -43l-6 -19q-2 -4 -2 -10q0 -12 10 -12h19 q4 2 9 5t13 7l19 14l22 23q-2 -2 -2 -6q0 -10 5 -17.5t16 -7.5q16 0 38 17l21 14l7 7l7 7l13 13v-5q0 -2 -1.5 -3t-1.5 -3v-6q-2 -2 -2 -6t3.5 -10t7.5 -6h16l6 4l21 12l49 43l-4 -12q-4 -6 -4 -19v-6q4 0 4 -2t6 -2q2 0 10 3t10 7l23 19q4 0 12 9t17 17l18 21v4q0 2 -2 2 q-4 0 -8 -4l-2 -4l-23 -27q-10 -6 -12 -12l-14 -12l-17 -9l-2 -2q-2 0 -4 2l10 15q4 8 8 12l7 12q4 2 8 11l63 92q10 10 13 16l53 59q10 10 17 20.5t16 20.5l10 19v8q-2 2 -8 2q-4 0 -14.5 -4t-18.5 -12l-8 -6l-39 -37q-10 -10 -16.5 -18.5t-16.5 -24.5l-53 -86l-27 -49 l-16 -15q-4 -6 -8.5 -10t-10.5 -10l-18 -17l-17 -12l-4 -2l-4 -4h-10l12 20q0 4 8.5 15.5t12.5 15.5l16 29l23 33l8 12q-4 0 2 4t6 6q0 6 -6 6l-20 -10l-33 -25q0 18 -21 19q-6 0 -15 -3t-15 -7l-25 -13l-18 -16q-23 -16 -37.5 -36.5t-20.5 -39.5h-4l-16 -18 q-10 -8 -21.5 -18.5t-23.5 -10.5h-2q-2 0 -2 2l2 2l12 19l33 41q4 6 9 13t9 15l8 17q2 4 2 10q0 16 -8 16q-6 0 -8 -2l-25 -12l-20 -17q-8 -8 -12 -8l-21 -22q-4 -4 -9 -9.5t-9 -9.5l-21 -22l2 4l51 72q0 2 3.5 6t3.5 8l-7 6q-2 0 -3 1t-3 1t-4 -1t-6 -1l-14 -10 q-4 -2 -4 -4t-2 -4l-82 -140q-2 -2 -2 -4v-2zM1083 55q0 4 1 14.5t7.5 20.5t17.5 17.5t34 7.5q10 0 23.5 -3.5t17.5 -11.5q16 -16 16 -45q0 -16 -11 -37.5t-46 -21.5q-29 0 -44.5 16.5t-15.5 42.5zM1114 55q0 -20 8 -26t21 -6q16 0 20 10q6 6 6 22q0 14 -6 24.5t-20 10.5 q-29 0 -29 -35zM1128 -170q1 16 11 41q12 16 39 16q18 0 33.5 -12t15.5 -29h-31q0 4 -3 11.5t-13 7.5t-17.5 -9.5t-7.5 -21.5q0 -6 1 -10t1 -8l8 -11q4 -4 13 -4q4 0 11 3t7 14h27q0 -18 -13.5 -29.5t-31.5 -11.5q-20 0 -35 12t-15 41zM1167 627h107v41h-2q-4 -4 -7 -10.5 t-3 -10.5l-5 -6q-6 -6 -10 -9t-16 -3h-25v73q0 14 19 15h6v4h-64v-4h4q16 0 17 -15v-57q0 -16 -17 -16zM1221 -2v115h28v-17q12 18 35 19q14 0 21 -4l14 -13q4 -12 4 -20v-80h-29v70q0 23 -20 22q-23 0 -23 -27v-65h-30zM1237 -166q0 9 4 25q12 29 45 28q27 0 38 -17t11 -40 v-6h-71q0 -25 22 -25q6 0 14 4l7 9h26q-10 -35 -47 -35q-49 0 -49 57zM1264 -158h43q0 8 -5.5 15.5t-17.5 7.5q-16 0 -20 -23zM1266 963q2 0 2 2t2 4l6 10l8 10l14 23l45 57l23 21q2 2 8 3t8 1l7 -4q0 -2 1 -3.5t1 -3.5q0 -8 -7 -14l-28 -45l-17 -14l-26 -27l-23 -18 q-4 0 -9 -4.5t-9 -4.5l-2 2h-2q-2 2 -2 5zM1268 721l2 -4q6 0 12 -1t10 -11l29 -39v-21q0 -16 -16 -16l-7 -2h68l-8 2q-16 0 -17 16v23l29 41q8 4 10 4h2l4 2q2 0 7 2v4h-47v-4h6q14 0 14 -8q0 -4 -6 -11l-19 -26l-24 30q-4 8 -4 9v2q0 4 8 4h8v4h-61zM1337 92v21h19v28h26 v-28h21v-21h-21v-61q0 -10 13 -11l8 3v-25h-21q-25 0 -26 12v82h-19zM1352 -190h30v-31h-30v31zM1401 -170q0 16 10 41q12 16 39 16q16 0 32.5 -10t16.5 -31h-29l-6 13q-6 6 -12 6q-8 0 -15 -8.5t-7 -22.5q0 -33 20 -33q18 0 18 17h31q-4 -16 -14 -28.5t-35 -12.5 q-18 0 -33.5 11t-15.5 42zM1473 31q0 18 10 24t22 11l27 4q10 0 10 8q0 14 -18 14t-21 -18h-26q0 14 8 27.5t26 13.5h13q23 0 35 -6.5t12 -26.5v-72q0 -6 8 -6v-6h-33q-2 0 -2 2v2v2q0 4 -1 5t-1 3l-8 -8q-2 -2 -3 -2t-3 -2t-4 -2q-6 0 -9.5 -1t-7.5 -1q-8 0 -21 5t-13 30z M1501 31q0 -8 5 -10.5t10 -2.5l12 2q14 6 14 21v14q-6 -6 -12 -6l-14 -4q-15 0 -15 -14zM1511 -168q0 13 2 21q12 35 52 34q16 0 33.5 -11t17.5 -44q0 -23 -11.5 -39t-39.5 -16q-53 0 -54 55zM1538 -168q0 -12 5 -21.5t22 -9.5q16 0 20 10.5t4 20.5q0 13 -6 23q-4 10 -18 10 q-16 0 -21.5 -10.5t-5.5 -22.5zM1567 1167l28 37l13 23l26 35q0 2 3 4t5 4q0 -8 -2 -10l-8 -11l-12 -18l-35 -41l-10 -12q-4 -8 -8 -11zM1585 92v21h14v28h33v-28h19v-21h-19v-69q2 0 4 -1.5t6 -1.5l9 3v-25h-19q-8 0 -20.5 3t-12.5 22v69h-14zM1636 -115h27v-16q8 18 31 18 q18 0 28 -16q6 16 27 16q37 0 37 -37v-71h-27v63q0 23 -16 23q-18 0 -19 -23v-63h-26v74q0 6 -6 9t-13 3q-16 0 -16 -23v-63h-27v106z" />
<glyph unicode="6" d="M70 -193q0 17 8 23q10 10 20 10l27 4q10 0 10 6q0 16 -16 17q-10 0 -15.5 -6t-5.5 -11h-24q0 25 15 31t30 6q29 0 35 -10t6 -20v-56q0 -10 1 -12t5 -6v-4h-29v6q-2 2 -2 6l-8 -8q-8 -4 -13 -5t-10 -1q-12 0 -23 6t-11 24zM96 -190q0 -4 5 -9.5t10 -5.5q2 0 5 1t15 9 q4 8 4 13v12q-2 0 -10 -4l-10 -2q-18 -4 -19 -14zM125 565v494l268 59l-10 37l41 12l-8 39l41 8l-6 48h41v41h36l4 36l39 -6l9 41l43 -6l10 39l39 -10l16 37l39 -17l23 39l34 -18l23 35l37 -25l24 33l35 -27l27 29l26 -25l27 23l27 -29l34 23l23 -37l39 20l18 -35l37 17 l17 -41l43 12l12 -39l39 10l8 -43l43 4l2 -26l404 88v-496l-185 -41l4 -2l-24 -26l24 -29l-32 -27l22 -34l-37 -23l23 -37l-35 -20l14 -37l-39 -17l13 -43l-37 -12l6 -39l-39 -8v-43l-39 -4v-39h-35l-6 -35h-39l-8 -37l-43 6l-10 -40l-39 12l-14 -39l-44 16l-18 -39l-37 21 l-22 -35l-37 23l-25 -33l-30 26l-31 -26l-27 24l-26 -24l-25 31l-35 -23l-24 37l-37 -21l-19 35l-39 -16l-18 41l-39 -13l-12 37l-41 -8l-8 43l-43 -4l-5 41h-40v35l-35 4l4 41l-41 6l8 43l-41 12l12 37l-28 12zM186 -115h25l2 -18l6 10q4 4 5 7t18 3h6v-28h-8 q-27 0 -27 -25v-55h-27v106zM236 76v16q0 29 23.5 46.5t49.5 17.5h6q29 0 47.5 -19.5t14.5 -30.5h-33q-2 10 -12 16.5t-21 6.5h-14l-14 -12q-10 -4 -12.5 -16.5t-2.5 -26.5q0 -51 37 -51h4q12 0 25.5 8t13.5 24h-37v27h66v-84h-21l-4 20q-16 -25 -51 -24q-12 0 -25.5 6 t-19.5 16q-12 10 -16 26.5t-4 33.5zM236 702h10l8 5l10 10l19 20q4 8 8 13l63 86l39 61q6 8 11.5 15.5t9.5 15.5l16 33q0 2 1 2t1 2q0 4 -6 4q-8 0 -10 -2l-8 -4l-33 -41q-6 -6 -15 -19l-16 -20l-82 -121l-26 -49v-11zM262 -78h29v-24h-29v24zM262 -115h29v-106h-29v106z M274 895q0 -10 13 -18l18 -7q4 0 16.5 1t12.5 8q0 2 -2 2h-4q-4 0 -7.5 -2t-7.5 -2q-31 0 -30 22q0 6 2 12q12 23 50 46.5t73 37.5l28 4q16 4 27 5q4 0 18.5 -3.5t18.5 -7.5l10 -12v-16q0 -12 -2 -21l-10 -18q-10 -14 -21.5 -29.5t-34.5 -30.5l-22 -14l-39 -16q-2 0 -5 -1 t-7 -1h-4q-2 0 -7.5 -2.5t-5.5 -6.5q0 -2 2 -2h4q4 0 7 2l30 9l54 22l49 33l37 39q10 16 14 28.5t4 20.5q0 2 -1 3t-1 5l-6 14l-15 11q-23 6 -43 6q-47 0 -103 -23.5t-99 -66.5l-9 -21q-2 -4 -2 -10zM317 -115h25v-16q12 18 33 18q12 0 24.5 -7t12.5 -30v-71h-29v63 q0 10 -3 16.5t-15 6.5t-16.5 -8.5t-4.5 -16.5v-61h-27v106zM395 57q0 33 16.5 45.5t39.5 12.5q31 0 41 -19.5t10 -42.5v-8h-78q0 -8 6 -16.5t21 -8.5q10 0 15 4.5t5 8.5h31l-10 -21l-17 -12l-12 -3t-12 -1q-55 0 -56 61zM428 68h45l-8 16t-14 8q-23 0 -23 -24zM430 -166 q0 6 2 12.5t4 12.5q12 29 39 28q10 0 18.5 -4t12.5 -14l2 16h24v-100q0 -20 -10 -33.5t-43 -13.5q-18 0 -30.5 7t-12.5 24h27l6 -9q2 -2 12 -2q23 0 24 9.5t1 7.5v18q-12 -14 -29 -14q-14 0 -30.5 10t-16.5 45zM461 -168q0 -8 2 -14q0 -8 7 -11.5t11 -3.5q25 0 25 29 q0 10 -7 21.5t-18 11.5q-20 0 -20 -33zM498 717q20 0 20 -15v-49q0 -8 10 -22l17 -4q4 -2 18 -2q25 0 35 10q8 6 8 18q-4 -10 -10 -16l-12 -8h-15q-10 0 -21 3t-11 21v49q0 10 6 12.5t12 2.5h6v4h-63v-4zM510 92v21h16v28h31v-28h16v-21h-16v-61q0 -6 1 -8.5t11 -2.5l2 3 l2 -25h-16q-10 0 -20.5 2t-10.5 23v69h-16zM510 821q6 -20 27 -20q20 0 46.5 11t49.5 34l39 35q0 2 3 5t3 5l4 6l31 37q6 4 10 10t8 10l10 -8q0 -2 2 -4v-2q0 -2 -2 -4t-4 -6l-16 -17l-27 -39l-4 -18q-2 -2 -2 -8l4 -14h8q10 0 17 2l16 10q8 8 18.5 18t20.5 17l16 22l9 10 q4 4 4 5l33 47q0 -10 3 -17.5t3 -11.5l4 -8q-16 -4 -25 -13l-20 -14q-6 -10 -10.5 -17t-4.5 -18q0 -6 11 -10h18q18 0 35.5 15.5t28.5 25.5l8 18q6 8 6 19v16q0 6 -4 15l-6 16l-7 6q0 4 -3 7t-3 5v11h-8l-4 -4l-12 -9l-6 -14l-37 -51l-10 -17l-3 -2q-2 0 -4 -2l-10 -16 l-37 -39l-12 -6q-4 -4 -12 -4v2l14 20l14 19l19 28l4 15q2 6 2 14q-2 2 -2 8l-2 4q0 4 -2 7v22l6 10v4q0 2 -3 6.5t-7 4.5q-10 0 -25.5 -9.5t-15.5 -23.5q0 -8 2 -12l4 -2l4 -5l-12 -12l-43 -53q-4 0 -4 -4l-2 -4q0 -2 -2 -2l-11 -15q-16 -14 -30.5 -25.5t-30.5 -19.5 l-21 -8q-8 -4 -12 -4q-14 0 -14 12q0 2 4 11l12 24q4 -2 12 -2h19q10 4 21.5 10t29.5 17l14 16q4 4 7.5 8t3.5 8l8 13q0 16 -12 24h-19h-9t-9 -4l-21 -8q-33 -16 -59.5 -42t-34.5 -60v-17zM545 -115h14v27h29v-27h16v-20h-16v-55v-7.5t10 -3.5l6 2v-22h-16q-29 0 -29 22v64 h-14v20zM567 870l15 23l24 29l21 18l12 4q2 0 3 1t5 1q2 0 3 -1t3 -1v-10l-6 -8q-8 -8 -12 -19.5t-21 -19.5l-22 -17q-6 -2 -12 -2q-10 0 -13 2zM580 717h10q8 0 12 -8.5t4 -16.5v15l10 8l2 2h9v4h-47v-4zM610 -115h33l21 -78l20 78h31l-37 -104l-14 -35q-8 -8 -25 -8h-14 v22h16q2 0 6 4v5q2 2 2 6l-37 102zM639 694q0 -4 3 -10t7 -6l13 -6q2 -2 20 -6l8 -2q4 -2 16.5 -5.5t12.5 -15.5q0 -2 -3 -7t-9 -7h-11q-10 0 -16 2l-16 6l-11 10q-10 10 -10 21h-2l2 -43q0 4 4 7t8 3q2 0 5.5 -2t7.5 -2l14 -4q4 -2 14 -2q14 0 19.5 7t15.5 11v21l-6 6 q-2 4 -12 8l-17 6l-12 2q-4 0 -19.5 5t-11.5 11v9q0 -2 3 4t20 6q23 0 30 -9.5t17 -23.5h2l-2 31q-2 -6 -8 -6h-8q-16 10 -31 10q-8 0 -21 -4l-12 -8q-2 -4 -3 -7.5t-1 -9.5zM641 92v21h14v8q0 33 35 33h15v-25h-15q-4 0 -4 -4v-12h19v-21h-19v-94h-31v94h-14zM723 37v76h29 v-70q0 -20 20 -20h10l11 10q0 2 2 5t2 7v68h26v-115h-26v16q-8 -10 -18.5 -14t-16.5 -4q-39 0 -39 41zM731 -115h25v-16h4q2 0 4 2l16 14q2 2 8 2q12 0 29 -12t17 -43q0 -23 -14.5 -39t-31.5 -16q-10 0 -14 2l-8 6q-2 2 -5 2t-3 4v-51h-27v145zM741 627h103v39l-17 -27 q-6 -6 -8 -6l-10 -2q-4 -2 -12 -2h-15l2 41q8 0 19 -6l4 -7q0 -2 1 -3t1 -3v-8v59l-4 -18q-10 -10 -19 -10h-4v43h17q16 0 22 -2l8 -6l11 -25h4v37h-103v-4h4q16 0 17 -15v-57q0 -16 -17 -16zM756 -170q0 -14 8 -20q6 -8 16 -9q23 0 23 31q0 10 -4 21.5t-19 11.5 q-25 0 -24 -35zM793 868v9l10 18q8 10 18 18l23 11q0 -4 1 -6.5t1 -4.5q-2 -4 -2 -8v-12l-4 -8l-17 -17q-4 0 -10 -3t-10 -3q-8 0 -10 6zM844 -166q0 17 4 25q12 29 43 28q51 0 51 -57v-6h-72q0 -25 23 -25q6 0 14 4l6 9h27q-4 -23 -16.5 -29t-30.5 -6q-49 0 -49 57zM852 -2 v156h29v-156h-29zM870 -158h43q0 8 -5 15.5t-17 7.5q-16 0 -21 -23zM903 -2v156h29v-156h-29zM905 674q0 -29 21.5 -39t36.5 -10q20 0 29.5 7t19.5 17q6 8 6 25q0 16 -14.5 32.5t-40.5 16.5q-29 0 -43.5 -16.5t-14.5 -32.5zM915 901q0 -8 5 -8l10 -8q2 0 4 -1t4 -1l2 2h12 q8 2 14.5 4t12.5 4l27 14l41 37l14 21l16 34q0 2 1 4.5t1 4.5q0 -4 -2 11t-30 15q-6 0 -13.5 -2t-17.5 -6l-12 -4l-48 -35l-28 -37q-10 -16 -13 -26v-23zM928 674q0 4 1 8t1 8l12 23q2 2 8 5t15 3q0 -2 2 -2h4l16 -12q0 -6 4 -11.5t4 -21.5q0 -14 -5 -29.5t-27 -15.5 q-23 0 -25 12l-6 12q-4 12 -4 21zM940 895v12q4 14 10 21l15 22l34 43l9.5 9.5l9.5 9.5l18 12q4 2 11 2q6 0 6 -10q0 -2 -4 -10l-11 -19l-26 -41l-37 -39q-4 -4 -8 -6q-4 -4 -7.5 -5t-7.5 -3h-8q-4 0 -4 2zM948 -115h17v9q0 29 30 28h13v-22h-13l-2 -2l-2 -13h19v-20h-19 v-86h-26v86h-17v20zM1010 92v21h14v8q0 33 35 33h12v-25h-12q-2 0 -4 -4v-12h20v-21h-20v-94h-31v94h-14zM1018 -193q0 17 10 23q10 10 21 10l24 4q8 0 8 6q0 16 -14 17q-8 0 -13 -6t-5 -11h-27q0 27 18.5 32t26.5 5q43 0 43 -30v-56q0 -10 1 -12t5 -6v-4l-31 2q0 2 -1 2 t-1 2v6q-14 -6 -17 -10t-15 -4q-8 0 -15 2l-14 10q-4 8 -4 18zM1032 627l49 2q-6 0 -10 2h-8l-4 10q-2 2 -2 12v56l80 -82h4v65q0 10 2 17.5t18 7.5v4h-47v-4h8l6 -6q8 -8 9 -19v-39l-66 68h-37v-4q12 0 15.5 -4t3.5 -11v-53q0 -6 -2 -10l-7 -8q-4 0 -7 -1t-5 -1v-2z M1047 -190q0 -14 12 -15q4 0 6 4l14 6q2 4 2 13v12l-8 -4l-14 -2q-12 0 -12 -14zM1051 905q2 0 3 -1t3 -1q4 0 8 2l8 4q0 8 8 9l4 6q0 4 5 4l36 43l39 41l39 37l23 12q2 0 2 -2l-6 -4q-2 -6 -9 -8l-16 -21q-4 -4 -6 -7t-6 -7l-29 -43l-6 -19q-2 -4 -2 -10q0 -12 10 -12h19 q4 2 9 5t13 7l19 14l22 23q-2 -2 -2 -6q0 -10 5 -17.5t16 -7.5q16 0 38 17l21 14l7 7l7 7l13 13v-5q0 -2 -1.5 -3t-1.5 -3v-6q-2 -2 -2 -6t3.5 -10t7.5 -6h16l6 4l21 12l49 43l-4 -12q-4 -6 -4 -19v-6q4 0 4 -2t6 -2q2 0 10 3t10 7l23 19q4 0 12 9t17 17l18 21v4q0 2 -2 2 q-4 0 -8 -4l-2 -4l-23 -27q-10 -6 -12 -12l-14 -12l-17 -9l-2 -2q-2 0 -4 2l10 15q4 8 8 12l7 12q4 2 8 11l63 92q10 10 13 16l53 59q10 10 17 20.5t16 20.5l10 19v8q-2 2 -8 2q-4 0 -14.5 -4t-18.5 -12l-8 -6l-39 -37q-10 -10 -16.5 -18.5t-16.5 -24.5l-53 -86l-27 -49 l-16 -15q-4 -6 -8.5 -10t-10.5 -10l-18 -17l-17 -12l-4 -2l-4 -4h-10l12 20q0 4 8.5 15.5t12.5 15.5l16 29l23 33l8 12q-4 0 2 4t6 6q0 6 -6 6l-20 -10l-33 -25q0 18 -21 19q-6 0 -15 -3t-15 -7l-25 -13l-18 -16q-23 -16 -37.5 -36.5t-20.5 -39.5h-4l-16 -18 q-10 -8 -21.5 -18.5t-23.5 -10.5h-2q-2 0 -2 2l2 2l12 19l33 41q4 6 9 13t9 15l8 17q2 4 2 10q0 16 -8 16q-6 0 -8 -2l-25 -12l-20 -17q-8 -8 -12 -8l-21 -22q-4 -4 -9 -9.5t-9 -9.5l-21 -22l2 4l51 72q0 2 3.5 6t3.5 8l-7 6q-2 0 -3 1t-3 1t-4 -1t-6 -1l-14 -10 q-4 -2 -4 -4t-2 -4l-82 -140q-2 -2 -2 -4v-2zM1083 55q0 4 1 14.5t7.5 20.5t17.5 17.5t34 7.5q10 0 23.5 -3.5t17.5 -11.5q16 -16 16 -45q0 -16 -11 -37.5t-46 -21.5q-29 0 -44.5 16.5t-15.5 42.5zM1114 55q0 -20 8 -26t21 -6q16 0 20 10q6 6 6 22q0 14 -6 24.5t-20 10.5 q-29 0 -29 -35zM1128 -170q1 16 11 41q12 16 39 16q18 0 33.5 -12t15.5 -29h-31q0 4 -3 11.5t-13 7.5t-17.5 -9.5t-7.5 -21.5q0 -6 1 -10t1 -8l8 -11q4 -4 13 -4q4 0 11 3t7 14h27q0 -18 -13.5 -29.5t-31.5 -11.5q-20 0 -35 12t-15 41zM1167 627h107v41h-2q-4 -4 -7 -10.5 t-3 -10.5l-5 -6q-6 -6 -10 -9t-16 -3h-25v73q0 14 19 15h6v4h-64v-4h4q16 0 17 -15v-57q0 -16 -17 -16zM1221 -2v115h28v-17q12 18 35 19q14 0 21 -4l14 -13q4 -12 4 -20v-80h-29v70q0 23 -20 22q-23 0 -23 -27v-65h-30zM1237 -166q0 9 4 25q12 29 45 28q27 0 38 -17t11 -40 v-6h-71q0 -25 22 -25q6 0 14 4l7 9h26q-10 -35 -47 -35q-49 0 -49 57zM1264 -158h43q0 8 -5.5 15.5t-17.5 7.5q-16 0 -20 -23zM1266 963q2 0 2 2t2 4l6 10l8 10l14 23l45 57l23 21q2 2 8 3t8 1l7 -4q0 -2 1 -3.5t1 -3.5q0 -8 -7 -14l-28 -45l-17 -14l-26 -27l-23 -18 q-4 0 -9 -4.5t-9 -4.5l-2 2h-2q-2 2 -2 5zM1268 721l2 -4q6 0 12 -1t10 -11l29 -39v-21q0 -16 -16 -16l-7 -2h68l-8 2q-16 0 -17 16v23l29 41q8 4 10 4h2l4 2q2 0 7 2v4h-47v-4h6q14 0 14 -8q0 -4 -6 -11l-19 -26l-24 30q-4 8 -4 9v2q0 4 8 4h8v4h-61zM1337 92v21h19v28h26 v-28h21v-21h-21v-61q0 -10 13 -11l8 3v-25h-21q-25 0 -26 12v82h-19zM1352 -190h30v-31h-30v31zM1401 -170q0 16 10 41q12 16 39 16q16 0 32.5 -10t16.5 -31h-29l-6 13q-6 6 -12 6q-8 0 -15 -8.5t-7 -22.5q0 -33 20 -33q18 0 18 17h31q-4 -16 -14 -28.5t-35 -12.5 q-18 0 -33.5 11t-15.5 42zM1473 31q0 18 10 24t22 11l27 4q10 0 10 8q0 14 -18 14t-21 -18h-26q0 14 8 27.5t26 13.5h13q23 0 35 -6.5t12 -26.5v-72q0 -6 8 -6v-6h-33q-2 0 -2 2v2v2q0 4 -1 5t-1 3l-8 -8q-2 -2 -3 -2t-3 -2t-4 -2q-6 0 -9.5 -1t-7.5 -1q-8 0 -21 5t-13 30z M1501 31q0 -8 5 -10.5t10 -2.5l12 2q14 6 14 21v14q-6 -6 -12 -6l-14 -4q-15 0 -15 -14zM1511 -168q0 13 2 21q12 35 52 34q16 0 33.5 -11t17.5 -44q0 -23 -11.5 -39t-39.5 -16q-53 0 -54 55zM1538 -168q0 -12 5 -21.5t22 -9.5q16 0 20 10.5t4 20.5q0 13 -6 23q-4 10 -18 10 q-16 0 -21.5 -10.5t-5.5 -22.5zM1567 1167l28 37l13 23l26 35q0 2 3 4t5 4q0 -8 -2 -10l-8 -11l-12 -18l-35 -41l-10 -12q-4 -8 -8 -11zM1585 92v21h14v28h33v-28h19v-21h-19v-69q2 0 4 -1.5t6 -1.5l9 3v-25h-19q-8 0 -20.5 3t-12.5 22v69h-14zM1636 -115h27v-16q8 18 31 18 q18 0 28 -16q6 16 27 16q37 0 37 -37v-71h-27v63q0 23 -16 23q-18 0 -19 -23v-63h-26v74q0 6 -6 9t-13 3q-16 0 -16 -23v-63h-27v106z" />
<glyph unicode="7" d="M70 -193q0 17 8 23q10 10 20 10l27 4q10 0 10 6q0 16 -16 17q-10 0 -15.5 -6t-5.5 -11h-24q0 25 15 31t30 6q29 0 35 -10t6 -20v-56q0 -10 1 -12t5 -6v-4h-29v6q-2 2 -2 6l-8 -8q-8 -4 -13 -5t-10 -1q-12 0 -23 6t-11 24zM96 -190q0 -4 5 -9.5t10 -5.5q2 0 5 1t15 9 q4 8 4 13v12q-2 0 -10 -4l-10 -2q-18 -4 -19 -14zM125 565v494l268 59l-10 37l41 12l-8 39l41 8l-6 48h41v41h36l4 36l39 -6l9 41l43 -6l10 39l39 -10l16 37l39 -17l23 39l34 -18l23 35l37 -25l24 33l35 -27l27 29l26 -25l27 23l27 -29l34 23l23 -37l39 20l18 -35l37 17 l17 -41l43 12l12 -39l39 10l8 -43l43 4l2 -26l404 88v-496l-185 -41l4 -2l-24 -26l24 -29l-32 -27l22 -34l-37 -23l23 -37l-35 -20l14 -37l-39 -17l13 -43l-37 -12l6 -39l-39 -8v-43l-39 -4v-39h-35l-6 -35h-39l-8 -37l-43 6l-10 -40l-39 12l-14 -39l-44 16l-18 -39l-37 21 l-22 -35l-37 23l-25 -33l-30 26l-31 -26l-27 24l-26 -24l-25 31l-35 -23l-24 37l-37 -21l-19 35l-39 -16l-18 41l-39 -13l-12 37l-41 -8l-8 43l-43 -4l-5 41h-40v35l-35 4l4 41l-41 6l8 43l-41 12l12 37l-28 12zM186 -115h25l2 -18l6 10q4 4 5 7t18 3h6v-28h-8 q-27 0 -27 -25v-55h-27v106zM236 76v16q0 29 23.5 46.5t49.5 17.5h6q29 0 47.5 -19.5t14.5 -30.5h-33q-2 10 -12 16.5t-21 6.5h-14l-14 -12q-10 -4 -12.5 -16.5t-2.5 -26.5q0 -51 37 -51h4q12 0 25.5 8t13.5 24h-37v27h66v-84h-21l-4 20q-16 -25 -51 -24q-12 0 -25.5 6 t-19.5 16q-12 10 -16 26.5t-4 33.5zM236 702h10l8 5l10 10l19 20q4 8 8 13l63 86l39 61q6 8 11.5 15.5t9.5 15.5l16 33q0 2 1 2t1 2q0 4 -6 4q-8 0 -10 -2l-8 -4l-33 -41q-6 -6 -15 -19l-16 -20l-82 -121l-26 -49v-11zM262 -78h29v-24h-29v24zM262 -115h29v-106h-29v106z M274 895q0 -10 13 -18l18 -7q4 0 16.5 1t12.5 8q0 2 -2 2h-4q-4 0 -7.5 -2t-7.5 -2q-31 0 -30 22q0 6 2 12q12 23 50 46.5t73 37.5l28 4q16 4 27 5q4 0 18.5 -3.5t18.5 -7.5l10 -12v-16q0 -12 -2 -21l-10 -18q-10 -14 -21.5 -29.5t-34.5 -30.5l-22 -14l-39 -16q-2 0 -5 -1 t-7 -1h-4q-2 0 -7.5 -2.5t-5.5 -6.5q0 -2 2 -2h4q4 0 7 2l30 9l54 22l49 33l37 39q10 16 14 28.5t4 20.5q0 2 -1 3t-1 5l-6 14l-15 11q-23 6 -43 6q-47 0 -103 -23.5t-99 -66.5l-9 -21q-2 -4 -2 -10zM317 -115h25v-16q12 18 33 18q12 0 24.5 -7t12.5 -30v-71h-29v63 q0 10 -3 16.5t-15 6.5t-16.5 -8.5t-4.5 -16.5v-61h-27v106zM395 57q0 33 16.5 45.5t39.5 12.5q31 0 41 -19.5t10 -42.5v-8h-78q0 -8 6 -16.5t21 -8.5q10 0 15 4.5t5 8.5h31l-10 -21l-17 -12l-12 -3t-12 -1q-55 0 -56 61zM428 68h45l-8 16t-14 8q-23 0 -23 -24zM430 -166 q0 6 2 12.5t4 12.5q12 29 39 28q10 0 18.5 -4t12.5 -14l2 16h24v-100q0 -20 -10 -33.5t-43 -13.5q-18 0 -30.5 7t-12.5 24h27l6 -9q2 -2 12 -2q23 0 24 9.5t1 7.5v18q-12 -14 -29 -14q-14 0 -30.5 10t-16.5 45zM461 -168q0 -8 2 -14q0 -8 7 -11.5t11 -3.5q25 0 25 29 q0 10 -7 21.5t-18 11.5q-20 0 -20 -33zM498 717q20 0 20 -15v-49q0 -8 10 -22l17 -4q4 -2 18 -2q25 0 35 10q8 6 8 18q-4 -10 -10 -16l-12 -8h-15q-10 0 -21 3t-11 21v49q0 10 6 12.5t12 2.5h6v4h-63v-4zM510 92v21h16v28h31v-28h16v-21h-16v-61q0 -6 1 -8.5t11 -2.5l2 3 l2 -25h-16q-10 0 -20.5 2t-10.5 23v69h-16zM510 821q6 -20 27 -20q20 0 46.5 11t49.5 34l39 35q0 2 3 5t3 5l4 6l31 37q6 4 10 10t8 10l10 -8q0 -2 2 -4v-2q0 -2 -2 -4t-4 -6l-16 -17l-27 -39l-4 -18q-2 -2 -2 -8l4 -14h8q10 0 17 2l16 10q8 8 18.5 18t20.5 17l16 22l9 10 q4 4 4 5l33 47q0 -10 3 -17.5t3 -11.5l4 -8q-16 -4 -25 -13l-20 -14q-6 -10 -10.5 -17t-4.5 -18q0 -6 11 -10h18q18 0 35.5 15.5t28.5 25.5l8 18q6 8 6 19v16q0 6 -4 15l-6 16l-7 6q0 4 -3 7t-3 5v11h-8l-4 -4l-12 -9l-6 -14l-37 -51l-10 -17l-3 -2q-2 0 -4 -2l-10 -16 l-37 -39l-12 -6q-4 -4 -12 -4v2l14 20l14 19l19 28l4 15q2 6 2 14q-2 2 -2 8l-2 4q0 4 -2 7v22l6 10v4q0 2 -3 6.5t-7 4.5q-10 0 -25.5 -9.5t-15.5 -23.5q0 -8 2 -12l4 -2l4 -5l-12 -12l-43 -53q-4 0 -4 -4l-2 -4q0 -2 -2 -2l-11 -15q-16 -14 -30.5 -25.5t-30.5 -19.5 l-21 -8q-8 -4 -12 -4q-14 0 -14 12q0 2 4 11l12 24q4 -2 12 -2h19q10 4 21.5 10t29.5 17l14 16q4 4 7.5 8t3.5 8l8 13q0 16 -12 24h-19h-9t-9 -4l-21 -8q-33 -16 -59.5 -42t-34.5 -60v-17zM545 -115h14v27h29v-27h16v-20h-16v-55v-7.5t10 -3.5l6 2v-22h-16q-29 0 -29 22v64 h-14v20zM567 870l15 23l24 29l21 18l12 4q2 0 3 1t5 1q2 0 3 -1t3 -1v-10l-6 -8q-8 -8 -12 -19.5t-21 -19.5l-22 -17q-6 -2 -12 -2q-10 0 -13 2zM580 717h10q8 0 12 -8.5t4 -16.5v15l10 8l2 2h9v4h-47v-4zM610 -115h33l21 -78l20 78h31l-37 -104l-14 -35q-8 -8 -25 -8h-14 v22h16q2 0 6 4v5q2 2 2 6l-37 102zM639 694q0 -4 3 -10t7 -6l13 -6q2 -2 20 -6l8 -2q4 -2 16.5 -5.5t12.5 -15.5q0 -2 -3 -7t-9 -7h-11q-10 0 -16 2l-16 6l-11 10q-10 10 -10 21h-2l2 -43q0 4 4 7t8 3q2 0 5.5 -2t7.5 -2l14 -4q4 -2 14 -2q14 0 19.5 7t15.5 11v21l-6 6 q-2 4 -12 8l-17 6l-12 2q-4 0 -19.5 5t-11.5 11v9q0 -2 3 4t20 6q23 0 30 -9.5t17 -23.5h2l-2 31q-2 -6 -8 -6h-8q-16 10 -31 10q-8 0 -21 -4l-12 -8q-2 -4 -3 -7.5t-1 -9.5zM641 92v21h14v8q0 33 35 33h15v-25h-15q-4 0 -4 -4v-12h19v-21h-19v-94h-31v94h-14zM723 37v76h29 v-70q0 -20 20 -20h10l11 10q0 2 2 5t2 7v68h26v-115h-26v16q-8 -10 -18.5 -14t-16.5 -4q-39 0 -39 41zM731 -115h25v-16h4q2 0 4 2l16 14q2 2 8 2q12 0 29 -12t17 -43q0 -23 -14.5 -39t-31.5 -16q-10 0 -14 2l-8 6q-2 2 -5 2t-3 4v-51h-27v145zM741 627h103v39l-17 -27 q-6 -6 -8 -6l-10 -2q-4 -2 -12 -2h-15l2 41q8 0 19 -6l4 -7q0 -2 1 -3t1 -3v-8v59l-4 -18q-10 -10 -19 -10h-4v43h17q16 0 22 -2l8 -6l11 -25h4v37h-103v-4h4q16 0 17 -15v-57q0 -16 -17 -16zM756 -170q0 -14 8 -20q6 -8 16 -9q23 0 23 31q0 10 -4 21.5t-19 11.5 q-25 0 -24 -35zM793 868v9l10 18q8 10 18 18l23 11q0 -4 1 -6.5t1 -4.5q-2 -4 -2 -8v-12l-4 -8l-17 -17q-4 0 -10 -3t-10 -3q-8 0 -10 6zM844 -166q0 17 4 25q12 29 43 28q51 0 51 -57v-6h-72q0 -25 23 -25q6 0 14 4l6 9h27q-4 -23 -16.5 -29t-30.5 -6q-49 0 -49 57zM852 -2 v156h29v-156h-29zM870 -158h43q0 8 -5 15.5t-17 7.5q-16 0 -21 -23zM903 -2v156h29v-156h-29zM905 674q0 -29 21.5 -39t36.5 -10q20 0 29.5 7t19.5 17q6 8 6 25q0 16 -14.5 32.5t-40.5 16.5q-29 0 -43.5 -16.5t-14.5 -32.5zM915 901q0 -8 5 -8l10 -8q2 0 4 -1t4 -1l2 2h12 q8 2 14.5 4t12.5 4l27 14l41 37l14 21l16 34q0 2 1 4.5t1 4.5q0 -4 -2 11t-30 15q-6 0 -13.5 -2t-17.5 -6l-12 -4l-48 -35l-28 -37q-10 -16 -13 -26v-23zM928 674q0 4 1 8t1 8l12 23q2 2 8 5t15 3q0 -2 2 -2h4l16 -12q0 -6 4 -11.5t4 -21.5q0 -14 -5 -29.5t-27 -15.5 q-23 0 -25 12l-6 12q-4 12 -4 21zM940 895v12q4 14 10 21l15 22l34 43l9.5 9.5l9.5 9.5l18 12q4 2 11 2q6 0 6 -10q0 -2 -4 -10l-11 -19l-26 -41l-37 -39q-4 -4 -8 -6q-4 -4 -7.5 -5t-7.5 -3h-8q-4 0 -4 2zM948 -115h17v9q0 29 30 28h13v-22h-13l-2 -2l-2 -13h19v-20h-19 v-86h-26v86h-17v20zM1010 92v21h14v8q0 33 35 33h12v-25h-12q-2 0 -4 -4v-12h20v-21h-20v-94h-31v94h-14zM1018 -193q0 17 10 23q10 10 21 10l24 4q8 0 8 6q0 16 -14 17q-8 0 -13 -6t-5 -11h-27q0 27 18.5 32t26.5 5q43 0 43 -30v-56q0 -10 1 -12t5 -6v-4l-31 2q0 2 -1 2 t-1 2v6q-14 -6 -17 -10t-15 -4q-8 0 -15 2l-14 10q-4 8 -4 18zM1032 627l49 2q-6 0 -10 2h-8l-4 10q-2 2 -2 12v56l80 -82h4v65q0 10 2 17.5t18 7.5v4h-47v-4h8l6 -6q8 -8 9 -19v-39l-66 68h-37v-4q12 0 15.5 -4t3.5 -11v-53q0 -6 -2 -10l-7 -8q-4 0 -7 -1t-5 -1v-2z M1047 -190q0 -14 12 -15q4 0 6 4l14 6q2 4 2 13v12l-8 -4l-14 -2q-12 0 -12 -14zM1051 905q2 0 3 -1t3 -1q4 0 8 2l8 4q0 8 8 9l4 6q0 4 5 4l36 43l39 41l39 37l23 12q2 0 2 -2l-6 -4q-2 -6 -9 -8l-16 -21q-4 -4 -6 -7t-6 -7l-29 -43l-6 -19q-2 -4 -2 -10q0 -12 10 -12h19 q4 2 9 5t13 7l19 14l22 23q-2 -2 -2 -6q0 -10 5 -17.5t16 -7.5q16 0 38 17l21 14l7 7l7 7l13 13v-5q0 -2 -1.5 -3t-1.5 -3v-6q-2 -2 -2 -6t3.5 -10t7.5 -6h16l6 4l21 12l49 43l-4 -12q-4 -6 -4 -19v-6q4 0 4 -2t6 -2q2 0 10 3t10 7l23 19q4 0 12 9t17 17l18 21v4q0 2 -2 2 q-4 0 -8 -4l-2 -4l-23 -27q-10 -6 -12 -12l-14 -12l-17 -9l-2 -2q-2 0 -4 2l10 15q4 8 8 12l7 12q4 2 8 11l63 92q10 10 13 16l53 59q10 10 17 20.5t16 20.5l10 19v8q-2 2 -8 2q-4 0 -14.5 -4t-18.5 -12l-8 -6l-39 -37q-10 -10 -16.5 -18.5t-16.5 -24.5l-53 -86l-27 -49 l-16 -15q-4 -6 -8.5 -10t-10.5 -10l-18 -17l-17 -12l-4 -2l-4 -4h-10l12 20q0 4 8.5 15.5t12.5 15.5l16 29l23 33l8 12q-4 0 2 4t6 6q0 6 -6 6l-20 -10l-33 -25q0 18 -21 19q-6 0 -15 -3t-15 -7l-25 -13l-18 -16q-23 -16 -37.5 -36.5t-20.5 -39.5h-4l-16 -18 q-10 -8 -21.5 -18.5t-23.5 -10.5h-2q-2 0 -2 2l2 2l12 19l33 41q4 6 9 13t9 15l8 17q2 4 2 10q0 16 -8 16q-6 0 -8 -2l-25 -12l-20 -17q-8 -8 -12 -8l-21 -22q-4 -4 -9 -9.5t-9 -9.5l-21 -22l2 4l51 72q0 2 3.5 6t3.5 8l-7 6q-2 0 -3 1t-3 1t-4 -1t-6 -1l-14 -10 q-4 -2 -4 -4t-2 -4l-82 -140q-2 -2 -2 -4v-2zM1083 55q0 4 1 14.5t7.5 20.5t17.5 17.5t34 7.5q10 0 23.5 -3.5t17.5 -11.5q16 -16 16 -45q0 -16 -11 -37.5t-46 -21.5q-29 0 -44.5 16.5t-15.5 42.5zM1114 55q0 -20 8 -26t21 -6q16 0 20 10q6 6 6 22q0 14 -6 24.5t-20 10.5 q-29 0 -29 -35zM1128 -170q1 16 11 41q12 16 39 16q18 0 33.5 -12t15.5 -29h-31q0 4 -3 11.5t-13 7.5t-17.5 -9.5t-7.5 -21.5q0 -6 1 -10t1 -8l8 -11q4 -4 13 -4q4 0 11 3t7 14h27q0 -18 -13.5 -29.5t-31.5 -11.5q-20 0 -35 12t-15 41zM1167 627h107v41h-2q-4 -4 -7 -10.5 t-3 -10.5l-5 -6q-6 -6 -10 -9t-16 -3h-25v73q0 14 19 15h6v4h-64v-4h4q16 0 17 -15v-57q0 -16 -17 -16zM1221 -2v115h28v-17q12 18 35 19q14 0 21 -4l14 -13q4 -12 4 -20v-80h-29v70q0 23 -20 22q-23 0 -23 -27v-65h-30zM1237 -166q0 9 4 25q12 29 45 28q27 0 38 -17t11 -40 v-6h-71q0 -25 22 -25q6 0 14 4l7 9h26q-10 -35 -47 -35q-49 0 -49 57zM1264 -158h43q0 8 -5.5 15.5t-17.5 7.5q-16 0 -20 -23zM1266 963q2 0 2 2t2 4l6 10l8 10l14 23l45 57l23 21q2 2 8 3t8 1l7 -4q0 -2 1 -3.5t1 -3.5q0 -8 -7 -14l-28 -45l-17 -14l-26 -27l-23 -18 q-4 0 -9 -4.5t-9 -4.5l-2 2h-2q-2 2 -2 5zM1268 721l2 -4q6 0 12 -1t10 -11l29 -39v-21q0 -16 -16 -16l-7 -2h68l-8 2q-16 0 -17 16v23l29 41q8 4 10 4h2l4 2q2 0 7 2v4h-47v-4h6q14 0 14 -8q0 -4 -6 -11l-19 -26l-24 30q-4 8 -4 9v2q0 4 8 4h8v4h-61zM1337 92v21h19v28h26 v-28h21v-21h-21v-61q0 -10 13 -11l8 3v-25h-21q-25 0 -26 12v82h-19zM1352 -190h30v-31h-30v31zM1401 -170q0 16 10 41q12 16 39 16q16 0 32.5 -10t16.5 -31h-29l-6 13q-6 6 -12 6q-8 0 -15 -8.5t-7 -22.5q0 -33 20 -33q18 0 18 17h31q-4 -16 -14 -28.5t-35 -12.5 q-18 0 -33.5 11t-15.5 42zM1473 31q0 18 10 24t22 11l27 4q10 0 10 8q0 14 -18 14t-21 -18h-26q0 14 8 27.5t26 13.5h13q23 0 35 -6.5t12 -26.5v-72q0 -6 8 -6v-6h-33q-2 0 -2 2v2v2q0 4 -1 5t-1 3l-8 -8q-2 -2 -3 -2t-3 -2t-4 -2q-6 0 -9.5 -1t-7.5 -1q-8 0 -21 5t-13 30z M1501 31q0 -8 5 -10.5t10 -2.5l12 2q14 6 14 21v14q-6 -6 -12 -6l-14 -4q-15 0 -15 -14zM1511 -168q0 13 2 21q12 35 52 34q16 0 33.5 -11t17.5 -44q0 -23 -11.5 -39t-39.5 -16q-53 0 -54 55zM1538 -168q0 -12 5 -21.5t22 -9.5q16 0 20 10.5t4 20.5q0 13 -6 23q-4 10 -18 10 q-16 0 -21.5 -10.5t-5.5 -22.5zM1567 1167l28 37l13 23l26 35q0 2 3 4t5 4q0 -8 -2 -10l-8 -11l-12 -18l-35 -41l-10 -12q-4 -8 -8 -11zM1585 92v21h14v28h33v-28h19v-21h-19v-69q2 0 4 -1.5t6 -1.5l9 3v-25h-19q-8 0 -20.5 3t-12.5 22v69h-14zM1636 -115h27v-16q8 18 31 18 q18 0 28 -16q6 16 27 16q37 0 37 -37v-71h-27v63q0 23 -16 23q-18 0 -19 -23v-63h-26v74q0 6 -6 9t-13 3q-16 0 -16 -23v-63h-27v106z" />
<glyph unicode="8" d="M70 -193q0 17 8 23q10 10 20 10l27 4q10 0 10 6q0 16 -16 17q-10 0 -15.5 -6t-5.5 -11h-24q0 25 15 31t30 6q29 0 35 -10t6 -20v-56q0 -10 1 -12t5 -6v-4h-29v6q-2 2 -2 6l-8 -8q-8 -4 -13 -5t-10 -1q-12 0 -23 6t-11 24zM96 -190q0 -4 5 -9.5t10 -5.5q2 0 5 1t15 9 q4 8 4 13v12q-2 0 -10 -4l-10 -2q-18 -4 -19 -14zM125 565v494l268 59l-10 37l41 12l-8 39l41 8l-6 48h41v41h36l4 36l39 -6l9 41l43 -6l10 39l39 -10l16 37l39 -17l23 39l34 -18l23 35l37 -25l24 33l35 -27l27 29l26 -25l27 23l27 -29l34 23l23 -37l39 20l18 -35l37 17 l17 -41l43 12l12 -39l39 10l8 -43l43 4l2 -26l404 88v-496l-185 -41l4 -2l-24 -26l24 -29l-32 -27l22 -34l-37 -23l23 -37l-35 -20l14 -37l-39 -17l13 -43l-37 -12l6 -39l-39 -8v-43l-39 -4v-39h-35l-6 -35h-39l-8 -37l-43 6l-10 -40l-39 12l-14 -39l-44 16l-18 -39l-37 21 l-22 -35l-37 23l-25 -33l-30 26l-31 -26l-27 24l-26 -24l-25 31l-35 -23l-24 37l-37 -21l-19 35l-39 -16l-18 41l-39 -13l-12 37l-41 -8l-8 43l-43 -4l-5 41h-40v35l-35 4l4 41l-41 6l8 43l-41 12l12 37l-28 12zM186 -115h25l2 -18l6 10q4 4 5 7t18 3h6v-28h-8 q-27 0 -27 -25v-55h-27v106zM236 76v16q0 29 23.5 46.5t49.5 17.5h6q29 0 47.5 -19.5t14.5 -30.5h-33q-2 10 -12 16.5t-21 6.5h-14l-14 -12q-10 -4 -12.5 -16.5t-2.5 -26.5q0 -51 37 -51h4q12 0 25.5 8t13.5 24h-37v27h66v-84h-21l-4 20q-16 -25 -51 -24q-12 0 -25.5 6 t-19.5 16q-12 10 -16 26.5t-4 33.5zM236 702h10l8 5l10 10l19 20q4 8 8 13l63 86l39 61q6 8 11.5 15.5t9.5 15.5l16 33q0 2 1 2t1 2q0 4 -6 4q-8 0 -10 -2l-8 -4l-33 -41q-6 -6 -15 -19l-16 -20l-82 -121l-26 -49v-11zM262 -78h29v-24h-29v24zM262 -115h29v-106h-29v106z M274 895q0 -10 13 -18l18 -7q4 0 16.5 1t12.5 8q0 2 -2 2h-4q-4 0 -7.5 -2t-7.5 -2q-31 0 -30 22q0 6 2 12q12 23 50 46.5t73 37.5l28 4q16 4 27 5q4 0 18.5 -3.5t18.5 -7.5l10 -12v-16q0 -12 -2 -21l-10 -18q-10 -14 -21.5 -29.5t-34.5 -30.5l-22 -14l-39 -16q-2 0 -5 -1 t-7 -1h-4q-2 0 -7.5 -2.5t-5.5 -6.5q0 -2 2 -2h4q4 0 7 2l30 9l54 22l49 33l37 39q10 16 14 28.5t4 20.5q0 2 -1 3t-1 5l-6 14l-15 11q-23 6 -43 6q-47 0 -103 -23.5t-99 -66.5l-9 -21q-2 -4 -2 -10zM317 -115h25v-16q12 18 33 18q12 0 24.5 -7t12.5 -30v-71h-29v63 q0 10 -3 16.5t-15 6.5t-16.5 -8.5t-4.5 -16.5v-61h-27v106zM395 57q0 33 16.5 45.5t39.5 12.5q31 0 41 -19.5t10 -42.5v-8h-78q0 -8 6 -16.5t21 -8.5q10 0 15 4.5t5 8.5h31l-10 -21l-17 -12l-12 -3t-12 -1q-55 0 -56 61zM428 68h45l-8 16t-14 8q-23 0 -23 -24zM430 -166 q0 6 2 12.5t4 12.5q12 29 39 28q10 0 18.5 -4t12.5 -14l2 16h24v-100q0 -20 -10 -33.5t-43 -13.5q-18 0 -30.5 7t-12.5 24h27l6 -9q2 -2 12 -2q23 0 24 9.5t1 7.5v18q-12 -14 -29 -14q-14 0 -30.5 10t-16.5 45zM461 -168q0 -8 2 -14q0 -8 7 -11.5t11 -3.5q25 0 25 29 q0 10 -7 21.5t-18 11.5q-20 0 -20 -33zM498 717q20 0 20 -15v-49q0 -8 10 -22l17 -4q4 -2 18 -2q25 0 35 10q8 6 8 18q-4 -10 -10 -16l-12 -8h-15q-10 0 -21 3t-11 21v49q0 10 6 12.5t12 2.5h6v4h-63v-4zM510 92v21h16v28h31v-28h16v-21h-16v-61q0 -6 1 -8.5t11 -2.5l2 3 l2 -25h-16q-10 0 -20.5 2t-10.5 23v69h-16zM510 821q6 -20 27 -20q20 0 46.5 11t49.5 34l39 35q0 2 3 5t3 5l4 6l31 37q6 4 10 10t8 10l10 -8q0 -2 2 -4v-2q0 -2 -2 -4t-4 -6l-16 -17l-27 -39l-4 -18q-2 -2 -2 -8l4 -14h8q10 0 17 2l16 10q8 8 18.5 18t20.5 17l16 22l9 10 q4 4 4 5l33 47q0 -10 3 -17.5t3 -11.5l4 -8q-16 -4 -25 -13l-20 -14q-6 -10 -10.5 -17t-4.5 -18q0 -6 11 -10h18q18 0 35.5 15.5t28.5 25.5l8 18q6 8 6 19v16q0 6 -4 15l-6 16l-7 6q0 4 -3 7t-3 5v11h-8l-4 -4l-12 -9l-6 -14l-37 -51l-10 -17l-3 -2q-2 0 -4 -2l-10 -16 l-37 -39l-12 -6q-4 -4 -12 -4v2l14 20l14 19l19 28l4 15q2 6 2 14q-2 2 -2 8l-2 4q0 4 -2 7v22l6 10v4q0 2 -3 6.5t-7 4.5q-10 0 -25.5 -9.5t-15.5 -23.5q0 -8 2 -12l4 -2l4 -5l-12 -12l-43 -53q-4 0 -4 -4l-2 -4q0 -2 -2 -2l-11 -15q-16 -14 -30.5 -25.5t-30.5 -19.5 l-21 -8q-8 -4 -12 -4q-14 0 -14 12q0 2 4 11l12 24q4 -2 12 -2h19q10 4 21.5 10t29.5 17l14 16q4 4 7.5 8t3.5 8l8 13q0 16 -12 24h-19h-9t-9 -4l-21 -8q-33 -16 -59.5 -42t-34.5 -60v-17zM545 -115h14v27h29v-27h16v-20h-16v-55v-7.5t10 -3.5l6 2v-22h-16q-29 0 -29 22v64 h-14v20zM567 870l15 23l24 29l21 18l12 4q2 0 3 1t5 1q2 0 3 -1t3 -1v-10l-6 -8q-8 -8 -12 -19.5t-21 -19.5l-22 -17q-6 -2 -12 -2q-10 0 -13 2zM580 717h10q8 0 12 -8.5t4 -16.5v15l10 8l2 2h9v4h-47v-4zM610 -115h33l21 -78l20 78h31l-37 -104l-14 -35q-8 -8 -25 -8h-14 v22h16q2 0 6 4v5q2 2 2 6l-37 102zM639 694q0 -4 3 -10t7 -6l13 -6q2 -2 20 -6l8 -2q4 -2 16.5 -5.5t12.5 -15.5q0 -2 -3 -7t-9 -7h-11q-10 0 -16 2l-16 6l-11 10q-10 10 -10 21h-2l2 -43q0 4 4 7t8 3q2 0 5.5 -2t7.5 -2l14 -4q4 -2 14 -2q14 0 19.5 7t15.5 11v21l-6 6 q-2 4 -12 8l-17 6l-12 2q-4 0 -19.5 5t-11.5 11v9q0 -2 3 4t20 6q23 0 30 -9.5t17 -23.5h2l-2 31q-2 -6 -8 -6h-8q-16 10 -31 10q-8 0 -21 -4l-12 -8q-2 -4 -3 -7.5t-1 -9.5zM641 92v21h14v8q0 33 35 33h15v-25h-15q-4 0 -4 -4v-12h19v-21h-19v-94h-31v94h-14zM723 37v76h29 v-70q0 -20 20 -20h10l11 10q0 2 2 5t2 7v68h26v-115h-26v16q-8 -10 -18.5 -14t-16.5 -4q-39 0 -39 41zM731 -115h25v-16h4q2 0 4 2l16 14q2 2 8 2q12 0 29 -12t17 -43q0 -23 -14.5 -39t-31.5 -16q-10 0 -14 2l-8 6q-2 2 -5 2t-3 4v-51h-27v145zM741 627h103v39l-17 -27 q-6 -6 -8 -6l-10 -2q-4 -2 -12 -2h-15l2 41q8 0 19 -6l4 -7q0 -2 1 -3t1 -3v-8v59l-4 -18q-10 -10 -19 -10h-4v43h17q16 0 22 -2l8 -6l11 -25h4v37h-103v-4h4q16 0 17 -15v-57q0 -16 -17 -16zM756 -170q0 -14 8 -20q6 -8 16 -9q23 0 23 31q0 10 -4 21.5t-19 11.5 q-25 0 -24 -35zM793 868v9l10 18q8 10 18 18l23 11q0 -4 1 -6.5t1 -4.5q-2 -4 -2 -8v-12l-4 -8l-17 -17q-4 0 -10 -3t-10 -3q-8 0 -10 6zM844 -166q0 17 4 25q12 29 43 28q51 0 51 -57v-6h-72q0 -25 23 -25q6 0 14 4l6 9h27q-4 -23 -16.5 -29t-30.5 -6q-49 0 -49 57zM852 -2 v156h29v-156h-29zM870 -158h43q0 8 -5 15.5t-17 7.5q-16 0 -21 -23zM903 -2v156h29v-156h-29zM905 674q0 -29 21.5 -39t36.5 -10q20 0 29.5 7t19.5 17q6 8 6 25q0 16 -14.5 32.5t-40.5 16.5q-29 0 -43.5 -16.5t-14.5 -32.5zM915 901q0 -8 5 -8l10 -8q2 0 4 -1t4 -1l2 2h12 q8 2 14.5 4t12.5 4l27 14l41 37l14 21l16 34q0 2 1 4.5t1 4.5q0 -4 -2 11t-30 15q-6 0 -13.5 -2t-17.5 -6l-12 -4l-48 -35l-28 -37q-10 -16 -13 -26v-23zM928 674q0 4 1 8t1 8l12 23q2 2 8 5t15 3q0 -2 2 -2h4l16 -12q0 -6 4 -11.5t4 -21.5q0 -14 -5 -29.5t-27 -15.5 q-23 0 -25 12l-6 12q-4 12 -4 21zM940 895v12q4 14 10 21l15 22l34 43l9.5 9.5l9.5 9.5l18 12q4 2 11 2q6 0 6 -10q0 -2 -4 -10l-11 -19l-26 -41l-37 -39q-4 -4 -8 -6q-4 -4 -7.5 -5t-7.5 -3h-8q-4 0 -4 2zM948 -115h17v9q0 29 30 28h13v-22h-13l-2 -2l-2 -13h19v-20h-19 v-86h-26v86h-17v20zM1010 92v21h14v8q0 33 35 33h12v-25h-12q-2 0 -4 -4v-12h20v-21h-20v-94h-31v94h-14zM1018 -193q0 17 10 23q10 10 21 10l24 4q8 0 8 6q0 16 -14 17q-8 0 -13 -6t-5 -11h-27q0 27 18.5 32t26.5 5q43 0 43 -30v-56q0 -10 1 -12t5 -6v-4l-31 2q0 2 -1 2 t-1 2v6q-14 -6 -17 -10t-15 -4q-8 0 -15 2l-14 10q-4 8 -4 18zM1032 627l49 2q-6 0 -10 2h-8l-4 10q-2 2 -2 12v56l80 -82h4v65q0 10 2 17.5t18 7.5v4h-47v-4h8l6 -6q8 -8 9 -19v-39l-66 68h-37v-4q12 0 15.5 -4t3.5 -11v-53q0 -6 -2 -10l-7 -8q-4 0 -7 -1t-5 -1v-2z M1047 -190q0 -14 12 -15q4 0 6 4l14 6q2 4 2 13v12l-8 -4l-14 -2q-12 0 -12 -14zM1051 905q2 0 3 -1t3 -1q4 0 8 2l8 4q0 8 8 9l4 6q0 4 5 4l36 43l39 41l39 37l23 12q2 0 2 -2l-6 -4q-2 -6 -9 -8l-16 -21q-4 -4 -6 -7t-6 -7l-29 -43l-6 -19q-2 -4 -2 -10q0 -12 10 -12h19 q4 2 9 5t13 7l19 14l22 23q-2 -2 -2 -6q0 -10 5 -17.5t16 -7.5q16 0 38 17l21 14l7 7l7 7l13 13v-5q0 -2 -1.5 -3t-1.5 -3v-6q-2 -2 -2 -6t3.5 -10t7.5 -6h16l6 4l21 12l49 43l-4 -12q-4 -6 -4 -19v-6q4 0 4 -2t6 -2q2 0 10 3t10 7l23 19q4 0 12 9t17 17l18 21v4q0 2 -2 2 q-4 0 -8 -4l-2 -4l-23 -27q-10 -6 -12 -12l-14 -12l-17 -9l-2 -2q-2 0 -4 2l10 15q4 8 8 12l7 12q4 2 8 11l63 92q10 10 13 16l53 59q10 10 17 20.5t16 20.5l10 19v8q-2 2 -8 2q-4 0 -14.5 -4t-18.5 -12l-8 -6l-39 -37q-10 -10 -16.5 -18.5t-16.5 -24.5l-53 -86l-27 -49 l-16 -15q-4 -6 -8.5 -10t-10.5 -10l-18 -17l-17 -12l-4 -2l-4 -4h-10l12 20q0 4 8.5 15.5t12.5 15.5l16 29l23 33l8 12q-4 0 2 4t6 6q0 6 -6 6l-20 -10l-33 -25q0 18 -21 19q-6 0 -15 -3t-15 -7l-25 -13l-18 -16q-23 -16 -37.5 -36.5t-20.5 -39.5h-4l-16 -18 q-10 -8 -21.5 -18.5t-23.5 -10.5h-2q-2 0 -2 2l2 2l12 19l33 41q4 6 9 13t9 15l8 17q2 4 2 10q0 16 -8 16q-6 0 -8 -2l-25 -12l-20 -17q-8 -8 -12 -8l-21 -22q-4 -4 -9 -9.5t-9 -9.5l-21 -22l2 4l51 72q0 2 3.5 6t3.5 8l-7 6q-2 0 -3 1t-3 1t-4 -1t-6 -1l-14 -10 q-4 -2 -4 -4t-2 -4l-82 -140q-2 -2 -2 -4v-2zM1083 55q0 4 1 14.5t7.5 20.5t17.5 17.5t34 7.5q10 0 23.5 -3.5t17.5 -11.5q16 -16 16 -45q0 -16 -11 -37.5t-46 -21.5q-29 0 -44.5 16.5t-15.5 42.5zM1114 55q0 -20 8 -26t21 -6q16 0 20 10q6 6 6 22q0 14 -6 24.5t-20 10.5 q-29 0 -29 -35zM1128 -170q1 16 11 41q12 16 39 16q18 0 33.5 -12t15.5 -29h-31q0 4 -3 11.5t-13 7.5t-17.5 -9.5t-7.5 -21.5q0 -6 1 -10t1 -8l8 -11q4 -4 13 -4q4 0 11 3t7 14h27q0 -18 -13.5 -29.5t-31.5 -11.5q-20 0 -35 12t-15 41zM1167 627h107v41h-2q-4 -4 -7 -10.5 t-3 -10.5l-5 -6q-6 -6 -10 -9t-16 -3h-25v73q0 14 19 15h6v4h-64v-4h4q16 0 17 -15v-57q0 -16 -17 -16zM1221 -2v115h28v-17q12 18 35 19q14 0 21 -4l14 -13q4 -12 4 -20v-80h-29v70q0 23 -20 22q-23 0 -23 -27v-65h-30zM1237 -166q0 9 4 25q12 29 45 28q27 0 38 -17t11 -40 v-6h-71q0 -25 22 -25q6 0 14 4l7 9h26q-10 -35 -47 -35q-49 0 -49 57zM1264 -158h43q0 8 -5.5 15.5t-17.5 7.5q-16 0 -20 -23zM1266 963q2 0 2 2t2 4l6 10l8 10l14 23l45 57l23 21q2 2 8 3t8 1l7 -4q0 -2 1 -3.5t1 -3.5q0 -8 -7 -14l-28 -45l-17 -14l-26 -27l-23 -18 q-4 0 -9 -4.5t-9 -4.5l-2 2h-2q-2 2 -2 5zM1268 721l2 -4q6 0 12 -1t10 -11l29 -39v-21q0 -16 -16 -16l-7 -2h68l-8 2q-16 0 -17 16v23l29 41q8 4 10 4h2l4 2q2 0 7 2v4h-47v-4h6q14 0 14 -8q0 -4 -6 -11l-19 -26l-24 30q-4 8 -4 9v2q0 4 8 4h8v4h-61zM1337 92v21h19v28h26 v-28h21v-21h-21v-61q0 -10 13 -11l8 3v-25h-21q-25 0 -26 12v82h-19zM1352 -190h30v-31h-30v31zM1401 -170q0 16 10 41q12 16 39 16q16 0 32.5 -10t16.5 -31h-29l-6 13q-6 6 -12 6q-8 0 -15 -8.5t-7 -22.5q0 -33 20 -33q18 0 18 17h31q-4 -16 -14 -28.5t-35 -12.5 q-18 0 -33.5 11t-15.5 42zM1473 31q0 18 10 24t22 11l27 4q10 0 10 8q0 14 -18 14t-21 -18h-26q0 14 8 27.5t26 13.5h13q23 0 35 -6.5t12 -26.5v-72q0 -6 8 -6v-6h-33q-2 0 -2 2v2v2q0 4 -1 5t-1 3l-8 -8q-2 -2 -3 -2t-3 -2t-4 -2q-6 0 -9.5 -1t-7.5 -1q-8 0 -21 5t-13 30z M1501 31q0 -8 5 -10.5t10 -2.5l12 2q14 6 14 21v14q-6 -6 -12 -6l-14 -4q-15 0 -15 -14zM1511 -168q0 13 2 21q12 35 52 34q16 0 33.5 -11t17.5 -44q0 -23 -11.5 -39t-39.5 -16q-53 0 -54 55zM1538 -168q0 -12 5 -21.5t22 -9.5q16 0 20 10.5t4 20.5q0 13 -6 23q-4 10 -18 10 q-16 0 -21.5 -10.5t-5.5 -22.5zM1567 1167l28 37l13 23l26 35q0 2 3 4t5 4q0 -8 -2 -10l-8 -11l-12 -18l-35 -41l-10 -12q-4 -8 -8 -11zM1585 92v21h14v28h33v-28h19v-21h-19v-69q2 0 4 -1.5t6 -1.5l9 3v-25h-19q-8 0 -20.5 3t-12.5 22v69h-14zM1636 -115h27v-16q8 18 31 18 q18 0 28 -16q6 16 27 16q37 0 37 -37v-71h-27v63q0 23 -16 23q-18 0 -19 -23v-63h-26v74q0 6 -6 9t-13 3q-16 0 -16 -23v-63h-27v106z" />
<glyph unicode="9" d="M70 -193q0 17 8 23q10 10 20 10l27 4q10 0 10 6q0 16 -16 17q-10 0 -15.5 -6t-5.5 -11h-24q0 25 15 31t30 6q29 0 35 -10t6 -20v-56q0 -10 1 -12t5 -6v-4h-29v6q-2 2 -2 6l-8 -8q-8 -4 -13 -5t-10 -1q-12 0 -23 6t-11 24zM96 -190q0 -4 5 -9.5t10 -5.5q2 0 5 1t15 9 q4 8 4 13v12q-2 0 -10 -4l-10 -2q-18 -4 -19 -14zM125 565v494l268 59l-10 37l41 12l-8 39l41 8l-6 48h41v41h36l4 36l39 -6l9 41l43 -6l10 39l39 -10l16 37l39 -17l23 39l34 -18l23 35l37 -25l24 33l35 -27l27 29l26 -25l27 23l27 -29l34 23l23 -37l39 20l18 -35l37 17 l17 -41l43 12l12 -39l39 10l8 -43l43 4l2 -26l404 88v-496l-185 -41l4 -2l-24 -26l24 -29l-32 -27l22 -34l-37 -23l23 -37l-35 -20l14 -37l-39 -17l13 -43l-37 -12l6 -39l-39 -8v-43l-39 -4v-39h-35l-6 -35h-39l-8 -37l-43 6l-10 -40l-39 12l-14 -39l-44 16l-18 -39l-37 21 l-22 -35l-37 23l-25 -33l-30 26l-31 -26l-27 24l-26 -24l-25 31l-35 -23l-24 37l-37 -21l-19 35l-39 -16l-18 41l-39 -13l-12 37l-41 -8l-8 43l-43 -4l-5 41h-40v35l-35 4l4 41l-41 6l8 43l-41 12l12 37l-28 12zM186 -115h25l2 -18l6 10q4 4 5 7t18 3h6v-28h-8 q-27 0 -27 -25v-55h-27v106zM236 76v16q0 29 23.5 46.5t49.5 17.5h6q29 0 47.5 -19.5t14.5 -30.5h-33q-2 10 -12 16.5t-21 6.5h-14l-14 -12q-10 -4 -12.5 -16.5t-2.5 -26.5q0 -51 37 -51h4q12 0 25.5 8t13.5 24h-37v27h66v-84h-21l-4 20q-16 -25 -51 -24q-12 0 -25.5 6 t-19.5 16q-12 10 -16 26.5t-4 33.5zM236 702h10l8 5l10 10l19 20q4 8 8 13l63 86l39 61q6 8 11.5 15.5t9.5 15.5l16 33q0 2 1 2t1 2q0 4 -6 4q-8 0 -10 -2l-8 -4l-33 -41q-6 -6 -15 -19l-16 -20l-82 -121l-26 -49v-11zM262 -78h29v-24h-29v24zM262 -115h29v-106h-29v106z M274 895q0 -10 13 -18l18 -7q4 0 16.5 1t12.5 8q0 2 -2 2h-4q-4 0 -7.5 -2t-7.5 -2q-31 0 -30 22q0 6 2 12q12 23 50 46.5t73 37.5l28 4q16 4 27 5q4 0 18.5 -3.5t18.5 -7.5l10 -12v-16q0 -12 -2 -21l-10 -18q-10 -14 -21.5 -29.5t-34.5 -30.5l-22 -14l-39 -16q-2 0 -5 -1 t-7 -1h-4q-2 0 -7.5 -2.5t-5.5 -6.5q0 -2 2 -2h4q4 0 7 2l30 9l54 22l49 33l37 39q10 16 14 28.5t4 20.5q0 2 -1 3t-1 5l-6 14l-15 11q-23 6 -43 6q-47 0 -103 -23.5t-99 -66.5l-9 -21q-2 -4 -2 -10zM317 -115h25v-16q12 18 33 18q12 0 24.5 -7t12.5 -30v-71h-29v63 q0 10 -3 16.5t-15 6.5t-16.5 -8.5t-4.5 -16.5v-61h-27v106zM395 57q0 33 16.5 45.5t39.5 12.5q31 0 41 -19.5t10 -42.5v-8h-78q0 -8 6 -16.5t21 -8.5q10 0 15 4.5t5 8.5h31l-10 -21l-17 -12l-12 -3t-12 -1q-55 0 -56 61zM428 68h45l-8 16t-14 8q-23 0 -23 -24zM430 -166 q0 6 2 12.5t4 12.5q12 29 39 28q10 0 18.5 -4t12.5 -14l2 16h24v-100q0 -20 -10 -33.5t-43 -13.5q-18 0 -30.5 7t-12.5 24h27l6 -9q2 -2 12 -2q23 0 24 9.5t1 7.5v18q-12 -14 -29 -14q-14 0 -30.5 10t-16.5 45zM461 -168q0 -8 2 -14q0 -8 7 -11.5t11 -3.5q25 0 25 29 q0 10 -7 21.5t-18 11.5q-20 0 -20 -33zM498 717q20 0 20 -15v-49q0 -8 10 -22l17 -4q4 -2 18 -2q25 0 35 10q8 6 8 18q-4 -10 -10 -16l-12 -8h-15q-10 0 -21 3t-11 21v49q0 10 6 12.5t12 2.5h6v4h-63v-4zM510 92v21h16v28h31v-28h16v-21h-16v-61q0 -6 1 -8.5t11 -2.5l2 3 l2 -25h-16q-10 0 -20.5 2t-10.5 23v69h-16zM510 821q6 -20 27 -20q20 0 46.5 11t49.5 34l39 35q0 2 3 5t3 5l4 6l31 37q6 4 10 10t8 10l10 -8q0 -2 2 -4v-2q0 -2 -2 -4t-4 -6l-16 -17l-27 -39l-4 -18q-2 -2 -2 -8l4 -14h8q10 0 17 2l16 10q8 8 18.5 18t20.5 17l16 22l9 10 q4 4 4 5l33 47q0 -10 3 -17.5t3 -11.5l4 -8q-16 -4 -25 -13l-20 -14q-6 -10 -10.5 -17t-4.5 -18q0 -6 11 -10h18q18 0 35.5 15.5t28.5 25.5l8 18q6 8 6 19v16q0 6 -4 15l-6 16l-7 6q0 4 -3 7t-3 5v11h-8l-4 -4l-12 -9l-6 -14l-37 -51l-10 -17l-3 -2q-2 0 -4 -2l-10 -16 l-37 -39l-12 -6q-4 -4 -12 -4v2l14 20l14 19l19 28l4 15q2 6 2 14q-2 2 -2 8l-2 4q0 4 -2 7v22l6 10v4q0 2 -3 6.5t-7 4.5q-10 0 -25.5 -9.5t-15.5 -23.5q0 -8 2 -12l4 -2l4 -5l-12 -12l-43 -53q-4 0 -4 -4l-2 -4q0 -2 -2 -2l-11 -15q-16 -14 -30.5 -25.5t-30.5 -19.5 l-21 -8q-8 -4 -12 -4q-14 0 -14 12q0 2 4 11l12 24q4 -2 12 -2h19q10 4 21.5 10t29.5 17l14 16q4 4 7.5 8t3.5 8l8 13q0 16 -12 24h-19h-9t-9 -4l-21 -8q-33 -16 -59.5 -42t-34.5 -60v-17zM545 -115h14v27h29v-27h16v-20h-16v-55v-7.5t10 -3.5l6 2v-22h-16q-29 0 -29 22v64 h-14v20zM567 870l15 23l24 29l21 18l12 4q2 0 3 1t5 1q2 0 3 -1t3 -1v-10l-6 -8q-8 -8 -12 -19.5t-21 -19.5l-22 -17q-6 -2 -12 -2q-10 0 -13 2zM580 717h10q8 0 12 -8.5t4 -16.5v15l10 8l2 2h9v4h-47v-4zM610 -115h33l21 -78l20 78h31l-37 -104l-14 -35q-8 -8 -25 -8h-14 v22h16q2 0 6 4v5q2 2 2 6l-37 102zM639 694q0 -4 3 -10t7 -6l13 -6q2 -2 20 -6l8 -2q4 -2 16.5 -5.5t12.5 -15.5q0 -2 -3 -7t-9 -7h-11q-10 0 -16 2l-16 6l-11 10q-10 10 -10 21h-2l2 -43q0 4 4 7t8 3q2 0 5.5 -2t7.5 -2l14 -4q4 -2 14 -2q14 0 19.5 7t15.5 11v21l-6 6 q-2 4 -12 8l-17 6l-12 2q-4 0 -19.5 5t-11.5 11v9q0 -2 3 4t20 6q23 0 30 -9.5t17 -23.5h2l-2 31q-2 -6 -8 -6h-8q-16 10 -31 10q-8 0 -21 -4l-12 -8q-2 -4 -3 -7.5t-1 -9.5zM641 92v21h14v8q0 33 35 33h15v-25h-15q-4 0 -4 -4v-12h19v-21h-19v-94h-31v94h-14zM723 37v76h29 v-70q0 -20 20 -20h10l11 10q0 2 2 5t2 7v68h26v-115h-26v16q-8 -10 -18.5 -14t-16.5 -4q-39 0 -39 41zM731 -115h25v-16h4q2 0 4 2l16 14q2 2 8 2q12 0 29 -12t17 -43q0 -23 -14.5 -39t-31.5 -16q-10 0 -14 2l-8 6q-2 2 -5 2t-3 4v-51h-27v145zM741 627h103v39l-17 -27 q-6 -6 -8 -6l-10 -2q-4 -2 -12 -2h-15l2 41q8 0 19 -6l4 -7q0 -2 1 -3t1 -3v-8v59l-4 -18q-10 -10 -19 -10h-4v43h17q16 0 22 -2l8 -6l11 -25h4v37h-103v-4h4q16 0 17 -15v-57q0 -16 -17 -16zM756 -170q0 -14 8 -20q6 -8 16 -9q23 0 23 31q0 10 -4 21.5t-19 11.5 q-25 0 -24 -35zM793 868v9l10 18q8 10 18 18l23 11q0 -4 1 -6.5t1 -4.5q-2 -4 -2 -8v-12l-4 -8l-17 -17q-4 0 -10 -3t-10 -3q-8 0 -10 6zM844 -166q0 17 4 25q12 29 43 28q51 0 51 -57v-6h-72q0 -25 23 -25q6 0 14 4l6 9h27q-4 -23 -16.5 -29t-30.5 -6q-49 0 -49 57zM852 -2 v156h29v-156h-29zM870 -158h43q0 8 -5 15.5t-17 7.5q-16 0 -21 -23zM903 -2v156h29v-156h-29zM905 674q0 -29 21.5 -39t36.5 -10q20 0 29.5 7t19.5 17q6 8 6 25q0 16 -14.5 32.5t-40.5 16.5q-29 0 -43.5 -16.5t-14.5 -32.5zM915 901q0 -8 5 -8l10 -8q2 0 4 -1t4 -1l2 2h12 q8 2 14.5 4t12.5 4l27 14l41 37l14 21l16 34q0 2 1 4.5t1 4.5q0 -4 -2 11t-30 15q-6 0 -13.5 -2t-17.5 -6l-12 -4l-48 -35l-28 -37q-10 -16 -13 -26v-23zM928 674q0 4 1 8t1 8l12 23q2 2 8 5t15 3q0 -2 2 -2h4l16 -12q0 -6 4 -11.5t4 -21.5q0 -14 -5 -29.5t-27 -15.5 q-23 0 -25 12l-6 12q-4 12 -4 21zM940 895v12q4 14 10 21l15 22l34 43l9.5 9.5l9.5 9.5l18 12q4 2 11 2q6 0 6 -10q0 -2 -4 -10l-11 -19l-26 -41l-37 -39q-4 -4 -8 -6q-4 -4 -7.5 -5t-7.5 -3h-8q-4 0 -4 2zM948 -115h17v9q0 29 30 28h13v-22h-13l-2 -2l-2 -13h19v-20h-19 v-86h-26v86h-17v20zM1010 92v21h14v8q0 33 35 33h12v-25h-12q-2 0 -4 -4v-12h20v-21h-20v-94h-31v94h-14zM1018 -193q0 17 10 23q10 10 21 10l24 4q8 0 8 6q0 16 -14 17q-8 0 -13 -6t-5 -11h-27q0 27 18.5 32t26.5 5q43 0 43 -30v-56q0 -10 1 -12t5 -6v-4l-31 2q0 2 -1 2 t-1 2v6q-14 -6 -17 -10t-15 -4q-8 0 -15 2l-14 10q-4 8 -4 18zM1032 627l49 2q-6 0 -10 2h-8l-4 10q-2 2 -2 12v56l80 -82h4v65q0 10 2 17.5t18 7.5v4h-47v-4h8l6 -6q8 -8 9 -19v-39l-66 68h-37v-4q12 0 15.5 -4t3.5 -11v-53q0 -6 -2 -10l-7 -8q-4 0 -7 -1t-5 -1v-2z M1047 -190q0 -14 12 -15q4 0 6 4l14 6q2 4 2 13v12l-8 -4l-14 -2q-12 0 -12 -14zM1051 905q2 0 3 -1t3 -1q4 0 8 2l8 4q0 8 8 9l4 6q0 4 5 4l36 43l39 41l39 37l23 12q2 0 2 -2l-6 -4q-2 -6 -9 -8l-16 -21q-4 -4 -6 -7t-6 -7l-29 -43l-6 -19q-2 -4 -2 -10q0 -12 10 -12h19 q4 2 9 5t13 7l19 14l22 23q-2 -2 -2 -6q0 -10 5 -17.5t16 -7.5q16 0 38 17l21 14l7 7l7 7l13 13v-5q0 -2 -1.5 -3t-1.5 -3v-6q-2 -2 -2 -6t3.5 -10t7.5 -6h16l6 4l21 12l49 43l-4 -12q-4 -6 -4 -19v-6q4 0 4 -2t6 -2q2 0 10 3t10 7l23 19q4 0 12 9t17 17l18 21v4q0 2 -2 2 q-4 0 -8 -4l-2 -4l-23 -27q-10 -6 -12 -12l-14 -12l-17 -9l-2 -2q-2 0 -4 2l10 15q4 8 8 12l7 12q4 2 8 11l63 92q10 10 13 16l53 59q10 10 17 20.5t16 20.5l10 19v8q-2 2 -8 2q-4 0 -14.5 -4t-18.5 -12l-8 -6l-39 -37q-10 -10 -16.5 -18.5t-16.5 -24.5l-53 -86l-27 -49 l-16 -15q-4 -6 -8.5 -10t-10.5 -10l-18 -17l-17 -12l-4 -2l-4 -4h-10l12 20q0 4 8.5 15.5t12.5 15.5l16 29l23 33l8 12q-4 0 2 4t6 6q0 6 -6 6l-20 -10l-33 -25q0 18 -21 19q-6 0 -15 -3t-15 -7l-25 -13l-18 -16q-23 -16 -37.5 -36.5t-20.5 -39.5h-4l-16 -18 q-10 -8 -21.5 -18.5t-23.5 -10.5h-2q-2 0 -2 2l2 2l12 19l33 41q4 6 9 13t9 15l8 17q2 4 2 10q0 16 -8 16q-6 0 -8 -2l-25 -12l-20 -17q-8 -8 -12 -8l-21 -22q-4 -4 -9 -9.5t-9 -9.5l-21 -22l2 4l51 72q0 2 3.5 6t3.5 8l-7 6q-2 0 -3 1t-3 1t-4 -1t-6 -1l-14 -10 q-4 -2 -4 -4t-2 -4l-82 -140q-2 -2 -2 -4v-2zM1083 55q0 4 1 14.5t7.5 20.5t17.5 17.5t34 7.5q10 0 23.5 -3.5t17.5 -11.5q16 -16 16 -45q0 -16 -11 -37.5t-46 -21.5q-29 0 -44.5 16.5t-15.5 42.5zM1114 55q0 -20 8 -26t21 -6q16 0 20 10q6 6 6 22q0 14 -6 24.5t-20 10.5 q-29 0 -29 -35zM1128 -170q1 16 11 41q12 16 39 16q18 0 33.5 -12t15.5 -29h-31q0 4 -3 11.5t-13 7.5t-17.5 -9.5t-7.5 -21.5q0 -6 1 -10t1 -8l8 -11q4 -4 13 -4q4 0 11 3t7 14h27q0 -18 -13.5 -29.5t-31.5 -11.5q-20 0 -35 12t-15 41zM1167 627h107v41h-2q-4 -4 -7 -10.5 t-3 -10.5l-5 -6q-6 -6 -10 -9t-16 -3h-25v73q0 14 19 15h6v4h-64v-4h4q16 0 17 -15v-57q0 -16 -17 -16zM1221 -2v115h28v-17q12 18 35 19q14 0 21 -4l14 -13q4 -12 4 -20v-80h-29v70q0 23 -20 22q-23 0 -23 -27v-65h-30zM1237 -166q0 9 4 25q12 29 45 28q27 0 38 -17t11 -40 v-6h-71q0 -25 22 -25q6 0 14 4l7 9h26q-10 -35 -47 -35q-49 0 -49 57zM1264 -158h43q0 8 -5.5 15.5t-17.5 7.5q-16 0 -20 -23zM1266 963q2 0 2 2t2 4l6 10l8 10l14 23l45 57l23 21q2 2 8 3t8 1l7 -4q0 -2 1 -3.5t1 -3.5q0 -8 -7 -14l-28 -45l-17 -14l-26 -27l-23 -18 q-4 0 -9 -4.5t-9 -4.5l-2 2h-2q-2 2 -2 5zM1268 721l2 -4q6 0 12 -1t10 -11l29 -39v-21q0 -16 -16 -16l-7 -2h68l-8 2q-16 0 -17 16v23l29 41q8 4 10 4h2l4 2q2 0 7 2v4h-47v-4h6q14 0 14 -8q0 -4 -6 -11l-19 -26l-24 30q-4 8 -4 9v2q0 4 8 4h8v4h-61zM1337 92v21h19v28h26 v-28h21v-21h-21v-61q0 -10 13 -11l8 3v-25h-21q-25 0 -26 12v82h-19zM1352 -190h30v-31h-30v31zM1401 -170q0 16 10 41q12 16 39 16q16 0 32.5 -10t16.5 -31h-29l-6 13q-6 6 -12 6q-8 0 -15 -8.5t-7 -22.5q0 -33 20 -33q18 0 18 17h31q-4 -16 -14 -28.5t-35 -12.5 q-18 0 -33.5 11t-15.5 42zM1473 31q0 18 10 24t22 11l27 4q10 0 10 8q0 14 -18 14t-21 -18h-26q0 14 8 27.5t26 13.5h13q23 0 35 -6.5t12 -26.5v-72q0 -6 8 -6v-6h-33q-2 0 -2 2v2v2q0 4 -1 5t-1 3l-8 -8q-2 -2 -3 -2t-3 -2t-4 -2q-6 0 -9.5 -1t-7.5 -1q-8 0 -21 5t-13 30z M1501 31q0 -8 5 -10.5t10 -2.5l12 2q14 6 14 21v14q-6 -6 -12 -6l-14 -4q-15 0 -15 -14zM1511 -168q0 13 2 21q12 35 52 34q16 0 33.5 -11t17.5 -44q0 -23 -11.5 -39t-39.5 -16q-53 0 -54 55zM1538 -168q0 -12 5 -21.5t22 -9.5q16 0 20 10.5t4 20.5q0 13 -6 23q-4 10 -18 10 q-16 0 -21.5 -10.5t-5.5 -22.5zM1567 1167l28 37l13 23l26 35q0 2 3 4t5 4q0 -8 -2 -10l-8 -11l-12 -18l-35 -41l-10 -12q-4 -8 -8 -11zM1585 92v21h14v28h33v-28h19v-21h-19v-69q2 0 4 -1.5t6 -1.5l9 3v-25h-19q-8 0 -20.5 3t-12.5 22v69h-14zM1636 -115h27v-16q8 18 31 18 q18 0 28 -16q6 16 27 16q37 0 37 -37v-71h-27v63q0 23 -16 23q-18 0 -19 -23v-63h-26v74q0 6 -6 9t-13 3q-16 0 -16 -23v-63h-27v106z" />
<glyph unicode=":" horiz-adv-x="239" d="M13 22.5q-7 16.5 12 45.5q6 12 18 31.5t23 35.5q16 25 44.5 30t53 -3t37 -28.5t-3.5 -49.5q-10 -16 -26.5 -32.5t-27.5 -24.5q-27 -16 -55.5 -22.5t-48 -2.5t-26.5 20.5zM206 465q-7 16 11 45q6 12 18.5 31.5t22.5 36.5q16 25 45 29.5t53.5 -3.5t36.5 -28.5t-4 -49.5 q-10 -16 -26.5 -32.5t-26.5 -24.5q-27 -16 -55.5 -22.5t-48 -2t-26.5 20.5z" />
<glyph unicode=";" horiz-adv-x="239" d="M-133 -142.5q0 15.5 22 40.5q20 25 49 62.5t57 75.5t48 67.5t25 33.5q20 20 51 26.5t56.5 -1.5t37.5 -26.5t-6 -47.5q-4 -8 -40 -43t-79 -74t-79 -71.5t-42 -36.5q-27 -16 -50 -22.5t-36.5 -2.5t-13.5 19.5zM206 465q-7 16 11 45q6 12 18.5 31.5t22.5 36.5q16 25 45 29.5 t53.5 -3.5t36.5 -28.5t-4 -49.5q-10 -16 -26.5 -32.5t-26.5 -24.5q-27 -16 -55.5 -22.5t-48 -2t-26.5 20.5z" />
<glyph unicode="&#x3c;" horiz-adv-x="565" d="M120 399.5q13 42.5 52 63.5q49 20 79 33.5t54.5 26t52 24.5t70.5 31q33 12 45 -3.5t9 -40t-19.5 -50t-40.5 -35.5q-33 -16 -86 -39t-103 -45q8 -16 14.5 -27.5t14.5 -25t19.5 -35t29.5 -58.5q12 -23 7 -51.5t-18 -49t-32.5 -24.5t-34.5 25q-27 49 -57.5 102t-52.5 101 q-16 35 -3 77.5z" />
<glyph unicode="=" horiz-adv-x="704" d="M74 187.5q-6 17.5 5 40t35.5 41t53.5 20.5q25 2 69 2t91 -1t92 -1h74q31 0 37 -17.5t-4.5 -39t-33 -41t-49.5 -19.5q-55 -2 -95 -2h-75.5h-72.5h-86q-35 0 -41 17.5zM166 379.5q-6 17.5 5 40t35.5 41t53.5 20.5q25 2 69 2t91 -1t92 -1h74q31 0 37 -17.5t-4.5 -39 t-32.5 -40.5t-49 -19q-55 -2 -95.5 -2.5t-76 -0.5h-72.5h-86q-35 0 -41 17.5z" />
<glyph unicode="&#x3e;" horiz-adv-x="565" d="M77 147.5q3 24.5 20.5 50t41.5 35.5q33 16 86.5 39t102.5 45q-8 16 -14.5 27.5t-14.5 25t-19.5 35t-29.5 58.5q-12 23 -7 51.5t18 49t31.5 23.5t35.5 -24q27 -49 57.5 -102t52.5 -101q16 -35 3 -77.5t-52 -63.5q-49 -20 -79.5 -33.5t-55.5 -26t-51.5 -24.5t-69.5 -31 q-33 -12 -46 3.5t-10 40z" />
<glyph unicode="?" horiz-adv-x="581" d="M95 22.5q-7 16.5 11 45.5q6 12 18.5 31.5t22.5 35.5q16 25 45 30t53.5 -3t37 -28.5t-3.5 -49.5q-10 -16 -26.5 -32.5t-27.5 -24.5q-27 -16 -55.5 -22.5t-48 -2.5t-26.5 20.5zM254 273.5q-10 15.5 4 43.5q27 57 68 97.5t88 71t95 56t90 53.5t75 61.5t47 82.5q12 39 5 70 t-28.5 47t-53.5 18.5t-71 -18.5q-31 -14 -54 -37.5t-37.5 -52.5t-16.5 -61.5t14 -65.5q12 -25 8 -48.5t-19 -38.5t-37.5 -20.5t-47.5 7.5q-41 18 -55.5 67t-16.5 90q-2 57 19.5 110.5t59.5 95.5t89.5 71t108.5 39q104 14 170.5 -14.5t96.5 -85t26 -129t-41 -142.5 q-41 -80 -109.5 -124t-140.5 -75.5t-135.5 -62.5t-94.5 -84q-12 -23 -34.5 -32t-42 -7t-29.5 17.5z" />
<glyph unicode="@" horiz-adv-x="1224" d="M15.5 102.5q11.5 141.5 88.5 311.5q55 121 134 222t170.5 176t188.5 121t191.5 57t179.5 -15.5t148 -97.5q53 -59 72.5 -129t13.5 -144t-33.5 -148.5t-68.5 -142t-91.5 -128t-101.5 -103.5q-55 -49 -98 -67.5t-76 -16.5t-55.5 20.5t-38.5 42.5q-33 -20 -71 -42.5 t-113 -22.5q-53 0 -92 24.5t-57.5 69.5t-12.5 107.5t47 136.5q39 74 93 128t109.5 89t107.5 51t91 16q27 0 46.5 -7t35.5 -17t31 -25q12 25 41 36t54.5 8t38.5 -19t-3 -45q-16 -33 -40.5 -81t-51.5 -98.5t-50.5 -94.5t-37.5 -64q-12 -23 -9 -32t17 -8t32.5 11.5t37.5 28.5 q51 55 95 120.5t68.5 135.5t23.5 139.5t-36 130.5q-53 94 -155.5 111.5t-219 -32.5t-234.5 -167t-202 -291q-61 -125 -70.5 -232.5t19.5 -186t89.5 -123.5t139.5 -45q61 -1 129 28q25 10 47.5 -1t33 -31.5t1 -45t-52.5 -43.5q-80 -33 -170 -32q-125 0 -214 56t-130 157.5 t-29.5 243zM443 171q3 -26 20 -38q14 -12 39.5 -8t56.5 22.5t62.5 49t62.5 71.5q31 39 50.5 79t28.5 74t7 59.5t-18 37.5t-42 7t-55.5 -23.5t-61.5 -49t-63 -69.5q-31 -41 -51 -80t-29.5 -72.5t-6.5 -59.5z" />
<glyph unicode="A" horiz-adv-x="1320" d="M6 250q10 90 50 137t90 65q42 15 83 15h17q49 -4 78 -14q27 -12 38 -33t8 -39.5t-18.5 -28.5t-40.5 0q-24 9 -46 9q-15 0 -27 -4q-32 -11 -53 -36.5t-27 -60.5q-2 -12 -2 -24q0 -22 7 -42q11 -32 43 -53.5t89 -21.5q88 0 188 82q-39 2 -48 19.5t2.5 39t37 39.5t55.5 20 h33t47 3q92 102 186.5 239t186.5 282.5t181 286t171 250.5q20 27 50 33q11 2 20 2q17 0 33 -7q24 -10 32 -36q2 -7 3 -16q0 -20 -15 -43q-70 -109 -138.5 -240t-126.5 -264t-103.5 -257t-67.5 -219q-18 -79 -17 -132q1 -11 1 -21q4 -58 43 -59q14 0 35.5 7t45 19.5t46 29 t41.5 34.5q37 37 57 58.5t47 56.5q12 18 33.5 19t40 -8t27 -25.5t-6.5 -35.5q-20 -25 -55 -66.5t-88 -94.5q-35 -33 -63.5 -55.5t-57.5 -37t-59.5 -20.5t-69.5 -6q-86 0 -123 60q-33 54 -33 138v19q-12 -4 -22 -4q-47 -2 -86 -3t-74 -1q-117 -121 -214 -166 q-89 -41 -171 -41h-14q-61 2 -115.5 21.5t-92.5 52.5q-37 34 -57 80q-15 35 -15 73q0 13 1 25zM786 324q29 2 53.5 2h41.5q29 127 90 262q-49 -78 -95.5 -143.5t-89.5 -120.5z" />
<glyph unicode="B" horiz-adv-x="1335" d="M10 250q6 88 44 136t87 71.5t99 26.5q21 1 38 2q23 0 39 -3q80 -10 143.5 -45t117.5 -84q29 47 54 98.5t52 106.5q-84 -49 -164 -65q-43 -9 -82 -9q-34 1 -66 7q-68 14 -121.5 58t-80.5 116q-18 45 -18 96q0 30 6 64q18 88 75.5 178t152.5 169.5t224 135.5q125 53 251 69 q60 7 116 7q62 0 119 -9l4 4q20 27 47 34q14 4 25.5 4t21.5 -4q20 -7 29.5 -27.5t-6.5 -47.5q59 -16 109 -50t79 -81q37 -64 37 -140v-16q-4 -86 -48 -173.5t-123 -170.5t-186 -149q92 -63 124 -151q16 -44 16 -91q0 -48 -17 -100q-20 -63 -64 -110.5t-104 -74.5 q-58 -28 -128 -32q-11 -1 -22 -1q-59 0 -118 19q-59 18 -106.5 52t-81.5 77q-63 -70 -136 -109.5t-161 -39.5q-61 0 -113.5 19.5t-90.5 52.5q-37 34 -57 80q-16 39 -17 82q0 9 1 18zM157 245l-2 -16q-1 -37 27 -70q32 -40 117 -40q57 0 108.5 34.5t98.5 94.5 q-31 33 -79.5 64.5t-111.5 39.5q-12 2 -24 2q-51 0 -85 -28q-42 -34 -49 -81zM309 821q-9 -41 -9 -74q0 -34 10 -58q18 -49 60 -67q30 -13 69 -13q15 0 31 2q58 7 119.5 36t118 73t95.5 99q51 117 106.5 231.5t114.5 215.5q-14 1 -29 1q-75 1 -167 -17q-110 -20 -216 -74 t-190 -141t-113 -214zM670 258q29 -33 65.5 -66.5t87.5 -50.5q38 -12 72 -12q41 0 77 18q66 33 89 109q10 30 10 60q0 8 -1 15q-3 38 -19.5 69.5t-48 53t-76.5 23.5q-23 1 -44 1q-52 0 -91 -7q-29 -59 -59 -112.5t-62 -100.5zM846 586q68 12 137 55q82 47 146.5 113.5 t103.5 138.5q39 71 48 141q2 16 2 32q0 50 -23 89q-16 29 -46 47.5t-65 30.5q-43 -72 -82 -152t-76 -162.5t-72.5 -166.5t-72.5 -166z" />
<glyph unicode="C" horiz-adv-x="743" d="M28 418q14 148 105 346q92 199 217 338t258 216t259 93q32 4 62 4q89 0 161 -35q66 -31 76 -93q3 -18 3 -37q0 -48 -18 -103q-25 -78 -76 -161t-111.5 -155.5t-121 -126t-103.5 -69.5q-29 -10 -50 0t-33.5 26.5t-12.5 35t16 26.5q37 18 86.5 62t98.5 99.5t94 117.5 q46 62 72 118q28 58 27 102q0 42 -33 62q-29 16 -70 16q-36 0 -82 -12q-98 -28 -207.5 -105t-215 -198t-175.5 -276q-72 -155 -83 -269q-3 -30 -3 -58q0 -75 22 -128q30 -72 96 -104q57 -29 128 -30q9 0 18 1q41 2 90 28.5t94.5 59.5t80 65.5t46.5 51.5q12 18 34 19t39.5 -7 t25.5 -25.5t-4 -36.5q-12 -18 -34 -41.5t-47.5 -50t-55 -53.5t-60.5 -49q-59 -45 -114.5 -63.5t-106.5 -22.5q-15 -1 -30 -1q-106 0 -190 39q-96 44 -141 140q-35 74 -35 178q1 32 4 66z" />
<glyph unicode="D" horiz-adv-x="1445" d="M16 250q6 88 44 136t86.5 71.5t97.5 26.5q21 1 39 2q24 0 41 -3q78 -10 141 -45t119 -86q29 47 54.5 99.5t53.5 109.5q-84 -49 -166 -67q-46 -10 -88 -9q-32 -1 -62 5q-68 14 -121.5 58t-80.5 118q-18 45 -18 96q0 30 6 64q18 88 75.5 178t153.5 169.5t225 135.5 q125 53 251 69q60 7 116 7q62 0 119 -9l4 4q18 27 46 34q14 4 26 4q14 0 24 -4q22 -7 29.5 -27.5t-8.5 -47.5q25 -8 46 -17t44 -19q86 -47 139 -124q54 -77 70 -177q7 -45 7 -94q1 -60 -11 -124q-20 -118 -80 -249q-53 -117 -130 -224.5t-168 -183.5q-92 -77 -190 -109 q-50 -16 -99 -16t-97 16q-59 18 -98.5 51t-67.5 76q-63 -70 -136 -108.5t-159 -38.5q-61 0 -113.5 19.5t-90.5 52.5q-37 34 -57 80q-16 39 -17 82q0 9 1 18zM163 245l-2 -16q-1 -37 27 -70q32 -40 117 -40q57 0 108.5 33.5t98.5 93.5q-33 35 -80 65.5t-113 40.5q-12 2 -24 2 q-49 0 -83 -28q-42 -34 -49 -81zM312 687q20 -47 64 -65q29 -11 64 -11q20 1 40 3q60 10 122 38t118 74t93 103q51 115 104.5 226.5t112.5 210.5q-14 1 -29 1q-75 1 -169 -17q-112 -20 -217 -74t-189 -141t-113 -214q-10 -44 -10 -77q-1 -33 9 -57zM676 258 q23 -35 49.5 -69.5t73.5 -49.5q23 -8 48 -8q35 1 71 15q64 24 128 82.5t127.5 146.5t116.5 198q94 189 94 334q0 23 -2 46q-18 161 -147 249q-16 10 -37 18.5t-41 14.5q-68 -111 -126 -240t-115.5 -260t-116 -254t-123.5 -223z" />
<glyph unicode="E" horiz-adv-x="731" d="M12 358q2 115 48 183.5t104 105.5q65 44 149 62q-35 61 -37 135v8q0 60 27 140q29 85 121 188q84 92 172 147t172 77q64 17 125 18q19 0 38 -2q79 -7 146 -40q63 -31 75 -93q4 -20 3 -41q-1 -46 -17 -99q-24 -78 -75 -161t-112.5 -155.5t-122 -126t-103.5 -69.5 q-27 -10 -49.5 0t-34.5 26.5t-12 35t16 26.5q37 18 86 62t99.5 99.5t94.5 117.5q45 62 71 118q28 58 27 102q0 42 -34 62q-35 20 -83 22q-6 0 -12 1q-42 -1 -92 -17q-56 -18 -118.5 -61t-126.5 -115q-59 -66 -91 -132.5t-39 -125.5q-3 -22 -2 -42q0 -36 7 -68q12 -52 41 -84 q23 -29 9.5 -51.5t-36.5 -18.5q-23 6 -48 6q-20 0 -41 -4q-48 -8 -91 -35t-73.5 -73t-36.5 -109q-1 -16 -1 -32q0 -48 14 -86q19 -50 56 -82t87 -46q39 -11 81 -11q12 0 25 1q41 2 90 28.5t94 59.5t80 65.5t49 51.5q12 18 33.5 19t39 -7t25 -25.5t-5.5 -36.5 q-12 -18 -32.5 -41.5t-47 -50t-56.5 -53.5t-60 -49q-57 -45 -113.5 -63.5t-105.5 -22.5q-15 -1 -29 -1q-70 1 -131 17q-74 20 -126 64q-52 46 -82 116q-28 66 -28 154v12z" />
<glyph unicode="F" horiz-adv-x="1073" d="M10 250q8 88 48 134t90 66q44 17 88 16h13q50 -3 79 -13q27 -12 38 -33t8 -39.5t-17.5 -28.5t-39.5 0q-24 9 -46 9q-15 0 -29 -4q-34 -11 -54 -36.5t-26 -60.5q-2 -12 -2 -24q0 -22 7 -42q11 -32 43 -53.5t89 -21.5q84 0 154.5 68.5t136.5 183.5q-41 0 -50.5 18.5t1 40 t37 39.5t59.5 20h16q8 18 16.5 36t18.5 36q-84 -49 -165 -67q-46 -10 -88 -9q-33 -1 -63 5q-70 14 -121.5 58t-80.5 118q-18 45 -18 96q0 30 6 64q18 88 76.5 178t153.5 169.5t224 135.5q125 53 250 69q60 7 116 7q62 0 120 -9l4 4q18 27 45 34q14 4 26 4q13 0 23 -4 q22 -7 30.5 -26.5t-5.5 -46.5q129 -38 226 -38q22 -1 42 1q110 10 188 76q16 12 45 11.5t52.5 -11t31.5 -30.5q2 -5 3 -10q0 -15 -17 -31q-41 -41 -105.5 -72t-147.5 -43q-50 -7 -105 -7q-37 0 -76 3q-98 8 -207 45q-49 -82 -93 -174t-86 -188.5t-84 -192.5t-85 -186 q57 0 110.5 1t81.5 1q31 0 38 -18.5t-3 -40t-32.5 -40t-49.5 -18.5q-63 -2 -111.5 -3t-93.5 -1q-45 -82 -94 -151.5t-105.5 -120t-119 -78t-135.5 -27.5q-61 0 -114.5 19.5t-91.5 52.5q-37 34 -57 80q-16 39 -17 82q0 9 1 18zM310 689q18 -49 60 -67q30 -13 70 -13 q15 0 31 2q59 7 120.5 36t118 73t95.5 99q51 117 106.5 231.5t114.5 215.5q-14 1 -29 1q-75 1 -169 -17q-112 -20 -217 -74t-188 -141t-112 -214q-9 -43 -9 -76q-1 -32 8 -56z" />
<glyph unicode="G" horiz-adv-x="874" d="M10 62q-1 14 -1 28q0 41 9 80q13 51 37.5 93t55.5 61q31 18 55 11t36.5 -27.5t11.5 -44t-19 -38.5q-29 -23 -39 -63q-6 -20 -6 -41q0 -18 4 -36q10 -38 37.5 -66.5t72.5 -28.5q78 0 149.5 66.5t139.5 176.5q-29 -12 -58.5 -19t-60.5 -3q-106 6 -173.5 65.5t-86.5 163.5 q-6 38 -6 80q0 76 22 168q33 144 129 316q41 74 101.5 142t131.5 124.5t148.5 97.5t155.5 58q51 12 99 12q27 0 53 -4q73 -9 135 -54q66 -47 79 -118q5 -25 5 -52q0 -47 -15 -97q-22 -79 -73.5 -157.5t-117 -143t-137 -104.5t-132.5 -42q-29 0 -46.5 17t-23.5 37.5t0 38 t25 19.5q47 2 100 35t103.5 82t93.5 108.5t66 114.5q21 54 21 97q0 48 -36 69q-48 27 -103 27q-32 0 -65 -9q-92 -24 -180.5 -82.5t-162 -136t-110.5 -145.5q-74 -131 -104 -242q-23 -91 -23 -161q0 -17 1 -33q7 -82 50 -126q39 -40 103 -40h12q41 2 79 27.5t68.5 59.5 t54 66.5t36.5 49.5q12 27 37.5 36t49 2.5t37 -24.5t1.5 -47q-8 -18 -28 -74.5t-52.5 -128.5t-78.5 -150.5t-105.5 -144t-134.5 -108.5t-165 -43t-145 29.5t-84 74.5t-33 101z" />
<glyph unicode="H" horiz-adv-x="1372" d="M12 250q6 88 47 134t91 66q44 17 88 16h13q50 -3 79 -13q27 -12 38 -33t8 -39.5t-18.5 -28.5t-40.5 0q-24 9 -46 9q-15 0 -27 -4q-32 -11 -54 -36.5t-28 -60.5q-2 -12 -2 -23q0 -23 8 -43q12 -32 44 -53.5t89 -21.5q84 0 154.5 69.5t136.5 182.5h-25q-43 -2 -55 16.5 t-2 40t36.5 40.5t59.5 21h49l50 103q-25 -18 -50 -31q-83 -45 -155 -46h-5q-68 1 -117 27q-50 28 -78 78q-24 44 -24 94v16q4 60 42 122.5t120 114.5q68 43 152 84t171 86t171 97t149 118l21 28q20 27 49 34q14 3 25 3q14 0 26 -4q22 -8 27.5 -29.5t-15.5 -52.5 q-59 -86 -112 -188.5t-102.5 -212t-97.5 -221t-99 -215.5q63 0 122.5 1t104.5 1q27 66 52.5 123t45.5 96q61 111 140.5 228.5t162 217t161.5 168t139 80.5q33 8 58.5 -7.5t37.5 -37.5q8 -15 8 -30q0 -8 -1 -14q-5 -22 -36 -30q-57 -14 -129 -75.5t-144.5 -147.5t-140 -187.5 t-116.5 -197.5q-20 -39 -46 -94.5t-49.5 -115.5t-43 -119.5t-31.5 -107.5q-9 -39 -9 -69q1 -6 1 -12q2 -33 20 -37q9 -3 18 -3q28 0 60 22q43 30 80 65q37 37 56 58.5t48 56.5q12 18 33.5 19t39 -8t26 -25.5t-6.5 -35.5q-18 -25 -54 -66.5t-89 -94.5q-70 -66 -125 -92.5 t-123 -26.5q-57 0 -86 32t-35 86q-2 18 -2 39q0 39 8 83q12 68 31 141q-59 -2 -121.5 -2h-126.5q-45 -82 -93 -151.5t-103.5 -120t-117.5 -78t-136 -27.5q-61 0 -114.5 19.5t-91.5 52.5q-37 34 -57 80q-16 39 -17 82q0 9 1 18zM424 771q-5 -18 -6 -34q0 -25 14 -45 q22 -33 71 -42q11 -2 23 -2q41 0 92 24q47 23 100.5 61.5t84.5 79.5q35 74 67.5 147.5t69.5 145.5q-61 -43 -124.5 -78t-121 -63.5t-108.5 -54t-88 -52.5q-60 -41 -74 -87z" />
<glyph unicode="I" horiz-adv-x="860" d="M14 250q6 88 47 134t91 66q44 17 88 16h13q50 -3 79 -13q27 -12 38 -33t8 -39.5t-18.5 -28.5t-40.5 0q-24 9 -46 9q-15 0 -27 -4q-32 -11 -54 -36.5t-28 -60.5q-2 -12 -2 -23q0 -23 8 -43q12 -32 44 -53.5t89 -21.5q59 0 113.5 37t103.5 101.5t95.5 150.5t91.5 184 q-25 -18 -50 -31q-85 -45 -155 -46h-4q-67 1 -117 27q-51 28 -79 78q-24 44 -24 94v16q4 60 42 122.5t120 114.5q68 43 152 84t171 86t171 97t149 118l21 28q20 27 49 34q14 3 25 3q14 0 26 -4q22 -7 27 -29q1 -5 1 -11q0 -18 -15 -42q-80 -113 -148 -256t-132.5 -291.5 t-131 -290t-142 -251t-165.5 -177t-205 -67.5q-61 0 -114.5 19.5t-91.5 52.5q-37 34 -57 80q-16 39 -17 82q0 9 1 18zM426 771q-5 -18 -6 -34q0 -25 14 -45q22 -33 71 -42q11 -2 23 -2q42 0 93 24q47 23 100 61.5t84 79.5q35 74 67.5 147.5t69.5 145.5q-61 -43 -124.5 -78 t-121 -63.5t-108.5 -54t-88 -52.5q-60 -41 -74 -87z" />
<glyph unicode="J" horiz-adv-x="978" d="M16 37q8 86 46 137t86.5 74.5t96.5 24.5h9q42 0 68 -9q27 -10 38 -30.5t9 -39t-17.5 -29.5t-40.5 -1q-23 9 -43 9q-16 0 -30 -6q-33 -13 -53.5 -44t-26.5 -71q-2 -14 -2 -28q0 -25 7 -48q11 -35 43 -60t89 -25q66 0 131.5 56.5t130 152t129 220t129.5 260.5 q-43 -39 -82 -58q-84 -43 -155 -44h-4q-68 0 -117 26q-51 28 -79 78q-24 45 -24 97v15q4 60 43 122.5t121 113.5q70 43 163 90t191.5 99t191.5 112.5t161 130.5l12 18q10 12 23 23l2 2v-2q20 14 43.5 14t39 -11t18.5 -30v-6q0 -18 -15 -39q-80 -113 -158 -273.5t-158 -333.5 t-165 -344t-176 -306t-192.5 -219t-215.5 -84q-61 0 -112.5 21.5t-87.5 58t-53 85.5q-15 39 -15 81q0 10 1 20zM503 733q-6 -19 -6 -35q0 -25 13 -44q22 -33 72 -44q13 -2 27 -2q40 0 89 23q23 10 51.5 28.5t59.5 41t59.5 48t51.5 48.5q37 80 74.5 157.5t76.5 149.5 q-70 -49 -140.5 -90t-137 -75t-122 -62.5t-93.5 -55.5q-61 -41 -75 -88z" />
<glyph unicode="K" horiz-adv-x="1460" d="M8 250q6 88 47 134t91 66q44 17 88 16h13q50 -3 79 -13q27 -12 38 -33t8 -39.5t-18.5 -28.5t-40.5 0q-24 9 -46 9q-15 0 -27 -4q-32 -11 -54 -36.5t-28 -60.5q-2 -12 -2 -23q0 -23 8 -43q12 -32 44 -53.5t89 -21.5q59 0 112.5 37t102.5 101.5t95 150.5t91 184 q-20 -16 -47 -31q-83 -45 -155 -46h-5q-68 1 -117 27q-50 28 -78 78q-24 44 -24 96v14q4 60 42 122.5t120 114.5q68 45 153 86t172 86t170 97t150 118l19 26q20 27 48 34q13 3 25 3q13 0 25 -4q22 -8 28.5 -29.5t-14.5 -52.5q-94 -135 -170.5 -305t-152.5 -342q16 -2 32 -2 q41 0 85 10q64 14 130 51t130.5 96.5t119.5 145.5q121 186 229.5 293.5t205.5 130.5q33 8 59.5 -7.5t38.5 -37.5q8 -14 8 -29q0 -7 -2 -15q-6 -22 -37 -30q-92 -23 -180 -107.5t-193 -238.5q-117 -178 -247.5 -265t-253.5 -104q43 -61 67.5 -135.5t42 -141.5t33.5 -115 t45 -56q9 -3 18 -3q28 0 60 22q43 30 78 65q37 37 57 58.5t47 56.5q12 18 34 19t40 -8t26.5 -25.5t-6.5 -35.5q-20 -25 -55 -66.5t-90 -94.5q-70 -66 -125 -92.5t-123 -26.5q-59 0 -93 33.5t-54.5 86t-33.5 117t-31.5 125t-47.5 110.5t-78 77q-53 -113 -109.5 -212.5 t-121 -174t-140 -117.5t-167.5 -43q-61 0 -113.5 19.5t-90.5 52.5q-37 34 -57 80q-16 39 -17 82q0 9 1 18zM420 771q-5 -18 -5 -34q1 -25 13 -45q22 -33 71 -42q11 -2 23 -2q41 0 92 24q47 23 99.5 61.5t85.5 79.5q33 74 66.5 147.5t68.5 145.5q-61 -43 -123.5 -78 t-120 -63.5t-109 -54t-87.5 -52.5q-60 -41 -74 -87z" />
<glyph unicode="L" horiz-adv-x="1081" d="M24 95q-7 20 -7 42q-1 23 7 47q14 47 50 84q31 33 78 54.5t100 27.5q20 2 40 2q34 0 68 -6q56 -10 105 -41q41 59 78 132t75 155q-25 -18 -49 -31q-85 -45 -155 -46h-4q-67 1 -117 27q-51 28 -78 78q-23 43 -23 93v17q4 60 42 122.5t120 114.5q68 45 154 86t173 86 t171 98t149 121l17 22q10 12 22 23l2 2v-2q20 14 44 14t39.5 -11t19.5 -30.5t-15 -44.5q-82 -117 -151.5 -265t-136 -301t-135 -297t-148.5 -253q41 -41 92 -71q42 -25 103 -24q12 0 26 1q49 4 97.5 30.5t89.5 59.5t71.5 64.5t42.5 50.5q12 18 34 19t40.5 -8t26.5 -25 q3 -6 3 -13q0 -11 -9 -23q-20 -27 -61.5 -73.5t-95.5 -93t-118.5 -80t-132.5 -33.5q-102 0 -169 33.5t-120 93.5q-59 -59 -126.5 -92t-147.5 -33q-82 0 -124.5 27.5t-56.5 69.5zM170 129q14 -10 45 -10q90 0 172 86q-51 35 -107 36h-4q-54 0 -88 -28q-16 -13 -26 -29 q-8 -14 -8 -26q0 -17 16 -29zM338 771q-5 -18 -6 -34q0 -25 14 -45q22 -33 71 -42q11 -2 23 -2q42 0 95 24q47 23 99 60.5t83 78.5q33 76 67.5 149.5t69.5 145.5q-61 -43 -123.5 -78t-121 -63.5t-108.5 -54t-89 -52.5q-60 -41 -74 -87z" />
<glyph unicode="M" horiz-adv-x="1583" d="M10 250q8 88 48 134t92 66q45 17 87 16h13q49 -3 78 -13q27 -12 38 -33t8 -39.5t-18.5 -28.5t-40.5 0q-24 9 -46 9q-15 0 -27 -4q-32 -11 -53 -36.5t-27 -60.5q-2 -12 -2 -24q0 -22 7 -42q11 -32 43 -53.5t89 -21.5q80 0 147.5 63.5t131 169t123 238.5t123 273.5 t131 275.5t147.5 241q18 27 46 34q13 3 25 3q13 0 25 -4q22 -8 28.5 -29.5t-14.5 -52.5q-14 -20 -35.5 -71.5t-47 -121t-50 -152.5t-43.5 -166q-18 -84 -28 -160q-8 -55 -8 -102q0 -18 1 -34q57 88 121 181.5t127.5 182.5t123 172t108.5 147.5t85 108.5t52 58 q25 20 53.5 25.5t48.5 -2.5q21 -7 25 -29q1 -3 1 -7q0 -20 -22 -48q-109 -154 -192.5 -302.5t-144 -280.5t-96.5 -243.5t-47 -192.5q-5 -34 -5 -61q-1 -39 9 -66q16 -46 59 -46q14 0 35.5 7t46 19.5t48 29t42.5 34.5q37 37 56 58.5t48 56.5q12 18 33.5 19t39 -8t26 -25.5 t-6.5 -35.5q-18 -25 -53 -66.5t-90 -94.5q-35 -33 -63.5 -55.5t-57.5 -37t-59.5 -20.5t-67.5 -6q-82 0 -124 45t-55 117q-7 39 -7 83q0 37 5 79q11 90 36 182q-23 -41 -61 -107.5t-79 -136.5t-78.5 -130t-58.5 -87q-20 -27 -43.5 -36t-42 -5t-27 20.5t0.5 42.5 q8 27 24.5 82.5t33.5 127t29.5 154.5t14.5 165q-78 -182 -151.5 -298t-145.5 -181.5t-139.5 -90t-128.5 -24.5t-114.5 19.5t-91.5 52.5q-37 34 -57 80q-15 36 -15 75q0 13 1 25z" />
<glyph unicode="N" horiz-adv-x="1409" d="M14 250q8 88 49 134t91 66q44 17 87 16h13q49 -3 78 -13q27 -12 38 -33t9 -39.5t-17.5 -28.5t-39.5 0q-24 9 -46 9q-15 0 -28 -4q-33 -11 -54.5 -36.5t-27.5 -60.5q-2 -12 -2 -23q0 -23 8 -43q12 -32 44 -53.5t87 -21.5q80 0 150.5 61.5t137 161.5t131 230t131.5 266.5 t137.5 269.5t150.5 240q20 27 49 35t52.5 -0.5t34.5 -31t-5 -55.5q-10 -23 -27.5 -82t-37 -141t-39 -179t-35 -198.5t-26.5 -198t-11 -175.5q57 100 117.5 212.5t126 224t136 216t149.5 191.5t165 147.5t184 85.5q12 2 22 2q26 1 44 -13q24 -20 30 -48q2 -8 1 -15 q-1 -20 -11 -40q-14 -28 -51 -34q-133 -23 -244.5 -134t-219 -279t-219.5 -375t-243 -422q-29 -47 -57 -47q-6 0 -12 2q-34 12 -43 67q-6 40 -6 111q0 27 1 58q3 114 16 249t37.5 270.5t59.5 233.5q-55 -109 -109.5 -224.5t-110.5 -225t-116.5 -208t-130 -171t-148.5 -115.5 t-171 -43q-61 0 -114.5 19.5t-91.5 52.5q-37 34 -57 80q-16 39 -17 82q0 9 1 18z" />
<glyph unicode="O" horiz-adv-x="1099" d="M42 452q11 142 91 312q82 178 188.5 311t224.5 217t238 116q65 17 126 17q52 0 102 -12q14 -4 18 -14t2 -19q18 4 59 -11t76 -56q66 -80 71 -209q1 -14 0 -29q0 -117 -35 -247q-40 -146 -119.5 -294.5t-184 -268.5t-228.5 -194.5t-253 -74.5q-125 0 -214 56.5t-131 157.5 q-33 80 -33 186q0 27 2 56zM186 474q-2 -28 -3 -53q1 -74 21 -133q28 -79 87 -123t139 -44q86 0 173 57.5t167 150.5t146.5 209.5t110.5 236.5q45 119 59 229q6 42 5 80q0 60 -14 108q-10 37 -31.5 45t-44 5t-44 -12t-33.5 -9q-10 0 -16.5 9t-11.5 21.5t-7 25.5t-4 23 q-74 -8 -161 -53t-173 -122.5t-164 -183t-135 -232.5q-56 -127 -66 -235z" />
<glyph unicode="P" horiz-adv-x="1146" d="M10 250q6 88 47 134t91 66q44 17 88 16h13q50 -3 79 -13q27 -12 38 -33t8 -39.5t-18.5 -28.5t-40.5 0q-24 9 -46 9q-15 0 -27 -4q-32 -11 -53 -36.5t-27 -60.5q-2 -12 -2 -24q0 -22 7 -42q11 -32 43 -53.5t89 -21.5t108.5 33.5t98.5 94t92 141.5t88 173q-84 -49 -165 -67 q-46 -10 -87 -9q-32 -1 -62 5q-68 14 -121.5 58t-80.5 118q-18 45 -18 96q0 30 6 64q18 88 75.5 178t152.5 169.5t224 135.5q125 53 251 69q60 7 117 7q62 0 120 -9l4 4q18 27 45 34q14 4 26 4q13 0 23 -4q22 -7 29.5 -27.5t-8.5 -47.5q61 -18 110 -51t78 -80 q37 -64 36 -140v-18q-5 -86 -50 -176t-126 -174t-192 -147q-72 -43 -147.5 -69.5t-149.5 -39.5q-47 -96 -99 -177t-112.5 -141t-129 -94t-148.5 -34q-61 0 -113.5 19.5t-90.5 52.5q-37 34 -57 80q-16 39 -17 82q0 9 1 18zM308 688q20 -48 62 -66q28 -12 64 -12q17 0 37 2 q59 8 120.5 37t119 75t94.5 101q51 115 105.5 227.5t115.5 213.5q-14 1 -29 1q-75 1 -169 -17q-112 -20 -218 -74t-189 -141t-112 -214q-10 -43 -10 -76q-1 -33 9 -57zM846 586q70 14 139 55q80 47 144.5 113.5t103.5 138.5q39 71 48 141q2 16 2 32q0 50 -23 89 q-16 29 -46 48.5t-65 31.5q-86 -145 -157.5 -315t-145.5 -334z" />
<glyph unicode="Q" horiz-adv-x="1290" d="M9 294q-2 6 -2 12q0 12 9 22q23 23 52.5 44t64.5 40q2 78 23.5 166t68.5 186q82 178 189.5 311t225.5 217t238 116q64 17 126 17q52 0 102 -12q14 -4 18 -14t2 -19q18 4 59.5 -11t76.5 -56q49 -61 64 -151q8 -46 8 -95t-8 -103q-15 -106 -55 -220.5t-100.5 -224 t-138.5 -208t-166 -170.5q25 -10 56 -17q19 -4 41 -4q13 0 26 1q49 4 96.5 30.5t88 59.5t71.5 64.5t45 50.5q12 18 34 19t39 -8t25 -25q4 -6 4 -13q0 -11 -10 -23q-20 -27 -60 -73.5t-94 -93t-119 -80t-132 -33.5q-72 0 -126 17.5t-99 49.5q-59 -33 -119 -50t-121 -17 q-143 0 -239.5 72.5t-127.5 203.5q-18 -12 -30 -24q-16 -14 -39 -8t-41.5 20t-25.5 34zM276 463q33 6 68 6q63 0 122.5 -26.5t113 -65.5t97.5 -83t75 -77q66 53 128 130t115.5 164t94 181t65.5 185.5t30 172.5q1 16 1 32q0 61 -15 110q-10 37 -31.5 45t-44 5t-44 -12 t-33.5 -9q-20 0 -32.5 28.5t-8.5 50.5q-74 -8 -160 -53t-172 -122.5t-165 -183t-136 -232.5q-31 -68 -47 -129.5t-21 -116.5zM283 338q20 -102 83.5 -159.5t155.5 -57.5q61 0 127 31l-54.5 54.5t-70.5 60t-82 51t-88 26.5q-10 1 -20 1q-25 0 -51 -7z" />
<glyph unicode="R" horiz-adv-x="1304" d="M14 250q6 88 47 134t91 66q44 17 88 16h13q50 -3 79 -13q27 -12 38 -33t8 -39.5t-18.5 -28.5t-40.5 0q-24 9 -46 9q-15 0 -27 -4q-32 -11 -54 -36.5t-28 -60.5q-2 -12 -2 -23q0 -23 8 -43q12 -32 44 -53.5t89 -21.5t108.5 33.5t98.5 94t92 141.5t88 173q-84 -49 -165 -67 q-46 -10 -88 -9q-33 -1 -63 5q-70 14 -121.5 58t-80.5 118q-18 45 -18 96q0 30 6 64q18 88 76.5 178t153.5 169.5t224 135.5q125 53 251 69q60 7 116 7q62 0 119 -9l4 4q18 27 46 34q14 4 26 4q14 0 24 -4q22 -7 29.5 -27.5t-8.5 -47.5q59 -18 109 -51t79 -80 q37 -64 37 -140q0 -8 -1 -18q-5 -86 -50 -176t-126 -174t-192 -147q-35 -20 -70.5 -37.5t-70.5 -30.5q35 -59 41 -120.5t7 -113.5t7 -88t41 -42q7 -1 14 -1q35 0 73 26q46 30 81 65q37 37 57.5 58.5t47.5 56.5q12 18 33.5 19t40 -8t26.5 -25.5t-6 -35.5q-20 -25 -55 -66.5 t-89 -94.5q-35 -33 -63.5 -55.5t-57 -37t-59.5 -20.5t-67 -6q-70 0 -102 27.5t-43 70.5q-10 39 -10 88v8v36q0 35 -1 67q-2 49 -16.5 90t-55.5 59q-49 -94 -101 -175t-111.5 -141t-128 -94t-148.5 -34q-61 0 -113.5 19.5t-90.5 52.5q-37 34 -57 80q-16 39 -17 82q0 9 1 18z M312 688q20 -48 62 -66q28 -12 64 -12q17 0 36 2q58 8 119.5 36t118 73t95.5 100q53 117 107.5 230.5t113.5 214.5q-14 1 -29 1q-75 1 -169 -17q-112 -20 -217 -74t-188 -141t-112 -214q-10 -43 -10 -76q-1 -33 9 -57zM850 588q33 6 67.5 18t69.5 35q82 47 146.5 113.5 t103.5 138.5q39 71 47 141q2 15 2 29q0 52 -24 92q-16 29 -45 47.5t-64 30.5q-86 -143 -157.5 -312t-145.5 -333z" />
<glyph unicode="S" horiz-adv-x="813" d="M12 260q-1 13 -1 26q-1 58 21 108q26 62 68 85q29 18 54.5 6t41 -36.5t15.5 -54t-23 -48.5q-23 -18 -28.5 -44t1.5 -52.5t29.5 -52t59.5 -41.5q53 -26 106 -26h4q54 1 97 22.5t69.5 59.5t26.5 87q0 55 -35 94t-83 74t-99 73t-82 92t-31 131t53 191q55 119 145.5 222.5 t200.5 167.5q111 66 233 80q24 3 49 2q97 0 190 -46q62 -31 74 -93q4 -20 4 -41q0 -46 -17 -99q-25 -78 -76 -161t-112.5 -155.5t-122 -126t-103.5 -69.5q-27 -10 -49 0t-34.5 26.5t-12.5 35t17 26.5q35 18 85 62t99 99.5t94 117.5q46 62 72 118q28 58 27 102q0 42 -33 62 q-45 25 -95 25h-15q-58 -4 -118.5 -30t-119 -71t-109.5 -97t-91 -108.5t-63 -105.5q-28 -58 -28 -103q-1 -15 3 -29q12 -54 50.5 -97t91.5 -81t100 -80q47 -41 75 -95q21 -39 21 -91q0 -18 -3 -38q-12 -86 -60.5 -148.5t-117 -97.5t-150.5 -41q-14 -1 -29 -1q-67 0 -133 23 q-102 35 -149.5 102.5t-53.5 139.5z" />
<glyph unicode="T" horiz-adv-x="917" d="M8 250q6 88 47 134t91 66q44 17 88 16h13q50 -3 79 -13q27 -12 38 -33t8 -39.5t-18.5 -28.5t-40.5 0q-24 9 -46 9q-15 0 -27 -4q-32 -11 -53 -36.5t-27 -60.5q-2 -12 -2 -23q0 -23 8 -43q12 -32 44 -53.5t87 -21.5q72 0 134.5 53t120.5 142t112.5 205t110.5 242 t115.5 253t125.5 237q-154 51 -274 59q-29 2 -55 1q-84 1 -148 -17q-84 -24 -131.5 -67t-53.5 -90q-1 -9 -1 -18q-1 -35 19 -51q24 -22 60 -26q12 -2 24 -1l46 5q35 8 49 19q14 10 34.5 4t36 -21.5t19.5 -35t-14 -37.5t-58.5 -32.5t-86.5 -19.5q-21 -2 -42 -2q-26 0 -52 3 q-48 6 -85 29.5t-57 67.5q-15 32 -15 76q0 17 2 36q12 100 92.5 167.5t198.5 97.5q86 21 187 21q37 0 77 -3q146 -11 289 -68l23 32q20 27 48 34t49.5 -1t28.5 -29.5t-14 -52.5l-12 -18q72 -15 134 -15q58 0 108 14q102 28 174 91q14 14 43 15h6q27 0 47 -8q24 -10 33 -28 q3 -6 3 -13q0 -14 -13 -30q-37 -41 -96.5 -76.5t-137.5 -55t-170 -21.5h-13q-86 0 -181 24q-68 -119 -128.5 -254t-120 -270t-121.5 -259t-134 -219t-157 -152.5t-189 -57.5q-61 0 -114.5 19.5t-91.5 52.5q-37 34 -57 80q-16 39 -17 82q0 9 1 18z" />
<glyph unicode="U" horiz-adv-x="1124" d="M17 236q3 108 47.5 248.5t124 292t193.5 301t255 278.5q23 23 53.5 20.5t54 -16.5t31.5 -35.5t-12 -38.5q-86 -68 -175 -176.5t-167 -234t-140 -253.5t-94 -234q-31 -99 -30 -166v-8q2 -69 51 -75q6 -1 13 -1q56 0 121 46q73 52 143.5 130.5t135 168.5t109.5 162 q35 86 82 182.5t102.5 192.5t116.5 187t127 167q20 25 50 30q11 2 20 2q17 0 31 -6q20 -10 26 -32q1 -4 1 -9q0 -20 -19 -46q-109 -139 -193 -280.5t-144.5 -274.5t-96.5 -249q-38 -116 -48 -202q-4 -36 -3 -66q-1 -41 7 -70q14 -50 58 -50q14 0 35.5 7t46 19.5t49.5 29 t43 34.5q35 37 55.5 58.5t46.5 56.5q12 18 34 19t40.5 -8t26.5 -25.5t-6 -35.5q-20 -25 -55.5 -66.5t-90.5 -94.5q-35 -33 -63.5 -55.5t-57 -37t-59.5 -20.5t-68 -6q-57 0 -95 24.5t-60 65.5q-21 42 -28 96q-4 35 -4 71q0 21 1 44q-45 -57 -97.5 -110.5t-110.5 -95.5 t-120.5 -67.5t-126.5 -25.5q-90 0 -130 66q-37 61 -37 158v14z" />
<glyph unicode="V" horiz-adv-x="864" d="M17 244q3 108 47.5 247.5t124 289t193.5 298t255 277.5q23 23 53.5 20.5t54 -16.5t31.5 -35.5t-12 -38.5q-66 -49 -132.5 -125t-129 -166t-118.5 -187t-101 -192.5t-76 -181.5t-42 -150q-6 -35 -6 -64q0 -23 4 -40q9 -39 46 -41h4q74 0 159 69q87 71 176 183.5t175 252.5 t159.5 277.5t129 257t84.5 193.5q8 20 34 28q20 6 40 7q6 0 14 -1q28 -3 48 -17q14 -10 13 -25q0 -6 -2 -14q-23 -63 -63.5 -156.5t-95 -201t-121 -225.5t-140 -229.5t-153.5 -212t-162 -174t-164 -115.5q-75 -38 -146 -38h-14q-90 4 -130 72q-37 63 -37 160v14z" />
<glyph unicode="W" horiz-adv-x="1325" d="M11 242q7 112 56.5 256.5t134.5 298t200.5 306t256.5 281.5q23 20 53.5 18.5t53 -16t31 -36t-12.5 -37.5q-66 -49 -133 -126t-132.5 -167t-125 -189.5t-107.5 -195.5t-82 -184.5t-48 -156.5q-9 -43 -10 -74q0 -19 4 -35q8 -42 45 -46q7 -1 14 -1q29 0 61 14 q38 18 80.5 48.5t83.5 73.5t82 93q27 100 78 217.5t124 244.5t164 261.5t195 265.5q18 23 51 30q20 4 39 4q12 0 25 -2q31 -4 48 -19t3 -38q-66 -76 -145.5 -189.5t-156.5 -242.5t-143.5 -259t-107.5 -238q-41 -106 -48 -178q-1 -10 -1 -19q0 -55 39 -66q9 -2 19 -2 q35 0 79 27q56 35 119.5 102.5t131 160.5t135 197.5t130 214t115.5 210t93 184.5t63 139q7 20 35 28q20 6 41 7l15 -1q28 -3 46 -17q13 -10 12 -25q0 -7 -2 -14q-31 -84 -92 -219.5t-144 -287t-182.5 -305t-207.5 -275.5q-108 -123 -218 -197q-102 -69 -198 -68h-15 q-76 4 -114.5 44t-46.5 112q-72 -68 -155 -112t-169 -44q-90 0 -128 66q-32 56 -32 145q0 16 1 33z" />
<glyph unicode="X" horiz-adv-x="1542" d="M25 250q8 88 48 134t90 66q43 17 87 16h13q50 -3 79 -13q27 -12 38 -33t8 -39.5t-17.5 -28.5t-38.5 0q-24 9 -46 9q-15 0 -29 -4q-34 -11 -54.5 -36.5t-26.5 -60.5q-2 -12 -2 -24q0 -22 8 -42q12 -32 43 -53.5t88 -21.5q76 0 168 47t192.5 126t206 184.5t210.5 221.5 q6 102 10 202q2 40 2 77q0 56 -4 108q-6 86 -25.5 153t-58.5 105q-16 14 -4 31t36.5 24t55.5 4t49 -28q31 -41 49.5 -95t27.5 -120.5t10 -140.5q0 -15 1 -30q0 -60 -4 -120q117 141 219 273.5t180 238.5q20 27 48 34q13 3 25 3q13 0 25 -4q22 -7 28 -29q2 -6 2 -12 q0 -18 -15 -41q-98 -141 -234.5 -321.5t-293.5 -360.5q-9 -103 -17 -195q-5 -66 -6 -121q0 -23 1 -43q3 -72 19.5 -117.5t55.5 -51.5q6 -1 13 -1q34 0 72 26q46 30 83 65q37 37 56 58.5t46 56.5q14 18 35.5 19t39 -8t26 -25.5t-6.5 -35.5q-18 -25 -53 -66.5t-90 -94.5 q-35 -33 -63.5 -55.5t-57.5 -37t-59.5 -20.5t-67.5 -6q-63 0 -99 40t-52.5 107.5t-18.5 157.5q-1 30 -1 61q0 63 3 132q-98 -104 -199.5 -194.5t-200.5 -157t-193.5 -105.5t-180.5 -39q-61 0 -114.5 19.5t-91.5 52.5q-37 34 -57 80q-16 37 -16 79q0 10 1 21z" />
<glyph unicode="Y" horiz-adv-x="983" d="M10 250q6 82 43 130t86 70.5t101 23.5h10q46 0 80 -9q76 -23 121 -72t86 -106q49 72 96 164t94 196q-55 -41 -121.5 -65.5t-144.5 -24.5q-47 0 -94.5 23.5t-79 68.5t-37.5 113q-1 9 -1 19q0 61 31 137q35 90 121 199.5t242 238.5q31 26 61 26h4q31 -2 52.5 -17t26 -38.5 t-18.5 -40.5q-123 -90 -208 -189.5t-124 -185.5q-31 -68 -31 -118q0 -14 3 -26q10 -58 77 -67q10 -1 21 -1q61 0 122 40q70 47 131.5 115t107.5 139.5t71 112.5q37 76 77 145.5t85 128.5q20 27 49 34q14 3 25 3q14 0 26 -4q21 -8 28 -29q2 -6 2 -12q0 -18 -16 -41 q-86 -121 -157.5 -275.5t-141 -313t-141.5 -306t-158 -254.5q23 -25 45.5 -41t49.5 -20h5q39 0 82 27q46 28 81 63q37 37 57 58.5t47 56.5q12 18 33.5 19t40 -8t27 -25.5t-6.5 -35.5q-20 -25 -55 -66.5t-88 -94.5q-35 -33 -64.5 -55.5t-58.5 -37t-58.5 -20.5t-66.5 -6 q-47 0 -83 28.5t-68 71.5q-55 -47 -116 -72.5t-130 -25.5q-61 0 -114.5 19.5t-91.5 53t-57 79.5q-17 39 -17 82q0 9 1 18zM162 252q-1 -8 -1 -16q0 -24 9 -46q12 -30 44 -50.5t85 -20.5q45 0 85 20.5t79 57.5q-18 25 -34.5 50t-36 47.5t-43 40t-54.5 23.5q-13 3 -26 3 q-21 0 -39 -9q-29 -14 -46.5 -40.5t-21.5 -59.5z" />
<glyph unicode="Z" horiz-adv-x="1075" d="M18 95q-6 19 -5 40q-1 24 7 49q14 47 50 84q31 33 79 55.5t103 27.5q16 1 32 1q40 0 80 -8q56 -12 105 -47q66 86 133.5 195.5t142.5 232.5q-104 -40 -194 -40q-25 0 -47 3q-108 14 -174 71.5t-82 148.5q-3 20 -3 41q0 73 42 155q51 102 124.5 157.5t159.5 78.5 q87 24 181 26q47 1 94 1t94 -1q38 -1 75 -1q57 0 111 2q92 3 168 30q23 11 47 11h3q26 -2 42 -12q17 -11 16 -28q0 -16 -24 -37q-135 -115 -243.5 -263t-204.5 -304t-185.5 -302.5t-183.5 -254.5q39 -39 89 -65q41 -22 97 -22q13 0 27 1q49 4 97.5 30.5t89 59.5t71.5 65 t43 50t33.5 19t40 -8t27 -25.5t-6.5 -35.5q-20 -27 -61 -73.5t-94 -93t-118 -80t-132 -33.5q-102 0 -168 31.5t-119 91.5q-63 -57 -132 -89t-146 -32q-80 0 -124.5 27.5t-56.5 69.5zM148 154q2 -14 16 -24.5t47 -10.5q45 0 88 21.5t84 62.5q-51 35 -107 37h-8q-52 0 -86 -27 q-16 -13 -26 -29q-8 -13 -9 -25q1 -2 1 -5zM398 928q8 -49 44 -75t94 -31q15 -1 30 -1q44 1 92 11q64 14 126 45.5t109 78.5q55 82 115.5 159t128.5 145q-65 -14 -133 -14q-14 0 -27 -1q-53 0 -107 2q-27 1 -53 1q-39 0 -79 -2q-64 -3 -121.5 -21.5t-106.5 -60t-84 -115.5 q-29 -59 -29 -103q0 -9 1 -18z" />
<glyph unicode="[" horiz-adv-x="530" d="M-143 -172q6 14 31.5 64.5t64.5 124t85 162.5t93 180.5t93 178.5t81 154.5t56.5 109.5t23.5 46q12 23 42 37t60 16q25 2 65 2t83 -1t84 -1h69q31 0 37 -17.5t-4 -39t-32.5 -41t-49.5 -19.5q-70 -4 -115.5 -2t-91.5 6q-23 -43 -64.5 -115.5t-91.5 -159.5t-104.5 -181 t-105.5 -181.5t-94 -160t-70 -115.5q53 0 122 -2t116 0q31 0 37 -17.5t-4.5 -39t-33 -41t-49.5 -19.5q-55 -2 -89.5 -1t-64.5 3t-61.5 3t-80.5 1q-25 0 -35 11q-18 14 -2 55z" />
<glyph unicode="\" horiz-adv-x="565" d="M27 866q-10 31 6 41.5t39.5 7t48.5 -19.5t35 -41q10 -35 36.5 -118t60.5 -189.5t71.5 -224t71.5 -223t59.5 -185.5t36.5 -111q10 -33 -5.5 -44t-40 -6t-50 23.5t-34.5 43.5q-6 16 -31.5 94t-60 188.5t-74.5 237.5t-76 237.5t-61.5 190.5t-31.5 98z" />
<glyph unicode="]" horiz-adv-x="555" d="M-292 -221.5q-3 16.5 12.5 37t43 38t56.5 19.5q41 4 104.5 2t118.5 -2q20 41 56 110.5t81 155.5t93.5 179.5t94.5 180.5t85 161.5t63 121.5q-59 2 -106.5 5.5t-118.5 3.5q-35 0 -38 16t12.5 36.5t43 38t56.5 19.5q23 2 58.5 2t75.5 -1t78.5 -1h67.5h27q6 0 14 -4 q23 -4 33 -18.5t4 -38.5q-2 -4 -27.5 -50.5t-66.5 -119t-93.5 -162.5t-106.5 -184.5t-106.5 -184.5t-94.5 -160.5t-68.5 -115.5t-28.5 -47l-16 -15q-29 -41 -72 -45q-55 -2 -90 -1t-64.5 3t-61.5 3t-81 1q-35 0 -38 16.5z" />
<glyph unicode="^" horiz-adv-x="485" d="M117 503.5q-2 20.5 30 49.5q10 8 46 42t80 69.5t88 63.5t69 24q31 -4 47.5 -34t23.5 -66t8 -69.5t-1 -47.5q-4 -25 -22.5 -43.5t-41 -24.5t-44 3t-29.5 40q0 6 4 25.5t7 42t4 42t-7 27.5q-14 -12 -31.5 -36.5t-37 -51.5t-39 -50.5t-35.5 -31.5q-20 -12 -49 -12t-48.5 9 t-21.5 29.5z" />
<glyph unicode="_" horiz-adv-x="462" d="M-147.5 -160.5q-6.5 17.5 5 40t36 41t53.5 20.5q25 2 74 2t103 -1t104.5 -1h78.5q31 0 37 -17.5t-4 -39t-32.5 -41t-49.5 -19.5q-55 -2 -100 -2h-88h-85h-91q-35 0 -41.5 17.5z" />
<glyph unicode="`" horiz-adv-x="536" d="M41 856q0 23 17.5 43.5t46 31.5t57.5 5q6 -2 38.5 -15.5t75.5 -30t88.5 -33.5t75.5 -26q33 -10 41 -22t-1 -23.5t-31.5 -18.5t-53.5 -7q-6 0 -55 7t-105.5 17.5t-105.5 20.5t-57 14q-31 14 -31 37z" />
<glyph unicode="a" horiz-adv-x="649" d="M-43 198q6 62 47 136q39 74 93.5 128t109.5 89t107.5 51t91.5 16q27 0 46 -7t35 -17t31 -25q12 25 41 36t54.5 8t39 -19t-3.5 -45q-16 -33 -40.5 -81t-51.5 -98.5t-50.5 -94.5t-37.5 -64q-12 -23 -9 -32t17.5 -8t32.5 11.5t37 28.5q35 37 56 58.5t46 56.5q14 18 36 19 t40 -8q19 -9 27 -25q3 -6 3 -13q0 -11 -10 -23t-27.5 -35.5t-41 -50t-50 -55.5t-55.5 -53q-55 -50 -98 -68q-39 -17 -69 -16h-6q-32 2 -55.5 20.5t-39.5 42.5q-33 -20 -70.5 -42.5t-113.5 -22.5q-53 0 -92 24.5t-57 69.5q-14 34 -14 78q0 15 1 30zM108 171q4 -26 19 -38 q10 -9 28 -9q6 0 12 1q26 4 56.5 22.5t62 49t62.5 71.5q31 39 50.5 79t28.5 74q7 28 7 50v9q-2 26 -18 38q-11 8 -28 8q-7 0 -14 -1q-26 -5 -55.5 -23.5t-61.5 -49t-62 -69.5q-31 -41 -51 -80t-30 -73q-7 -24 -7 -44q0 -8 1 -15z" />
<glyph unicode="b" horiz-adv-x="641" d="M-112 30q-7 12 -7 26q0 17 10 38l443 948q8 20 34 26q12 3 24 2l26 -3q26 -6 41.5 -22.5t5.5 -40.5l-189 -426q54 35 110 40q9 1 17 1q45 0 80 -23q37 -25 55 -68q16 -39 15 -87v-11q-2 -55 -22.5 -116.5t-59.5 -120.5q-10 -16 -21.5 -31t-21.5 -27q39 18 90 58 q47 35 71.5 66.5t51.5 66.5q14 18 35.5 19t39.5 -8t26 -25q3 -6 3 -13q0 -11 -10 -23q-20 -27 -60 -70.5t-95 -96.5q-43 -39 -95.5 -64t-105.5 -37t-103 -14q-16 -1 -31 -1q-30 0 -55 3q-51 0 -84 22q-35 23 -51 62l-22 -49q-14 -29 -44 -37q-14 -4 -28 -4q-15 0 -29 5 q-28 9 -44 35zM136 220q-3 -19 -3 -34q0 -42 23 -59q12 -9 28 -9q25 0 60 21q59 35 112 115q27 39 46 79q18 41 25 75q5 24 5 44q0 9 -1 16q-3 26 -17 36q-11 7 -27 7q-6 0 -14 -1q-25 -4 -54.5 -21.5t-60.5 -48t-57 -69.5q-53 -81 -65 -151z" />
<glyph unicode="c" horiz-adv-x="518" d="M-28 213q3 41 14.5 80t29.5 72q39 68 91.5 120t108.5 84.5t114 40.5q18 2 36 2q38 0 72 -12q44 -18 50 -55q1 -9 2 -19q0 -29 -12 -60q-16 -42 -47.5 -80t-55.5 -58q-23 -18 -46.5 -16.5t-40 15t-22.5 32t8 30.5q14 14 35 34.5t35 40t16 33t-18 13.5t-47 -15.5t-55.5 -43 t-57 -64.5t-53.5 -80q-26 -47 -27 -85q0 -7 2 -13q6 -43 36 -67q27 -21 70 -20h11q51 3 115 42q25 14 51.5 34.5t51 43t45 44t34.5 40.5q12 18 32.5 19t38 -7t25.5 -26q3 -7 4 -14q0 -11 -8 -22q-12 -18 -32.5 -41.5t-47 -50t-56.5 -53.5t-60 -49q-59 -48 -122 -66 q-60 -18 -112 -17h-6q-55 1 -98 18.5t-64 43.5q-25 31 -34 71q-7 30 -7 61q0 10 1 20z" />
<glyph unicode="d" horiz-adv-x="651" d="M-43 198q6 62 47 136q39 74 93.5 128t109.5 89t107.5 51t91.5 16q27 0 46 -7t35 -17t31 -25l18 34q17 34 43.5 84t58.5 110.5t59.5 113t48 90t24.5 46.5q12 18 38 22q10 2 20 2q16 0 30 -4q24 -7 36 -23q7 -9 7 -18t-6 -20q-10 -20 -44 -84t-78 -148t-93 -177t-93 -174 t-76 -139.5t-40 -72.5q-14 -23 -10 -32t17.5 -8t31.5 11.5t37 28.5q37 37 57 58.5t47 56.5q12 18 34 19t40 -8t26.5 -25.5t-6.5 -35.5q-10 -12 -27.5 -35.5t-40 -50t-50 -55.5t-56.5 -53q-55 -50 -98 -68q-39 -17 -69 -16h-6q-32 2 -55.5 20.5t-39.5 42.5 q-33 -20 -70.5 -42.5t-113.5 -22.5q-53 0 -92 24.5t-57 69.5q-14 34 -14 78q0 15 1 30zM108 171q4 -26 19 -38q12 -9 30 -9q6 0 12 1q26 4 55.5 22.5t61 49t62.5 71.5q31 39 50.5 79t28.5 74q7 28 7 50v9q-2 26 -18 38q-11 8 -28 8q-7 0 -14 -1q-26 -5 -55.5 -23.5 t-61.5 -49t-62 -69.5q-31 -41 -51 -80t-30 -73q-7 -24 -7 -44q0 -8 1 -15z" />
<glyph unicode="e" horiz-adv-x="550" d="M-24 236q10 69 42 129q39 68 91.5 120t108.5 84.5t114 40.5q18 2 36 2q38 0 72 -12q46 -18 58 -55q7 -22 7 -44q0 -16 -4 -34q-9 -41 -32.5 -78.5t-48.5 -60.5q-47 -45 -92 -71t-86 -39t-76 -15t-60 0q4 -33 28 -54.5t60 -27.5q14 -2 30 -3q24 0 52 6q46 9 95 40 q25 14 50 34.5t50 43t46.5 44t33.5 40.5q12 18 33.5 19t39 -7t25.5 -26q3 -7 3 -14q0 -11 -7 -22q-12 -18 -33.5 -41.5t-47 -50t-55.5 -53.5t-60 -49q-61 -46 -132 -66q-59 -16 -113 -17q-10 0 -22 1q-64 4 -115 30.5t-71 73.5q-22 47 -22 98q0 17 2 34zM129 305h9 q41 -1 86 15q50 18 95 61q49 47 57 88q1 7 2 13q0 28 -34 28q-20 0 -47 -15.5t-55.5 -43t-57 -64.5t-53.5 -80z" />
<glyph unicode="f" horiz-adv-x="417" d="M-230 -154q-6 11 -6 23q0 18 13 41q14 27 52 96.5t87 161.5t105.5 196.5t106.5 197.5t89 166t55 103q33 63 80 102.5t94 56.5q30 10 58 10q14 0 28 -2q39 -9 60 -40q19 -25 19 -68q0 -8 -1 -16q-4 -55 -47 -133q-37 -66 -82 -122t-94 -103t-99 -85t-93 -64q-1 -15 -1 -29 q0 -31 6 -56q9 -36 27 -53q12 -12 39 -5t56.5 23.5t56.5 38t39 40.5q12 18 33.5 19t40 -8t26.5 -25.5t-6 -35.5q-18 -25 -54 -59.5t-79 -65t-89 -51.5q-38 -17 -72 -17q-7 0 -13 1q-43 4 -69.5 31.5t-31.5 91.5q-35 -68 -67.5 -131.5t-58 -112.5t-42 -83t-22.5 -42 q-16 -29 -47 -35q-11 -2 -21 -2q-19 0 -36 7q-27 12 -40 38zM287 567q35 33 74.5 81t80.5 118q29 49 34 74q2 9 2 15q0 11 -7 11q-10 0 -32.5 -25.5t-51.5 -80.5q-4 -6 -18.5 -35t-32 -61.5t-32.5 -61.5t-17 -35z" />
<glyph unicode="g" horiz-adv-x="649" d="M-133 -209q16 53 50 84t81 52.5t106.5 39t126.5 43.5l5 10q-23 -10 -50.5 -17t-66.5 -7q-53 0 -92 24.5t-57 69.5q-14 34 -14 78q0 14 1 30q6 62 47 136q39 74 93.5 128t109.5 89t107.5 51t91.5 16q27 0 46 -7t35 -17t31 -25q12 25 41 36t54.5 8t39 -19t-3.5 -45 q-16 -33 -41.5 -81t-52.5 -97t-50.5 -93.5t-35.5 -66.5l-53 -105q61 41 131 105q39 33 58.5 56.5t43.5 58.5q14 18 36 19t40 -8t27 -25q3 -6 3 -13q0 -11 -10 -23t-27.5 -35.5t-40 -51t-50 -55.5t-56.5 -52q-47 -39 -110.5 -69.5t-130.5 -57.5l-68 -129q-51 -96 -127 -136 q-72 -38 -136 -38h-7q-66 2 -106 40q-26 25 -26 60q0 18 7 39zM-16 -213q-1 -4 -1 -7q0 -11 11 -16q8 -5 19 -5q8 0 17 3q23 5 51 25t52 61l25 41q-72 -29 -120 -53t-54 -49zM108 171q3 -26 19 -38q11 -9 28 -9q5 0 12 1q26 4 56.5 22.5t62 49t62.5 71.5q31 39 50.5 79 t28.5 74q7 28 7 50v9q-2 26 -18 38q-11 8 -28 8q-6 0 -14 -1q-26 -5 -55.5 -23.5t-61.5 -49t-62 -69.5q-31 -41 -51.5 -80t-29.5 -73q-7 -24 -7 -44q0 -8 1 -15z" />
<glyph unicode="h" horiz-adv-x="563" d="M-112 30q-7 12 -7 26q0 17 10 38l443 948q8 20 34 26q12 3 24 2l26 -3q26 -6 41.5 -22.5t5.5 -40.5q-6 -12 -24.5 -55.5t-47 -106t-62.5 -140t-71 -159.5q55 49 97 65q33 13 58 13q7 -1 13 -1q29 -4 48.5 -24.5t31.5 -46.5q11 -22 11 -46q0 -22 -9 -45q-18 -50 -53 -114 q-23 -45 -46.5 -85t-50.5 -83q-12 -23 -11 -30t10.5 -5t21.5 9.5t22 15.5q47 35 91.5 80t68.5 80q14 18 36 19t40 -8q19 -9 27 -25q3 -6 3 -13q0 -11 -10 -23t-28.5 -35.5t-41 -50t-49 -55.5t-55.5 -53q-55 -50 -99 -68q-42 -18 -74 -17h-4q-34 1 -56.5 19.5t-34.5 44.5 q-11 23 -11 50q0 19 6 41q15 50 50 116q8 16 20.5 39t26 46.5t24.5 45t21 35.5q12 23 9 30t-13 5t-25.5 -9t-25.5 -16q-33 -23 -65.5 -48t-61.5 -54l-139 -311q-14 -29 -44 -37q-14 -4 -28 -4q-15 0 -29 5q-28 9 -44 35z" />
<glyph unicode="i" horiz-adv-x="342" d="M-76 81q-3 15 -4 31q0 78 70 195q18 31 38.5 69t42 74.5t41 69.5t33.5 55q18 29 47 37.5t52.5 0t36 -28t-4.5 -45.5q-23 -39 -51 -91.5t-51 -93.5t-44 -77.5t-34.5 -67.5t-18.5 -52.5t5 -29.5q10 -10 29.5 -5t42 19.5t45 33t41.5 36.5q35 37 55 58.5t47 56.5 q12 18 33.5 19t40 -8t26.5 -25q3 -6 4 -13q0 -11 -10 -23q-20 -27 -54 -67.5t-89 -93.5q-35 -33 -63.5 -55.5t-57.5 -37t-59.5 -20.5t-67.5 -6q-103 0 -121 85zM243 721q-2 4 -2 10q0 14 13 35q6 12 18.5 31.5t22.5 36.5q16 26 45 30q10 2 20 1q18 0 34 -5q24 -8 36 -28 q5 -9 5 -20q0 -14 -9 -30q-10 -16 -26.5 -32.5t-26.5 -24.5q-27 -17 -55 -23q-17 -4 -31 -3q-9 -1 -17 1q-20 4 -27 21z" />
<glyph unicode="j" horiz-adv-x="260" d="M-452 -287q-11 18 -11 39q0 26 19 58q23 39 52.5 66.5t64 49t74.5 39t85 37.5q45 84 93 176t89 173t72 140.5t41 77.5q12 23 41 34t54.5 8t38.5 -18t-1 -44q-16 -33 -43 -81t-53.5 -97t-50 -93.5t-35.5 -66.5l-55 -105q33 23 65.5 47.5t67.5 57.5q39 33 58 56.5t46 58.5 q12 18 33.5 19t40 -8t27 -25.5t-6.5 -35.5q-10 -12 -27.5 -35.5t-40 -51t-49 -55t-57.5 -52.5q-57 -45 -121.5 -80t-128.5 -63l-61 -113q-51 -96 -119 -131q-57 -30 -105 -30q-9 0 -17 1q-54 6 -80 47zM-332 -237q3 0 6 1q11 5 28 24t42 60q4 4 4 5q-63 -33 -80 -64 q-6 -11 -6 -18q0 -8 6 -8zM221 721q-2 4 -2 10q0 14 12 35q6 12 18.5 31.5t22.5 36.5q16 25 45 30q10 1 20 1q18 0 33 -5q25 -8 37 -28q5 -9 5 -20q0 -13 -9 -30q-10 -16 -26.5 -32.5t-26.5 -24.5q-27 -16 -54 -23q-17 -3 -31 -3q-9 0 -17 1q-21 5 -27 21z" />
<glyph unicode="k" horiz-adv-x="604" d="M-112 30q-6 11 -7 25q0 17 10 39q12 29 46 100.5t78 166t93.5 201t93.5 202.5t79 170.5t49 107.5q8 20 34 26q13 3 26 2q14 0 26 -3q26 -6 41.5 -22.5t5.5 -40.5l-178 -406l14 10q70 44 133 45q4 0 8 -1q68 -3 108 -38.5t40 -97t-62 -131.5q-29 -33 -67.5 -61.5 t-80.5 -52t-85 -40t-78 -22.5q2 -20 10 -39q6 -16 19.5 -30.5t38.5 -20.5q8 -2 20 -3q18 0 47 6q47 9 125 71q47 35 75 66.5t54 66.5q12 18 33.5 19t40 -8t26.5 -25q3 -6 4 -13q0 -11 -10 -23q-23 -29 -40 -48t-34.5 -37.5t-37 -37t-45.5 -44.5q-49 -47 -103.5 -75 t-106.5 -37q-28 -5 -54 -5q-23 0 -45 4q-48 8 -82 35q-23 16 -40.5 47t-29.5 61l-49 -108q-14 -29 -44 -37q-14 -4 -28 -4q-15 0 -29 5q-28 9 -42 35zM158 309q66 12 128 48t103 73q37 34 44 60q2 9 2 17q0 13 -8 21q-9 8 -27 8q-8 0 -17 -2q-31 -5 -68 -34 q-41 -33 -81.5 -85.5t-75.5 -105.5z" />
<glyph unicode="l" horiz-adv-x="434" d="M-30 211q5 41 17.5 80t28.5 74q55 123 127 232.5t149 198.5t153.5 154.5t142.5 96.5q40 20 64 20q6 -1 10 -1q24 -6 40 -44q12 -28 12 -62v-13q-2 -42 -27 -94t-74.5 -115.5t-127.5 -137.5q-53 -49 -113.5 -102.5t-113.5 -98.5q-63 -53 -125 -102q-17 -42 -17 -84 q0 -39 16 -63q18 -26 54 -26h1q35 0 89 40q45 35 87.5 81t70.5 81q12 18 33.5 19t39 -8t26 -25.5t-6.5 -35.5q-10 -12 -26.5 -35.5t-39 -50t-50 -55.5t-56.5 -53q-56 -48 -110 -68q-49 -18 -91 -18h-9q-46 2 -82.5 20.5t-57.5 44.5q-25 31 -32 70q-4 23 -4 46q0 17 2 34z M252 532q100 92 176 173q33 33 62.5 67.5t51.5 63.5q22 30 34 54q9 18 9 29q0 4 -1 7q-86 -66 -147.5 -135.5t-102.5 -126.5q-49 -68 -82 -132z" />
<glyph unicode="m" horiz-adv-x="837" d="M-112 30q-6 11 -7 25q0 17 10 39q18 41 50 107.5t66 139.5t65.5 142.5t54.5 118.5q9 18 35 24q12 3 24 2q14 0 28 -4q26 -6 42 -22t6 -41l-14 -33l16 15q57 49 98 65q32 13 58 13q7 -1 13 -1q30 -4 49.5 -24.5t31.5 -46.5l6 -17q4 2 12 11q56 49 98 65q33 13 58 13 q8 -1 14 -1q30 -4 49 -24.5t31 -46.5q11 -22 11 -46q0 -22 -9 -45q-18 -50 -53 -114q-23 -45 -47.5 -85t-48.5 -83q-12 -23 -11 -30t10 -5t21.5 9.5t22.5 15.5q47 35 90 80t70 80q12 18 33.5 19t40 -8t26.5 -25q3 -6 3 -13q0 -11 -9 -23q-10 -12 -27.5 -35.5t-40 -50 t-49.5 -55.5t-55 -53q-58 -50 -102 -68q-42 -18 -74 -17h-4q-34 1 -56 19.5t-35 44.5q-10 22 -10 47q-1 21 7 44q16 50 51 116q8 16 20 39t25.5 46.5t24.5 45t22 35.5q12 23 9 30t-14.5 5t-25.5 -9t-25 -16q-49 -33 -96 -73q-4 -6 -7 -13.5t-7 -13.5q-12 -23 -34.5 -70 t-47.5 -98t-47.5 -98t-34.5 -68q-12 -23 -39 -29q-12 -3 -23 -3q-13 0 -27 4q-24 8 -38 26.5t-2 42.5q8 16 35.5 72.5t58.5 121t57.5 120t36.5 69.5q12 23 9.5 30t-13 5t-26 -9t-25.5 -16q-35 -23 -74 -54.5t-67 -61.5l-129 -297q-14 -29 -45 -37t-58.5 1t-41.5 35z" />
<glyph unicode="n" horiz-adv-x="563" d="M-112 30q-6 11 -7 25q0 17 10 39q18 41 50 107.5t66 139.5t65.5 142.5t54.5 118.5q9 18 35 24q12 3 24 2q14 0 28 -4q26 -6 42 -22t6 -41l-12 -24l8 6q57 49 98 65q32 13 58 13q7 -1 13 -1q30 -4 49.5 -24.5t31.5 -46.5q9 -21 9 -45q0 -22 -8 -46q-17 -50 -52 -114 q-23 -45 -47.5 -85t-49.5 -83q-12 -23 -11 -30t10.5 -5t21.5 9.5t22 15.5q45 35 89.5 80t70.5 80q12 18 33.5 19t39.5 -8t26 -25q3 -7 3 -14q0 -11 -8 -22q-10 -12 -27.5 -35.5t-40 -50t-50 -55.5t-56.5 -53q-55 -50 -99 -68q-42 -18 -74 -17h-4q-34 1 -56.5 19.5 t-34.5 44.5q-11 23 -11 50q0 19 6 41q15 50 50 116q8 16 20.5 39t25.5 46.5t24.5 45t21.5 35.5q12 23 10 30t-13 5t-25.5 -9t-26.5 -16q-33 -23 -67.5 -50t-63.5 -56q-20 -49 -42 -98.5t-40 -92.5t-31.5 -73.5t-19.5 -42.5q-14 -29 -45 -37q-15 -4 -28 -4q-16 0 -30 5 q-28 9 -42 35z" />
<glyph unicode="o" horiz-adv-x="630" d="M-31 187.5q0 56.5 23 119.5q25 63 65.5 119.5t92 98.5t107.5 66.5t112 24.5q55 0 94 -24.5t58.5 -66.5t19.5 -98t-23 -120q-6 -16 -12 -30.5t-14 -28.5h5q29 0 65 20q40 22 69 58q12 18 33.5 19t39 -7t24.5 -26q3 -6 3 -13q0 -11 -8 -23q-16 -25 -48 -55.5t-75 -54 t-91 -32.5q-16 -3 -32 -3q-31 0 -61 12q-59 -66 -132 -104.5t-145 -38.5q-53 0 -92 24.5t-58.5 65.5t-19.5 97.5zM116 193q16 -50 70 -50q27 0 56.5 13.5t57.5 37t50.5 55t38.5 66.5q22 48 22 86q1 19 -5 36q-16 50 -70 50q-27 0 -56.5 -13t-57 -36.5t-52.5 -54.5t-39 -68 q-20 -47 -20 -85q-1 -20 5 -37z" />
<glyph unicode="p" horiz-adv-x="630" d="M-264 -296q-6 12 -6 26q0 18 10 39q12 29 47 101.5t79 166.5t93 200.5t93 203t79 171t49 107.5q8 18 35 25q13 3 26.5 3t26.5 -3q25 -7 40.5 -23t4.5 -41l-43 -98q55 31 108 36q8 1 16 1q42 0 77 -23q37 -25 55 -68q15 -39 15 -87v-11q-2 -55 -22.5 -116.5t-59.5 -120.5 q-10 -16 -21.5 -31t-21.5 -27q43 20 92 58q45 35 69.5 66.5t53.5 66.5q12 18 33.5 19t39 -8t25.5 -25q3 -6 3 -13q0 -11 -9 -23q-18 -27 -59 -70.5t-97 -96.5q-43 -39 -95 -64t-105.5 -37t-102.5 -14q-16 -1 -31 -1q-30 0 -55 3q-51 0 -84 22q-29 16 -49 56 q-31 -68 -58.5 -130.5t-49 -111.5t-37 -83t-19.5 -42q-14 -29 -44 -38q-15 -5 -29.5 -5t-27.5 5q-28 9 -44 35zM113 162q2 -23 18 -33q16 -12 39 -12q5 0 10 1q29 3 58.5 20.5t60 48t59.5 69.5q27 39 43.5 79t22.5 73q4 21 4 38q0 11 -2 21q-4 25 -18 35q-11 7 -28 7 q-7 0 -14 -1q-26 -4 -55.5 -21.5t-62.5 -47t-60 -68.5q-27 -41 -45 -80t-25 -72q-5 -26 -5 -46v-11z" />
<glyph unicode="q" horiz-adv-x="661" d="M-44 198q7 62 48 136q39 74 92.5 128t108.5 89t108.5 51t89.5 16q27 0 48.5 -7t35.5 -17q16 -10 29 -25q12 25 45 36q26 9 50 9q7 0 13 -1q31 -3 48.5 -19t3.5 -45q-16 -33 -43 -81t-53.5 -97t-49 -93.5t-34.5 -66.5l-82 -158l12 10q23 18 57.5 54.5t69.5 77.5t66 77 t43 54t33.5 19t39 -7t25.5 -26q3 -6 3 -14q0 -11 -7 -22q-12 -18 -43 -56t-70 -82t-81 -87t-75 -69q-35 -29 -75.5 -50.5t-81.5 -35.5l-99 -179q-18 -33 -45 -42q-16 -5 -29 -5q-11 0 -21 4q-23 7 -34.5 25t2.5 41q8 14 25.5 48t38 75t42 85t38.5 79q-23 -14 -53.5 -22.5 t-75.5 -8.5q-53 0 -93 24.5t-58 69.5q-14 33 -14 75q0 15 2 33zM106 171q3 -26 19 -38q13 -10 30 -10q28 0 67 25q65 40 126 120q31 39 50.5 79t28.5 74q7 28 7 50v9q-2 26 -18 38q-11 8 -28 8q-6 0 -14 -1q-26 -5 -55.5 -23.5t-61.5 -49t-62 -69.5q-31 -41 -51.5 -80 t-29.5 -73q-8 -26 -8 -48v-11z" />
<glyph unicode="r" horiz-adv-x="530" d="M-5 292q-3 7 -3 13q0 11 8 21q41 47 88 117.5t86 129.5q-25 31 -38 75t-14 89v7q0 41 11 78q12 40 43 65q45 35 86 36h3q39 1 67 -21t42 -63q8 -25 8 -52q0 -16 -3 -33q-4 -27 -20.5 -62t-39.5 -76q25 -6 56 0q33 6 55.5 -3t34.5 -25.5t12 -36t-12 -31.5 q-8 -8 -32.5 -36.5t-56.5 -68.5t-64.5 -85t-56.5 -86t-35 -73t3 -42q13 -11 31 -12q15 0 33 8q41 16 86 50t88 76t69 75q14 16 36 17t39.5 -7t25.5 -24q3 -6 3 -13q0 -11 -9 -23q-31 -43 -87.5 -101t-125.5 -104q-68 -47 -140 -67q-28 -8 -54 -8q-41 0 -79 20q-53 26 -59 84 q-1 11 -1 22q-1 48 21 102q26 66 75.5 134t107.5 115q16 14 17 19.5t-42 21.5q-51 -80 -99 -147.5t-65 -90.5q-16 -20 -37.5 -21t-38 9t-23.5 28zM224 772q-1 -9 -1 -20q0 -13 2 -27q4 -25 17 -47q12 25 22 49.5t14 44.5q2 10 2 19t-2 15q-4 13 -16 13q-16 0 -25.5 -12.5 t-12.5 -34.5z" />
<glyph unicode="s" horiz-adv-x="507" d="M-66 212q18 54 66 114q10 12 32.5 40.5t52.5 65.5t62.5 77t61.5 76t50.5 62.5t31.5 36.5q17 16 43 17h4q24 0 45 -9q23 -10 33 -29.5t-4 -39.5q-29 -41 -59.5 -73t-35.5 -81q-4 -25 7.5 -56.5t22.5 -69.5t15 -82q1 -7 0 -14q0 -38 -16 -81q23 12 39 27q47 35 71.5 66.5 t51.5 66.5q12 18 33.5 19t39 -8t25.5 -25q3 -7 3 -14q0 -10 -7 -22q-20 -27 -54 -68.5t-91 -92.5q-70 -61 -148 -87t-141 -28q-26 -4 -52 -4h-18q-35 2 -64.5 14.5t-52 31.5t-34.5 46q-19 44 -19 81q-1 23 6 43zM47 168q6 -25 23.5 -43.5t41.5 -25.5q8 -2 15 -2q16 0 33 9 q25 16 36 48t11 69t-8.5 75t-20.5 67q-57 -68 -86 -102t-39 -52q-8 -12 -8 -27q0 -8 2 -16z" />
<glyph unicode="t" horiz-adv-x="342" d="M-76 81q-3 15 -4 31q0 78 70 195q10 18 30.5 55t48 84.5t58.5 100.5t59 104q-16 -2 -34.5 -2h-36.5q-43 0 -55.5 17.5t-2 40t37 41t59.5 20.5h42.5t59.5 2l45 74q18 29 47 37q14 4 27 4q15 -1 27 -5q24 -8 35.5 -27t-3.5 -46l-20 -35h57.5t42.5 2q31 0 38 -18q2 -7 1 -13 q0 -11 -6 -25q-10 -22 -32.5 -41.5t-49.5 -19.5l-121 -4l-170 -299q-23 -41 -44 -77.5t-34.5 -67.5t-18.5 -52.5t5 -29.5q10 -10 29.5 -5t41 19.5t44 33t41.5 36.5q37 37 57 58.5t47 56.5q12 18 33.5 19t40 -8t27 -25.5t-6.5 -35.5q-20 -27 -55 -67.5t-88 -93.5 q-35 -33 -63.5 -55.5t-57.5 -37t-59.5 -20.5t-67.5 -6q-103 0 -121 85z" />
<glyph unicode="u" horiz-adv-x="575" d="M-76 81q-3 15 -4 31q0 78 70 195q18 31 38.5 69t42 74.5t41 69.5t33.5 55q18 29 46 37q14 4 27 4q14 0 26 -4q24 -8 35.5 -27.5t-3.5 -45.5q-23 -39 -51 -91.5t-51 -93.5t-44 -77.5t-34.5 -67.5t-18.5 -52.5t5 -29.5q7 -6 17 -5q22 0 60 26q54 40 115 120q23 29 51.5 80 t55.5 101q31 57 63 120q12 25 40 36q22 9 42 9q6 0 12 -1q26 -3 40 -19t-3 -45q-16 -33 -41.5 -81t-52 -98.5t-50 -94.5t-36.5 -64q-12 -23 -9 -32t16.5 -8t33 11.5t37.5 28.5q35 37 55 58.5t47 56.5q12 18 34 19t40.5 -8t26.5 -25q3 -6 3 -13q0 -11 -9 -23 q-10 -12 -27.5 -35.5t-40 -50t-49.5 -55.5t-55 -53q-56 -50 -100 -68q-39 -17 -69 -16h-7q-32 2 -54 20.5t-39 42.5q-16 -10 -33.5 -21t-38 -21.5t-48 -16.5t-64.5 -6q-103 0 -121 85z" />
<glyph unicode="v" horiz-adv-x="561" d="M-64 129q4 57 32 127t67 136.5t79 121.5t68 86q14 14 40 18q8 1 16 1q16 1 32 -5q22 -8 33.5 -24.5t-2.5 -38.5q-10 -16 -35.5 -52t-56.5 -81t-61 -94q-28 -48 -46 -88q-17 -38 -17 -64q0 -29 32 -29q31 0 66.5 31t70.5 78t67.5 102.5t59.5 105.5t44.5 87t23.5 47 q9 14 33 20q13 4 26 4l22 -2q24 -6 40 -20t3 -39q-6 -12 -20 -43t-35.5 -72t-51.5 -90t-63 -98q14 -6 35 -4t43.5 12t43 26.5t36.5 37.5q14 18 34.5 19t38.5 -7t26 -26q3 -7 3 -14q0 -11 -8 -22q-16 -25 -51 -57.5t-81 -56t-97 -29.5q-9 -1 -18 -1q-41 0 -82 22 q-57 -66 -122 -110t-132 -44q-78 0 -109 36q-27 31 -27 79q-1 7 0 14z" />
<glyph unicode="w" horiz-adv-x="811" d="M-64 129q4 57 32 127t67 136.5t79 121.5t68 86q14 14 40 18q8 1 16 1q16 1 32 -5q22 -8 33.5 -24.5t-2.5 -38.5q-10 -16 -35.5 -52t-56.5 -81t-61 -94q-28 -48 -46 -88q-17 -38 -17 -64q0 -29 32 -29q23 0 47 16.5t51 45.5q18 51 49 107.5t63.5 108.5t63.5 95t49 72 q12 16 37 22t48.5 3t38 -17t3.5 -39q-6 -16 -31.5 -53t-56 -82t-61.5 -93t-51.5 -89t-23.5 -68t24 -29h4q29 0 63 28q36 30 70.5 77t67 103.5t59 106.5t44 88t23.5 48q8 14 33 20q14 4 27 4q10 0 22 -2q24 -6 39 -20t4 -39q-6 -12 -20.5 -43t-36 -72t-51 -90t-62.5 -98 q14 -6 35 -4t42.5 12t43 26.5t37.5 37.5q12 18 33.5 19t39.5 -7t26 -26q3 -7 3 -14q0 -11 -8 -22q-16 -25 -51 -57.5t-81 -56t-97 -29.5q-9 -1 -19 -1q-42 0 -82 22q-57 -66 -121.5 -110t-131.5 -44q-47 0 -74 11.5t-41 33.5q-35 -23 -68 -34t-67 -11q-78 0 -109 36 q-27 31 -27 79q-1 7 0 14z" />
<glyph unicode="x" horiz-adv-x="583" d="M-84 33q0 23 33 57q35 37 95 92.5t132 118.5l-6 86q-27 -41 -47.5 -69.5t-28.5 -41.5q-16 -20 -37.5 -21t-39 9t-24.5 27.5t7 34.5q37 45 80 110.5t80 124.5q0 27 20 41t44 15h4q20 0 40 -11q20 -12 23 -37q2 -35 5 -75.5t7 -79.5q57 49 105 94t81 80q18 18 48 23 t54.5 -1t34 -21.5t-11.5 -39.5q-12 -12 -41.5 -42t-70.5 -69t-88 -84t-97 -90q4 -59 17.5 -98t44.5 -39q25 0 54.5 24.5t59 57.5t54 65.5t37.5 51.5q12 18 33.5 19t40 -8t26.5 -25q3 -6 3 -13q0 -11 -9 -23q-10 -12 -44 -58t-81 -95t-102.5 -88t-108.5 -39q-33 0 -56.5 13.5 t-41 36t-28.5 50t-17 56.5l-129 -123q-29 -29 -65 -36q-16 -3 -29 -3q-18 0 -32 5q-28 10 -28 38z" />
<glyph unicode="y" horiz-adv-x="591" d="M-193 -209q16 53 50 84t81.5 52.5t106.5 39t129 45.5l12 23q-25 -16 -57.5 -27.5t-83.5 -11.5q-104 0 -121 85q-4 15 -4 31q0 78 70 195q16 31 37.5 69t42 74.5t40 69.5t33.5 55q18 29 47 37q14 5 27.5 5t26.5 -5q24 -8 35.5 -27.5t-3.5 -45.5q-23 -39 -51 -91.5 t-51 -93.5t-44 -77.5t-34.5 -67.5t-18.5 -52.5t5 -29.5t40 0t64.5 28.5t67.5 48t49 58.5t36.5 73t42 85t42 83t35.5 66q14 27 43 38q22 9 43 9q5 0 11 -1q26 -3 39 -20t-3 -46q-16 -33 -43 -81t-53.5 -97t-49 -93.5t-34.5 -66.5l-56 -105q68 45 133 105q37 35 56.5 57.5 t46.5 57.5q12 18 33.5 19t40 -8t26.5 -25q3 -6 3 -13q0 -11 -9 -23q-10 -12 -27.5 -35.5t-40 -51t-49 -55.5t-55.5 -52q-47 -37 -111.5 -68.5t-130.5 -58.5l-69 -129q-51 -96 -127 -136q-72 -38 -135 -38h-7q-65 2 -105 40q-28 26 -28 63q0 17 6 36zM-76 -213q-1 -3 -1 -7 q0 -11 11 -16q9 -5 20 -5q8 0 18 3q22 5 50.5 25t53.5 61l24 39q-72 -29 -121 -52t-55 -48z" />
<glyph unicode="z" horiz-adv-x="610" d="M-33 33q0 23 33 57q27 29 68 69t89 87t99 97t100 97q-27 -4 -53 -4q-13 0 -25 1q-36 3 -65 16q-41 -61 -74 -110.5t-45 -66.5q-16 -20 -37.5 -21t-39 9t-24.5 27.5t7 34.5q18 20 38.5 51t43 64.5t45.5 67.5t41 62q2 8 4 14.5t6 14.5q12 27 37 35q17 5 32 5q9 0 15 -1 q22 -4 33.5 -17.5t1.5 -27.5q-16 -23 1 -36t50 -15h11q29 0 65 8q43 10 80 37q18 18 48 23t54.5 -1t33.5 -21.5t-11 -39.5q-14 -16 -53 -56t-89.5 -91.5t-107.5 -110t-109 -109.5q31 -16 57.5 -35.5t63.5 -19.5q25 0 56.5 24.5t63.5 57.5t58.5 65.5t40.5 51.5q12 18 34 19 t39 -8t25 -25q3 -6 4 -13q0 -11 -10 -23t-42.5 -58t-81 -95t-103.5 -88t-108 -39q-41 0 -71 15.5t-52.5 30.5t-44 24.5t-45.5 -3.5q-12 -10 -21.5 -20t-13.5 -14q-27 -29 -63 -36q-16 -3 -29 -3q-17 0 -31 5q-28 10 -29 38z" />
<glyph unicode="{" horiz-adv-x="481" d="M4 407.5q-4 24.5 8.5 51t36 46t51.5 13.5q39 -8 64.5 -1t41 21.5t26 32t18.5 29.5q82 119 180 196.5t201 116.5q33 12 51 -2t21.5 -38.5t-7 -51t-32.5 -39.5q-74 -39 -149 -103.5t-140 -152.5q-12 -16 -29.5 -38.5t-39 -43t-46 -31t-49.5 -1.5q20 -12 28.5 -33t8.5 -44.5 t-6 -48t-13 -44.5q-45 -137 -48 -240.5t26 -175.5q14 -37 -3.5 -58.5t-45 -24.5t-57 10.5t-40.5 45.5q-29 92 -21.5 216t60.5 282q10 29 4 49.5t-65 30.5q-31 6 -35 30.5z" />
<glyph unicode="|" horiz-adv-x="530" d="M-158 -387q-8 14 6 45q6 14 39 76.5t81 157t107.5 209t121 232.5t119 229.5t103.5 199.5t73.5 142t29.5 59q14 25 46 39t64 14t52 -14.5t12 -47.5q-2 -4 -33.5 -62t-83 -150.5t-117 -209t-133 -237.5t-133 -236.5t-117.5 -206t-85 -147.5t-35 -59q-20 -25 -46 -37 t-44.5 -11t-26.5 15z" />
<glyph unicode="}" horiz-adv-x="555" d="M-159 -213q-3 25 7.5 51.5t32.5 38.5q74 39 148.5 103.5t140.5 152.5q12 16 29.5 39t39 43.5t46 30.5t49.5 2q-23 12 -30 32.5t-7 44t6 48t12 45.5q45 137 48.5 240.5t-25.5 175.5q-14 37 3 58t45 24.5t57.5 -10t39.5 -46.5q29 -92 22 -216t-61 -282q-10 -29 -4 -49 t66 -30q31 -6 35 -31t-8.5 -51.5t-37 -46t-51.5 -13.5q-39 8 -64.5 1t-40.5 -21.5t-25.5 -31.5t-18.5 -30q-82 -119 -180.5 -196.5t-200.5 -116.5q-33 -12 -51.5 2t-21.5 39z" />
<glyph unicode="~" horiz-adv-x="593" d="M78 264.5q-8 16.5 6 38.5q35 53 77 89t85 28q16 -4 29.5 -17.5t23.5 -29t20.5 -25.5t22.5 -6q20 8 32.5 32.5t37.5 33.5q27 8 45 5t29.5 -13.5t15.5 -22.5t2 -19q-8 -16 -23.5 -33.5t-32 -33t-33 -26.5t-26.5 -15q-27 -12 -45 -13t-31.5 6t-26 21.5t-28.5 36.5 q-16 23 -32.5 10.5t-43.5 -47.5q-14 -18 -36.5 -23t-41 1t-26.5 22.5z" />
<glyph unicode="&#xa1;" horiz-adv-x="278" d="M-45 -35q2 6 28.5 50t66.5 105.5t86 132.5t86 132t67.5 102t32.5 45q20 25 45.5 37.5t44 11.5t26.5 -15.5t-6 -45.5q-8 -18 -33.5 -66t-58.5 -109.5t-70 -128t-67.5 -123t-51 -94.5t-22.5 -42q-14 -25 -46 -39t-63.5 -14t-53 14t-11.5 47zM451 786.5q-12 20.5 4 49.5 q10 16 26.5 32.5t26.5 24.5q27 16 55.5 22.5t48 2t26.5 -20.5t-11 -45q-6 -12 -18.5 -31.5t-22.5 -36.5q-16 -25 -45 -29.5t-53.5 3.5t-36.5 28.5z" />
<glyph unicode="&#xa2;" horiz-adv-x="518" d="M-35 -155.5q-8 14.5 6 44.5q6 14 23.5 53.5t46.5 92.5q-20 14 -29 26q-25 31 -34 71t-6 81t14.5 80t29.5 72q55 98 137.5 162.5t165.5 80.5q27 53 42.5 86t17.5 37q14 25 46 39t63.5 14t52 -14t12.5 -47q-2 -6 -22.5 -47t-55.5 -103q20 -25 14 -59.5t-24.5 -70t-44 -66.5 t-45.5 -49t-47 -19l-105 -186q25 2 53.5 11t59.5 30q25 14 51.5 34.5t51 43t45 44t34.5 40.5q12 18 32.5 19t38 -7t26 -25.5t-4.5 -36.5q-12 -18 -32.5 -41.5t-47 -50t-56.5 -53.5t-60 -49q-66 -51 -133.5 -68.5t-126.5 -13.5l-72 -123q-20 -25 -46 -37t-44.5 -11 t-26.5 15.5zM111 178l137 281q-31 -29 -62.5 -67t-56.5 -85q-43 -76 -18 -129z" />
<glyph unicode="&#xa3;" horiz-adv-x="1081" d="M23.5 95q-13.5 42 1 89t49.5 84q31 33 78 54.5t100 27.5t108.5 -4t104.5 -41q12 18 24.5 39t24.5 43h-22q-35 0 -41.5 17.5t5 40t36 41t53.5 20.5h33q10 23 20 43t20 43q-25 -18 -49 -31q-84 -45 -154.5 -46t-121.5 26.5t-78 78t-22.5 111t42 122.5t119.5 114 q68 45 154 86t173 86t171 98t149 121l17 22q10 12 22 23l2 2v-2q20 14 44 14t39.5 -11t19.5 -30.5t-15 -44.5q-59 -84 -111 -185.5t-101.5 -209t-96.5 -218t-96 -212.5q43 0 83 -1t64 1q31 0 37 -17.5t-4 -39t-32.5 -41t-49.5 -19.5q-51 -2 -87 -2h-70q-27 -47 -52.5 -90 t-54.5 -82q41 -41 92 -70.5t129 -23.5q49 4 97.5 30.5t89.5 59.5t71.5 64.5t42.5 50.5q12 18 34 19t40.5 -8t26.5 -25.5t-6 -35.5q-20 -27 -61.5 -73.5t-95.5 -93t-118.5 -80t-132.5 -33.5q-102 0 -169 33.5t-120 93.5q-59 -59 -126.5 -92t-147.5 -33q-82 0 -125 27.5 t-56.5 69.5zM154 153.5q2 -14.5 16 -24.5t45 -10q90 0 172 86q-51 35 -107.5 36t-91.5 -28q-16 -12 -26 -28.5t-8 -31zM337.5 771q-13.5 -46 8 -79t71.5 -42t118 22q47 23 99 60.5t83 78.5q33 76 67.5 149.5t69.5 145.5q-61 -43 -123.5 -78t-121 -63.5t-108.5 -54t-89 -52.5 q-61 -41 -74.5 -87z" />
<glyph unicode="&#xa4;" horiz-adv-x="768" d="M111.5 79.5q-7.5 16.5 11.5 45.5q6 12 18.5 31.5t22.5 36.5q10 16 35 26q-20 39 -21 90q0 66 39 121l-22.5 22.5t-20.5 26.5q-16 29 -4 49.5t36.5 28.5t53.5 3t45 -30q4 -8 17 -24q31 10 63 10q61 0 111 -33l30 47q16 25 45 30t53.5 -3t36.5 -28.5t-4 -49.5 q-10 -16 -26.5 -32.5t-26.5 -24.5q-20 -14 -35 -19q23 -45 23 -94q0 -80 -49 -135l32 -55q18 -29 11.5 -45.5t-26 -20.5t-48.5 2t-55 23q-16 12 -33 28q-10 -2 -19.5 -3t-19.5 -1q-55 0 -100 25q-10 -14 -22.5 -25.5t-20.5 -17.5q-27 -16 -55.5 -22.5t-48 -2.5t-27 20.5z M303 326q0 -39 27.5 -68t68.5 -29q39 0 67 29t28 68t-28 66.5t-67 27.5q-41 0 -68.5 -27.5t-27.5 -66.5z" />
<glyph unicode="&#xa5;" horiz-adv-x="983" d="M10 250q6 82 43 130t86 70.5t101.5 23.5t89.5 -9q76 -23 121 -72t86 -106q20 29 39.5 62.5t39.5 68.5h-114q-35 0 -41 17.5t5 40t35.5 41t53.5 20.5q18 2 52 1t69 -1q14 29 25.5 55t25.5 55q-55 -41 -121.5 -65.5t-144.5 -24.5q-47 0 -94.5 23.5t-79 68.5t-37.5 112.5 t29.5 157t121.5 199t242 238.5q33 27 64.5 25.5t53 -16.5t26 -38.5t-18.5 -40.5q-123 -90 -208 -189.5t-124 -185.5t-28.5 -144t77.5 -67q72 -8 142.5 39t132 115t107.5 139.5t71 112.5q37 76 77 145.5t85 128.5q20 27 49 34t51.5 -2t29.5 -30.5t-16 -50.5 q-53 -68 -100 -161t-93 -198.5t-91 -217t-94 -217.5h45q31 0 37 -17.5t-4.5 -39t-33 -41t-49.5 -19.5q-16 -2 -28 -2h-25q-47 -90 -98 -166t-111.5 -133.5t-129 -89t-150.5 -31.5q-61 0 -114.5 19.5t-91.5 53t-57.5 80t-15.5 99.5zM162 252q-4 -33 8 -62.5t44 -50t85 -20.5 q45 0 85 20.5t79 57.5q-18 25 -34.5 50t-36 47.5t-43 40t-54.5 23.5q-37 8 -65.5 -6t-46 -40.5t-21.5 -59.5z" />
<glyph unicode="&#xa6;" horiz-adv-x="530" d="M-158 -387q-8 14 6 45q6 12 35 68.5t72 140.5t97 188.5t112 214.5l135 -26q-66 -115 -125 -221.5t-106.5 -189.5t-77 -134t-31.5 -53q-20 -25 -46 -37t-44.5 -11t-26.5 15zM246 428q55 104 104 199.5t87 169t61.5 117.5t23.5 49q14 25 46 39t64 14t52.5 -14.5t11.5 -47.5 q0 -4 -24.5 -49t-65.5 -117.5t-94 -167t-111 -196.5z" />
<glyph unicode="&#xa7;" horiz-adv-x="1101" d="M-29 -78q-6 72 20.5 133.5t67.5 85.5q29 18 54.5 6t41 -36.5t15.5 -54t-23 -48.5q-23 -18 -28.5 -43.5t1.5 -52.5t29.5 -52.5t59.5 -41.5q55 -27 109.5 -26t97.5 22.5t69.5 59.5t26.5 87q0 55 -34 96t-81 79t-97 78t-81 94t-31.5 128t48.5 180q33 70 92 123q6 27 15 54.5 t26 60.5q29 63 82 113.5t124.5 76t158.5 20.5t184 -54q63 -33 93.5 -76t36 -90t-11 -95.5t-47.5 -90.5t-71.5 -74.5t-83.5 -48.5q-27 -10 -49.5 0t-35 26.5t-12.5 34.5t17 27q53 29 91 65.5t51 75.5t-1 77t-66 72q-53 35 -107 34t-101.5 -23.5t-83 -58.5t-50.5 -68 q-37 -78 -24.5 -132.5t50.5 -97.5t91 -80.5t100.5 -79.5t75 -95.5t17.5 -129.5q-10 -72 -46 -126t-85 -91q0 -4 -1 -9t-1 -11q-12 -86 -60.5 -148.5t-117 -97.5t-150.5 -41t-162 23q-102 35 -149.5 102t-53.5 139zM334.5 404.5q21.5 -58.5 72 -104.5t112 -88t102.5 -97 q25 37 24 84q0 55 -35 96t-83 79t-97 79t-80 96q-37 -86 -15.5 -144.5z" />
<glyph unicode="&#xa8;" horiz-adv-x="503" d="M44 761.5q-7 16.5 11 45.5q6 12 18.5 31.5t22.5 35.5q16 25 45 30t53.5 -3t36.5 -28.5t-4 -49.5q-10 -16 -26.5 -32.5t-26.5 -24.5q-27 -16 -55.5 -22.5t-48 -2.5t-26.5 20.5zM249 761.5q-7 16.5 11 45.5q6 12 18.5 31.5t22.5 35.5q16 25 45 30t53.5 -3t36.5 -28.5 t-4 -49.5q-10 -16 -26.5 -32.5t-26.5 -24.5q-27 -16 -55.5 -22.5t-48 -2.5t-26.5 20.5z" />
<glyph unicode="&#xa9;" horiz-adv-x="1267" d="M31.5 102.5q11.5 141.5 89.5 311.5q55 121 133 223t167 179t186.5 124t191.5 58.5t180 -17t154 -104.5q70 -76 78 -198t-29 -258t-115 -274.5t-182.5 -250t-227 -181t-251.5 -69.5q-125 0 -214.5 56t-130.5 157.5t-29.5 243zM169.5 125.5q-9.5 -107.5 19 -186t89 -123.5 t140.5 -45q86 0 174 50t168 132t145.5 186.5t107.5 211t54 207.5t-16 179q-25 68 -79 98.5t-126 27.5t-154 -39t-164 -100.5t-157.5 -156.5t-130.5 -209q-61 -125 -70.5 -232.5zM355 208q3 42 15.5 83t30.5 74q39 68 91.5 120t108.5 84.5t114.5 40.5t107.5 -10 q45 -18 50.5 -55t-11 -79t-47.5 -80t-55 -58q-23 -18 -46.5 -16.5t-40 15t-22.5 32t8 30.5q14 14 35 34.5t35 40t16.5 33t-18.5 13.5q-20 0 -47 -15.5t-55.5 -43t-57 -64.5t-53.5 -80q-31 -55 -31 -99t22.5 -66.5t65.5 -20.5t97 43q25 18 49 17t39.5 -15t15.5 -37t-27 -47 q-45 -43 -96 -62.5t-99 -19.5t-89 15.5t-64 39.5q-27 31 -36 71t-6 82z" />
<glyph unicode="&#xaa;" horiz-adv-x="649" d="M192.5 627.5q6.5 62.5 47.5 136.5q39 74 93 128t109.5 89t107.5 51.5t91 16.5q27 0 46.5 -7.5t35.5 -17.5t31 -25q12 25 40.5 36.5t54 8t39 -19.5t-2.5 -45q-16 -33 -41 -81t-51.5 -98t-50 -94t-37.5 -65q-12 -23 -9.5 -32t17 -8t33 11.5t36.5 28.5q35 37 56.5 58.5 t46.5 56.5q14 18 35.5 19t40 -8t26.5 -25.5t-6 -34.5q-10 -12 -27.5 -36t-41 -50.5t-50 -55t-55.5 -53.5q-55 -49 -98 -67.5t-76 -16.5t-55.5 20.5t-38.5 43.5q-33 -20 -71 -43t-114 -23q-53 0 -92 24.5t-57.5 69.5t-12 107.5zM343 601q3 -26 19 -38q14 -12 40 -8t56.5 22.5 t62.5 49t63 71.5q31 39 50 79t28.5 74t7.5 59.5t-19 37.5q-16 12 -41.5 7t-55.5 -23.5t-61.5 -49t-62.5 -69.5q-31 -41 -51.5 -80t-29.5 -72.5t-6 -59.5z" />
<glyph unicode="&#xab;" horiz-adv-x="761" d="M120 399.5q13 42.5 52 63.5q49 20 79 33.5t54.5 26t52 24.5t70.5 31q43 14 52 -12.5t-5 -59.5q37 16 67.5 31.5t90.5 40.5q33 12 45 -3.5t9 -40t-19.5 -50t-40.5 -35.5q-33 -16 -86.5 -39t-102.5 -45q8 -16 14.5 -27.5t14.5 -25t19.5 -35t29.5 -58.5q12 -23 7 -51.5 t-18 -49t-32.5 -24.5t-34.5 25q-27 49 -57.5 102t-52.5 101q-18 39 -2 81l-93 -38q8 -16 14.5 -27.5t14.5 -25t19.5 -35t29.5 -58.5q12 -23 7 -51.5t-18 -49t-32.5 -24.5t-34.5 25q-27 49 -57.5 102t-52.5 101q-16 35 -3 77.5z" />
<glyph unicode="&#xac;" horiz-adv-x="647" d="M139 289.5q-6 17.5 5.5 40t36 41t52.5 20.5q25 2 61 2t76 -1t76.5 -1h65.5q41 0 40 -27.5t-24 -54.5q-27 -43 -52 -78.5t-56 -83.5q-18 -27 -38 -23.5t-33 23t-16 46.5t15 47q10 10 16.5 17t12.5 15h-47.5h-42h-46h-61.5q-35 0 -41 17.5z" />
<glyph unicode="&#xad;" horiz-adv-x="602" d="M55 281.5q-6 17.5 5.5 40t36 41t53.5 20.5q25 2 70.5 2t96 -1t97.5 -1h75q31 0 37 -17.5t-4 -39t-32.5 -41t-49.5 -19.5q-55 -2 -97 -2h-81h-78h-88q-35 0 -41 17.5z" />
<glyph unicode="&#xae;" horiz-adv-x="1267" d="M31.5 102.5q11.5 141.5 89.5 311.5q55 121 133 223t167 179t186.5 124t191.5 58.5t180 -17t154 -104.5q70 -76 78 -198t-29 -258t-115 -274.5t-182.5 -250t-227 -181t-251.5 -69.5q-125 0 -214.5 56t-130.5 157.5t-29.5 243zM169.5 125.5q-9.5 -107.5 19 -186t89 -123.5 t140.5 -45q86 0 174 50t168 132t145.5 186.5t107.5 211t54 207.5t-16 179q-25 68 -79 98.5t-126 27.5t-154 -39t-164 -100.5t-157.5 -156.5t-130.5 -209q-61 -125 -70.5 -232.5zM346 210q-8 17 4 34q39 47 84 112.5t82 122.5q-39 35 -37 81t62 91q29 23 58.5 32t52 3 t35.5 -30.5t11 -69.5q-4 -27 -18 -58q20 0 45 7q33 6 55.5 -3.5t34.5 -26t12 -35.5t-12 -32q-8 -8 -32.5 -36.5t-56.5 -68.5t-64.5 -85t-56 -86t-35 -73t2.5 -42q16 -14 39 -10t52 18q20 10 32.5 -5t10.5 -38.5t-18.5 -49t-55.5 -36.5q-39 -10 -75 -9t-69 17 q-53 27 -59 84.5t20.5 124t75.5 134t107 114.5q16 12 18 17.5t-35 21.5q-41 -55 -88 -115.5t-84 -119.5q-12 -23 -33.5 -24t-39 10.5t-25.5 28.5z" />
<glyph unicode="&#xaf;" horiz-adv-x="460" d="M53 812q-6 17 5.5 39.5t36 41t52.5 20.5q49 4 105.5 1t112.5 -1q31 0 37 -17t-4.5 -38.5t-33 -41t-49.5 -19.5q-55 -2 -77.5 -2h-39h-36h-68.5q-35 0 -41 17z" />
<glyph unicode="&#xb0;" horiz-adv-x="401" d="M236 760q0 66 45 110.5t110 44.5q66 0 111 -45t45 -110q0 -66 -45 -111t-111 -45t-110.5 45t-44.5 111zM330 772q0 -29 21.5 -50.5t49.5 -21.5q29 0 50.5 21.5t21.5 50.5t-21.5 50.5t-50.5 21.5t-50 -21.5t-21 -50.5z" />
<glyph unicode="&#xb1;" horiz-adv-x="681" d="M16 -17.5q-6 17.5 5.5 40t36 41t53.5 20.5q25 2 73.5 2t103 -1t104.5 -1h79q31 0 37 -17.5t-4 -39t-32.5 -41t-49.5 -19.5q-55 -2 -100.5 -2h-88.5h-85h-91q-35 0 -41 17.5zM139 289.5q-6 17.5 5.5 40t36 41t52.5 20.5h105l51 111q14 25 42 39t54.5 14t43 -14t8.5 -47 q-2 -8 -16.5 -37t-37.5 -66q33 0 64 -1t47 1q31 0 37 -17.5t-4.5 -39t-33 -41t-48.5 -19.5q-37 -2 -69 -2h-62q-23 -35 -37.5 -60.5t-18.5 -29.5q-20 -25 -45.5 -37t-44 -11t-27 16.5t6.5 46.5l35 75h-103q-35 0 -41 17.5z" />
<glyph unicode="&#xb2;" horiz-adv-x="702" d="M103.5 405.5q-9.5 22.5 0.5 47.5q10 27 30 36t46 13q57 10 122 38.5t128.5 67.5t119.5 85t97 89q45 47 86 102.5t58 121.5q10 39 2.5 69.5t-28 48t-52 18.5t-70.5 -20q-31 -14 -54.5 -37.5t-37.5 -52t-16.5 -61.5t14.5 -66q12 -25 8 -48t-19.5 -38.5t-38 -20.5t-46.5 7 q-41 18 -55.5 67.5t-16.5 90.5q-2 57 19.5 110t59.5 95t89 71t108 39q104 14 171 -23.5t93.5 -106.5t15.5 -156t-60 -167q-63 -104 -154.5 -187t-198.5 -146q27 -8 45 -5q10 4 18.5 12.5l16.5 16.5q12 20 33.5 27.5t42.5 3.5q43 -10 58.5 -47t-11.5 -74q-25 -35 -65.5 -57.5 t-83.5 -24.5q-45 -2 -86 5t-82 13.5t-84 9.5t-93 -7q-25 -10 -52 -10.5t-50 16.5q-18 12 -27.5 34.5z" />
<glyph unicode="&#xb3;" horiz-adv-x="630" d="M144.5 589q-1.5 44 15.5 81q14 39 55 43q20 4 42 -1t34 -22q10 -16 11 -34.5t-1 -34.5q0 -18 -2 -41t3 -42.5t17.5 -32.5t40.5 -9q16 4 31 9t29 13q29 16 53.5 39t44.5 49q10 16 22.5 40t19.5 50.5t6 52t-15 48.5q-8 10 -19.5 11t-25.5 3q-29 4 -55.5 26.5t-18.5 55.5 q4 16 16.5 25.5t28.5 13.5q12 2 25.5 1t23.5 1q43 16 77 49t50 76q10 29 16.5 58.5t-10.5 58.5q-25 4 -49 -8.5t-44.5 -34t-36 -47t-23.5 -48.5q-6 -25 -30.5 -35t-47.5 -4q-18 4 -35.5 13.5t-27.5 25.5t-7.5 39t11.5 39q23 41 55.5 78t69.5 61q78 53 168 43 q47 -4 81.5 -26.5t61.5 -69.5q12 -25 12 -72t-13 -98t-45 -100t-85 -76q39 -47 44 -101.5t-11.5 -108.5t-50 -102t-72.5 -83q-63 -53 -150.5 -76t-165.5 10q-82 33 -108 113q-14 37 -15.5 81z" />
<glyph unicode="&#xb4;" horiz-adv-x="505" d="M26.5 809q8.5 12 41.5 22q31 8 75.5 25.5t87.5 34t76 30t39 15.5q29 6 57.5 -5t46 -31.5t17.5 -43.5t-31 -37q-6 -4 -30.5 -9t-59.5 -11t-74 -13.5t-72.5 -13.5t-58 -9t-28.5 -3q-31 0 -53.5 7t-32 18.5t-1 23.5z" />
<glyph unicode="&#xb5;" horiz-adv-x="575" d="M-352 -285q2 6 21.5 41t48 86.5t65.5 112.5t71.5 120.5t64.5 110t48 80.5q6 10 11.5 20.5t11.5 20.5q18 31 38.5 69t42 74.5t41 69.5t33.5 55q18 29 46 37.5t52.5 0t36 -28t-3.5 -45.5q-23 -39 -51 -91.5t-51 -93.5t-44 -77.5t-34.5 -67.5t-18.5 -52.5t5 -29.5 q23 -18 77 21.5t115 119.5q23 29 51.5 80t55.5 101q31 57 63 120q12 25 40 36t53.5 8t40 -19t-2.5 -45q-16 -33 -41.5 -81t-52 -98.5t-50 -94.5t-36.5 -64q-12 -23 -9 -32t16.5 -8t33 11.5t37.5 28.5q35 37 55.5 58.5t46.5 56.5q12 18 34 19t40.5 -8t26.5 -25.5t-6 -35.5 q-10 -12 -27.5 -35.5t-40 -50t-49.5 -55.5t-55 -53q-57 -49 -100.5 -67.5t-75 -16.5t-54 20.5t-39.5 42.5q-16 -10 -33.5 -21t-38 -21.5t-48 -16.5t-64.5 -6q-45 0 -76 18q-27 -55 -52.5 -108t-46 -96t-33.5 -71t-15 -32q-14 -25 -46 -39t-63.5 -14t-53 14t-11.5 47z" />
<glyph unicode="&#xb6;" horiz-adv-x="782" d="M-158 -387q-8 14 6 45q6 12 29 57t58.5 114t80.5 155t93.5 181t99.5 192.5t98 189.5q-57 6 -84.5 44t-28.5 90t21.5 112.5t63 111.5t99 85t130.5 36q25 0 80 -2t117.5 -3t119 -2t84.5 -1q14 0 21 -2q29 -4 45 -18.5t8 -43.5q-2 -4 -33.5 -62t-83 -150.5t-117 -209 t-133 -237.5t-133 -236.5t-118 -206t-85 -147.5t-34.5 -59q-20 -25 -46 -37t-44.5 -11t-26.5 15t6 45q8 16 50 99t104.5 203t135.5 260t142.5 274.5t126 244t86.5 168.5q-33 -2 -57.5 -1t-50.5 1q-23 -43 -66 -119.5t-97 -173t-114.5 -205t-121 -215t-117 -205t-99.5 -174 t-69.5 -121.5t-28.5 -48q-20 -25 -46 -37t-44.5 -11t-26.5 15z" />
<glyph unicode="&#xb7;" horiz-adv-x="450" d="M128 264.5q-7 16.5 11 44.5q6 12 18.5 31.5t22.5 36.5q16 25 45 30t53.5 -3.5t36.5 -28.5t-4 -49q-10 -16 -26.5 -33t-26.5 -25q-27 -16 -55.5 -22t-48 -2t-26.5 20.5z" />
<glyph unicode="&#xb8;" horiz-adv-x="401" d="M54 -113q7 27 23.5 45.5t38 23.5t42.5 -19l11 -16.5t14 -18.5t14.5 -12.5t13.5 4.5q4 6 6 23t6 42t13.5 54.5t27.5 60.5q12 20 30.5 28.5t31 3t12.5 -25t-25 -55.5q-20 -33 -27 -71t-12.5 -72t-13 -60.5t-27.5 -38.5q-27 -16 -54 -14t-52 13t-44.5 27.5t-25.5 30.5 q-10 20 -3 47z" />
<glyph unicode="&#xb9;" horiz-adv-x="495" d="M172 401q-2 45 20.5 88t43.5 78q14 27 29.5 57.5t40 84t63.5 135.5t100 211q-51 -29 -113 -29q-14 2 -27.5 4t-21.5 12q-10 10 -9 26.5t5 29.5q16 35 52 57.5t69 38.5q37 16 60.5 26.5t40 18.5t25.5 13t17 14q23 10 47.5 12t53.5 -12q55 -18 28 -74l-297 -676 q-14 -29 -25.5 -55.5t-23.5 -52.5q-10 -16 -21.5 -31t-27.5 -25q-16 -14 -37.5 -20t-42.5 4q-20 8 -33.5 25.5t-15.5 39.5z" />
<glyph unicode="&#xba;" horiz-adv-x="714" d="M199 611.5q4 62.5 20.5 125t38.5 117.5q20 53 46 107.5t59.5 102.5t75.5 89t96 68q43 20 92 28t96 -1t88 -37.5t68 -77.5q18 -41 26 -86.5t0 -90.5q-6 -57 -22.5 -124.5t-51.5 -149.5q-31 -72 -75.5 -142.5t-112.5 -127.5q-37 -31 -85 -53.5t-98 -28.5t-100.5 6t-91.5 53 q-43 43 -58 101.5t-11 121zM352 569.5q0 -55.5 19 -100.5q8 -16 21.5 -20.5t29.5 -2t33.5 9.5t33.5 15q68 45 116 116.5t79 145.5q6 14 18.5 47t24.5 76t21.5 89t10.5 86t-9.5 68.5t-38.5 35.5q-33 8 -66 -9.5t-57 -35.5q-51 -41 -88 -97.5t-66 -115.5q-20 -41 -39.5 -92.5 t-31 -105.5t-11.5 -109.5z" />
<glyph unicode="&#xbb;" horiz-adv-x="739" d="M77 147.5q3 24.5 20.5 50t41.5 35.5q33 16 86.5 39t102.5 45q-8 16 -14.5 27.5t-14.5 25t-19.5 35t-29.5 58.5q-12 23 -7 51.5t18 49t31.5 23.5t35.5 -24q27 -49 57.5 -102t52.5 -101q10 -18 9 -39.5t-9 -44.5l94 41q-8 16 -14 27.5t-14 25t-19.5 35t-29.5 58.5 q-12 23 -7 51.5t18 49t31.5 23.5t34.5 -24q27 -49 58 -102t53 -101q16 -35 3 -77.5t-52 -63.5q-49 -20 -80 -33.5t-55.5 -26t-51 -24.5t-69.5 -31q-43 -16 -52.5 10.5t5.5 61.5q-18 -10 -34.5 -17t-34 -15.5t-39 -17.5t-50.5 -22q-33 -12 -46 3.5t-10 40z" />
<glyph unicode="&#xbc;" horiz-adv-x="1296" d="M0 66q-2 45 20.5 88t42.5 77q14 27 30 57.5t40.5 84t63.5 135.5t100 211q-51 -29 -113 -29q-14 2 -27.5 4t-21.5 13q-10 10 -9 26.5t5 28.5q16 35 52 57.5t69 38.5q37 16 60.5 26.5t40 18.5t25.5 13.5t17 13.5q23 10 47.5 12t53.5 -12q55 -18 28 -74l-297 -676 q-14 -29 -25.5 -55.5t-23.5 -52.5q-10 -16 -21.5 -30.5t-27.5 -25.5q-16 -14 -37.5 -20t-42.5 4q-20 8 -33.5 25.5t-15.5 40.5zM160 -110.5q-10 16.5 12 42.5l715 840q18 18 47 24.5t52.5 0.5t33.5 -21.5t-10 -40.5q-12 -14 -66.5 -77.5t-130.5 -152.5t-162 -190.5 t-160.5 -189.5t-129 -151.5t-64.5 -75.5q-18 -20 -48 -26.5t-54.5 -2.5t-34.5 20.5zM485 -37q-4 29 20.5 46.5t43.5 33.5q8 8 56 59.5t115.5 127t147.5 165.5t154 178q20 23 42.5 42.5t47.5 35.5q27 16 60.5 12t54.5 -26q23 -25 12 -57q-6 -12 -15.5 -33t-34 -77 t-71.5 -160.5t-127 -286.5q51 0 78 -39q12 -16 7 -37t-25 -31q-10 -6 -28.5 -8t-37 -3t-33 -2t-16.5 -3l-35 -80q-8 -18 -21.5 -39t-29.5 -37t-37.5 -23.5t-46.5 -1.5q-23 6 -39 27t-16 43q-2 31 10 60.5t27 56.5q-51 0 -84 -1t-54.5 -1t-35 1t-23.5 3q-20 6 -41 19.5 t-25 35.5zM715 23h80t18 6q4 12 11 25.5t20.5 42t37 75.5t60.5 127q-57 -72 -95 -117t-62.5 -74.5t-41 -49t-28.5 -35.5z" />
<glyph unicode="&#xbd;" horiz-adv-x="1396" d="M0 66q-2 45 20.5 88t42.5 77q14 27 30 57.5t40.5 84t63.5 135.5t100 211q-51 -29 -113 -29q-14 2 -27.5 4t-21.5 13q-10 10 -9 26.5t5 28.5q16 35 52 57.5t69 38.5q37 16 60.5 26.5t40 18.5t25.5 13.5t17 13.5q23 10 47.5 12t53.5 -12q55 -18 28 -74l-297 -676 q-14 -29 -25.5 -55.5t-23.5 -52.5q-10 -16 -21.5 -30.5t-27.5 -25.5q-16 -14 -37.5 -20t-42.5 4q-20 8 -33.5 25.5t-15.5 40.5zM145.5 -110.5q-10.5 16.5 12.5 42.5l714 840q18 18 47 24.5t52.5 0.5t34 -21.5t-10.5 -40.5q-12 -14 -66.5 -77.5t-130 -152.5t-161.5 -190.5 t-161 -189.5t-129 -151.5t-64 -75.5q-18 -20 -48 -26.5t-54.5 -2.5t-35 20.5zM519.5 -235.5q-9.5 22.5 0.5 47.5q10 27 29.5 36t46.5 13q57 10 121.5 38.5t128 67.5t120 85t97.5 89q45 47 86 102.5t57 121.5q10 39 3 69.5t-27.5 48t-52 18.5t-70.5 -20q-31 -14 -54.5 -37.5 t-38 -52.5t-16.5 -61.5t15 -65.5q12 -25 8 -48t-19.5 -38.5t-38 -20.5t-47.5 7q-41 18 -55 67.5t-16 90.5q-2 57 19.5 110t59 95t89 71t108.5 39q104 14 171 -24t93.5 -106.5t15 -155.5t-60.5 -167q-63 -104 -154 -187t-198 -147q27 -8 45 -4q10 4 18.5 12.5l16.5 16.5 q12 20 33.5 27.5t42.5 3.5q43 -10 58 -47t-11 -74q-25 -35 -66 -57.5t-84 -24.5q-45 -2 -86 5t-82 13.5t-84 9.5t-92 -7q-25 -10 -52.5 -10.5t-49.5 16.5q-18 12 -27.5 34.5z" />
<glyph unicode="&#xbe;" horiz-adv-x="1425" d="M-38 214q-1 44 15 81q14 39 56 43q20 4 41.5 -1t34.5 -22q10 -16 11 -34.5t-1 -34.5q0 -18 -2 -41t3 -42.5t17.5 -32.5t40.5 -9q16 4 30.5 9t29.5 13q29 16 53 39t45 49q10 16 22.5 40t19.5 50.5t6 52t-15 48.5q-8 10 -19.5 11t-25.5 3q-29 4 -55.5 26.5t-18.5 55.5 q4 16 16.5 25.5t28.5 13.5q12 2 25.5 1t23.5 1q43 16 77 49t50 76q10 29 16.5 58.5t-10.5 58.5q-25 4 -49.5 -8.5t-45 -34t-35.5 -47t-23 -47.5q-6 -25 -31 -35.5t-47 -3.5q-18 4 -35.5 13t-28.5 26q-10 16 -7 38.5t11 38.5q23 41 55.5 78t69.5 62q78 53 168 43 q47 -4 82 -27t62 -70q12 -25 12 -71.5t-13.5 -98t-45 -100.5t-84.5 -76q39 -47 44 -101t-11.5 -108.5t-50.5 -102.5t-73 -83q-63 -53 -150 -75.5t-165 9.5q-82 33 -109 113q-14 37 -15 81zM325.5 -110.5q-10.5 16.5 12.5 42.5l715 840q18 18 46.5 24.5t52.5 0.5t34 -21.5 t-10 -40.5q-12 -14 -66.5 -77.5t-130.5 -152.5t-162 -190.5t-160.5 -189.5t-129 -151.5t-64.5 -75.5q-18 -20 -48 -26.5t-54.5 -2.5t-35 20.5zM606 -86q-4 29 20.5 46t43.5 34q8 8 56 59t115.5 127t147.5 166t154 178q20 23 42.5 42.5t47.5 35.5q27 16 60.5 12t54.5 -26 q23 -25 12 -58q-6 -12 -15.5 -32.5t-34 -76.5t-71.5 -160.5t-127 -287.5q51 0 78 -39q12 -16 7 -36.5t-26 -30.5q-10 -6 -28.5 -8t-37 -3t-32.5 -2t-16 -4l-35 -79q-8 -18 -21.5 -39t-30 -37.5t-38 -23.5t-45.5 -1q-23 6 -39.5 26.5t-16.5 43.5q-2 31 10.5 60.5t26.5 56.5 q-51 0 -83.5 -1t-54 -1t-35 1t-23.5 3q-20 6 -41 19t-25 36zM836 -27h80t18 7q4 12 11 25t20.5 42t37 76t60.5 127q-57 -72 -95 -117t-62.5 -74.5t-41 -49t-28.5 -36.5z" />
<glyph unicode="&#xbf;" horiz-adv-x="761" d="M14 59.5q4 71.5 41 143.5q41 80 109.5 124t140.5 75.5t135.5 62.5t94.5 84q12 20 34.5 30.5t42 8.5t29.5 -17.5t-4 -44.5q-27 -57 -68 -97t-88 -70.5t-95 -56.5t-90 -53.5t-75 -61t-47 -83.5q-12 -39 -5 -69.5t28.5 -47t53.5 -18.5t71 19q31 14 54 37.5t37.5 52 t15.5 61.5t-13 66q-12 25 -8 48t19 38.5t37.5 20.5t47.5 -7q41 -18 55.5 -67.5t16.5 -90.5q2 -57 -19.5 -110t-59.5 -95t-89.5 -71t-108.5 -39q-104 -16 -170.5 13.5t-96.5 86t-26 128zM612.5 710.5q-12.5 20.5 3.5 49.5q10 16 26.5 32.5t27.5 24.5q27 16 55.5 22.5t48 2.5 t26.5 -20.5t-12 -45.5q-6 -12 -18 -31.5t-22 -35.5q-16 -25 -45 -30t-53.5 3t-37 28.5z" />
<glyph unicode="&#xc0;" horiz-adv-x="1320" d="M6 250q10 90 50 137t90.5 65.5t99.5 14.5t78 -14q27 -12 38 -33t8 -39.5t-18.5 -28.5t-40.5 0q-41 16 -73.5 5t-53 -36.5t-26.5 -60.5t5 -66.5t43 -53t89 -21.5q88 0 188 82q-39 2 -48 19.5t2.5 39t37 39.5t55.5 20h33t47 3q92 102 186.5 239t186.5 282.5t181 286 t171 250.5q20 27 50 33t53.5 -5t32 -36.5t-12.5 -58.5q-70 -109 -138.5 -240t-126.5 -264t-103.5 -257t-67 -219t-17 -153.5t43.5 -58.5q14 0 35.5 7t45 19.5t46 29t41.5 34.5q37 37 57 58.5t47 56.5q12 18 33.5 19t40 -8t27 -25.5t-6.5 -35.5q-20 -25 -55 -66.5t-88 -94.5 q-35 -33 -63.5 -55.5t-57.5 -37t-59.5 -20.5t-69.5 -6q-86 0 -123 59.5t-33 157.5q-12 -4 -22 -4q-47 -2 -86 -3t-74 -1q-117 -121 -214 -166t-185 -41q-61 2 -115.5 21.5t-92.5 53t-57.5 79t-13.5 98.5zM786 324q29 2 53.5 2h41.5q29 127 90 262q-49 -78 -95.5 -143.5 t-89.5 -120.5zM1220.5 1552.5q0.5 22.5 17.5 43t46 31.5t57 5q6 -2 39 -15t76 -29.5t88 -34t76 -25.5q33 -10 41 -22.5t-1 -24t-31.5 -18.5t-53.5 -7q-6 0 -55.5 7t-105.5 17.5t-105.5 21t-57.5 14.5q-31 14 -30.5 36.5z" />
<glyph unicode="&#xc1;" horiz-adv-x="1320" d="M6 250q10 90 50 137t90.5 65.5t99.5 14.5t78 -14q27 -12 38 -33t8 -39.5t-18.5 -28.5t-40.5 0q-41 16 -73.5 5t-53 -36.5t-26.5 -60.5t5 -66.5t43 -53t89 -21.5q88 0 188 82q-39 2 -48 19.5t2.5 39t37 39.5t55.5 20h33t47 3q92 102 186.5 239t186.5 282.5t181 286 t171 250.5q20 27 50 33t53.5 -5t32 -36.5t-12.5 -58.5q-70 -109 -138.5 -240t-126.5 -264t-103.5 -257t-67 -219t-17 -153.5t43.5 -58.5q14 0 35.5 7t45 19.5t46 29t41.5 34.5q37 37 57 58.5t47 56.5q12 18 33.5 19t40 -8t27 -25.5t-6.5 -35.5q-20 -25 -55 -66.5t-88 -94.5 q-35 -33 -63.5 -55.5t-57.5 -37t-59.5 -20.5t-69.5 -6q-86 0 -123 59.5t-33 157.5q-12 -4 -22 -4q-47 -2 -86 -3t-74 -1q-117 -121 -214 -166t-185 -41q-61 2 -115.5 21.5t-92.5 53t-57.5 79t-13.5 98.5zM786 324q29 2 53.5 2h41.5q29 127 90 262q-49 -78 -95.5 -143.5 t-89.5 -120.5zM1339.5 1538q8.5 12 40.5 23q31 8 76 25.5t88 33.5t76 29.5t39 15.5q29 6 57.5 -5t46 -31.5t17.5 -43.5t-31 -37q-6 -4 -30.5 -9t-59.5 -11t-74 -13.5t-72.5 -13.5t-58 -9t-29.5 -3q-31 0 -53 7t-31.5 18.5t-1 23.5z" />
<glyph unicode="&#xc2;" horiz-adv-x="1320" d="M6 250q10 90 50 137t90.5 65.5t99.5 14.5t78 -14q27 -12 38 -33t8 -39.5t-18.5 -28.5t-40.5 0q-41 16 -73.5 5t-53 -36.5t-26.5 -60.5t5 -66.5t43 -53t89 -21.5q88 0 188 82q-39 2 -48 19.5t2.5 39t37 39.5t55.5 20h33t47 3q92 102 186.5 239t186.5 282.5t181 286 t171 250.5q20 27 50 33t53.5 -5t32 -36.5t-12.5 -58.5q-70 -109 -138.5 -240t-126.5 -264t-103.5 -257t-67 -219t-17 -153.5t43.5 -58.5q14 0 35.5 7t45 19.5t46 29t41.5 34.5q37 37 57 58.5t47 56.5q12 18 33.5 19t40 -8t27 -25.5t-6.5 -35.5q-20 -25 -55 -66.5t-88 -94.5 q-35 -33 -63.5 -55.5t-57.5 -37t-59.5 -20.5t-69.5 -6q-86 0 -123 59.5t-33 157.5q-12 -4 -22 -4q-47 -2 -86 -3t-74 -1q-117 -121 -214 -166t-185 -41q-61 2 -115.5 21.5t-92.5 53t-57.5 79t-13.5 98.5zM786 324q29 2 53.5 2h41.5q29 127 90 262q-49 -78 -95.5 -143.5 t-89.5 -120.5zM1286 1507.5q-2 20.5 31 48.5q10 8 45 29t75 41.5t77 36.5t51 18q31 4 52 -12t35.5 -40.5t20.5 -50.5t4 -40q-4 -25 -22.5 -43t-41 -24.5t-44 3t-29.5 39.5q0 14 -5 31t-22 33q-29 -25 -51 -51.5t-57 -44.5q-20 -12 -49 -12.5t-48.5 9t-21.5 30z" />
<glyph unicode="&#xc3;" horiz-adv-x="1320" d="M6 250q10 90 50 137t90.5 65.5t99.5 14.5t78 -14q27 -12 38 -33t8 -39.5t-18.5 -28.5t-40.5 0q-41 16 -73.5 5t-53 -36.5t-26.5 -60.5t5 -66.5t43 -53t89 -21.5q88 0 188 82q-39 2 -48 19.5t2.5 39t37 39.5t55.5 20h33t47 3q92 102 186.5 239t186.5 282.5t181 286 t171 250.5q20 27 50 33t53.5 -5t32 -36.5t-12.5 -58.5q-70 -109 -138.5 -240t-126.5 -264t-103.5 -257t-67 -219t-17 -153.5t43.5 -58.5q14 0 35.5 7t45 19.5t46 29t41.5 34.5q37 37 57 58.5t47 56.5q12 18 33.5 19t40 -8t27 -25.5t-6.5 -35.5q-20 -25 -55 -66.5t-88 -94.5 q-35 -33 -63.5 -55.5t-57.5 -37t-59.5 -20.5t-69.5 -6q-86 0 -123 59.5t-33 157.5q-12 -4 -22 -4q-47 -2 -86 -3t-74 -1q-117 -121 -214 -166t-185 -41q-61 2 -115.5 21.5t-92.5 53t-57.5 79t-13.5 98.5zM786 324q29 2 53.5 2h41.5q29 127 90 262q-49 -78 -95.5 -143.5 t-89.5 -120.5zM1231 1484.5q-10 16.5 6 39.5q39 53 88 89t98 27q20 -4 36 -17t28 -28.5t24.5 -25.5t24.5 -6t21.5 13t17.5 19.5t17.5 19.5t23.5 13q31 8 52.5 5t34.5 -13t18 -22.5t1 -18.5q-10 -16 -26.5 -33.5t-36 -33t-37.5 -26.5t-31 -16q-31 -12 -52 -13t-36.5 6 t-30 21.5t-32.5 37.5q-20 23 -39.5 10.5t-48.5 -47.5q-16 -18 -42 -23.5t-47.5 0.5t-31.5 22.5z" />
<glyph unicode="&#xc4;" horiz-adv-x="1320" d="M6 250q10 90 50 137t90.5 65.5t99.5 14.5t78 -14q27 -12 38 -33t8 -39.5t-18.5 -28.5t-40.5 0q-41 16 -73.5 5t-53 -36.5t-26.5 -60.5t5 -66.5t43 -53t89 -21.5q88 0 188 82q-39 2 -48 19.5t2.5 39t37 39.5t55.5 20h33t47 3q92 102 186.5 239t186.5 282.5t181 286 t171 250.5q20 27 50 33t53.5 -5t32 -36.5t-12.5 -58.5q-70 -109 -138.5 -240t-126.5 -264t-103.5 -257t-67 -219t-17 -153.5t43.5 -58.5q14 0 35.5 7t45 19.5t46 29t41.5 34.5q37 37 57 58.5t47 56.5q12 18 33.5 19t40 -8t27 -25.5t-6.5 -35.5q-20 -25 -55 -66.5t-88 -94.5 q-35 -33 -63.5 -55.5t-57.5 -37t-59.5 -20.5t-69.5 -6q-86 0 -123 59.5t-33 157.5q-12 -4 -22 -4q-47 -2 -86 -3t-74 -1q-117 -121 -214 -166t-185 -41q-61 2 -115.5 21.5t-92.5 53t-57.5 79t-13.5 98.5zM786 324q29 2 53.5 2h41.5q29 127 90 262q-49 -78 -95.5 -143.5 t-89.5 -120.5zM1303.5 1497q-7.5 16 11.5 45q6 12 18.5 31.5t22.5 36.5q16 25 45 30t53.5 -3.5t36.5 -28.5t-4 -49q-10 -16 -26.5 -33t-26.5 -25q-27 -16 -55.5 -22t-48 -2t-27 20zM1508.5 1497q-7.5 16 11.5 45q6 12 18 31.5t23 36.5q16 25 44.5 30t53 -3.5t37 -28.5 t-3.5 -49q-10 -16 -26.5 -33t-27.5 -25q-27 -16 -55.5 -22t-47.5 -2t-26.5 20z" />
<glyph unicode="&#xc5;" horiz-adv-x="1320" d="M6 250q10 90 50 137t90.5 65.5t99.5 14.5t78 -14q27 -12 38 -33t8 -39.5t-18.5 -28.5t-40.5 0q-41 16 -73.5 5t-53 -36.5t-26.5 -60.5t5 -66.5t43 -53t89 -21.5q88 0 188 82q-39 2 -48 19.5t2.5 39t37 39.5t55.5 20h33t47 3q92 102 186.5 239t186.5 282.5t181 286 t171 250.5q20 27 50 33t53.5 -5t32 -36.5t-12.5 -58.5q-70 -109 -138.5 -240t-126.5 -264t-103.5 -257t-67 -219t-17 -153.5t43.5 -58.5q14 0 35.5 7t45 19.5t46 29t41.5 34.5q37 37 57 58.5t47 56.5q12 18 33.5 19t40 -8t27 -25.5t-6.5 -35.5q-20 -25 -55 -66.5t-88 -94.5 q-35 -33 -63.5 -55.5t-57.5 -37t-59.5 -20.5t-69.5 -6q-86 0 -123 59.5t-33 157.5q-12 -4 -22 -4q-47 -2 -86 -3t-74 -1q-117 -121 -214 -166t-185 -41q-61 2 -115.5 21.5t-92.5 53t-57.5 79t-13.5 98.5zM786 324q29 2 53.5 2h41.5q29 127 90 262q-49 -78 -95.5 -143.5 t-89.5 -120.5zM1384 1604q0 66 45.5 110.5t110.5 44.5q66 0 111 -45t45 -110q0 -66 -45 -111t-111 -45t-111 45t-45 111zM1479 1616q0 -29 21.5 -50.5t49.5 -21.5q29 0 50.5 21.5t21.5 50.5t-21.5 50.5t-50.5 21.5t-50 -21.5t-21 -50.5z" />
<glyph unicode="&#xc6;" horiz-adv-x="1806" d="M35 291q20 88 67.5 129t99.5 52t100 2t75 -23q25 -16 33 -38t2 -39.5t-22.5 -25.5t-39.5 4q-39 20 -72.5 14t-57 -29.5t-35 -57t-3.5 -65.5t37 -58.5t84 -32.5q80 -10 177.5 42t207.5 144q-25 -2 -48.5 -2h-41.5q-43 0 -55.5 17.5t-2 40t36 41t58.5 20.5q18 0 69.5 1 t114.5 1q80 76 160 163t159 176t155.5 176t148.5 165q23 33 57 72q84 92 172 147t172 77.5t163 15.5t146 -40q63 -31 74.5 -93t-13 -140t-75.5 -161t-112.5 -155.5t-122 -126t-103.5 -69.5q-27 -10 -49 0t-34.5 26.5t-12.5 35t16 26.5q37 18 86 62t99.5 99.5t94.5 118 t70.5 118t27.5 99.5t-34 64t-83 22.5t-104 -16t-118.5 -61.5t-126.5 -115q-59 -66 -91 -132.5t-39 -125.5t5.5 -110.5t40.5 -83.5q23 -29 9.5 -51.5t-35.5 -18.5q-41 10 -89.5 2t-91.5 -35t-73.5 -73t-36.5 -109q-6 -68 13.5 -118t56 -82t87 -46t105.5 -10q41 2 90 28.5 t94 59.5t80 65.5t49 51.5q12 18 34 19t39 -7t24.5 -25.5t-5.5 -36.5q-12 -18 -32.5 -41.5t-47 -50t-56 -53.5t-60.5 -49q-57 -45 -113.5 -63.5t-105.5 -22.5q-82 -4 -151.5 13.5t-122 57t-84 101t-38.5 145.5q-47 0 -103 -1t-114 -1q-117 -109 -206 -173t-158.5 -97 t-124.5 -39t-105 2q-61 10 -111 37t-83 65.5t-46 86t-1 98.5zM995 430q29 0 52.5 1t46.5 1q16 90 65 144.5t101 82.5q59 36 129 50q-6 12 -15 28q-6 14 -11 32.5t-9 41.5q-104 -115 -192.5 -209t-166.5 -172z" />
<glyph unicode="&#xc7;" horiz-adv-x="743" d="M-9 -121q7 27 23.5 45.5t38 23.5t41.5 -20q4 -6 11.5 -16t14.5 -18.5t14 -12.5t13 4q6 10 9.5 55.5t29.5 98.5q-66 35 -107.5 98.5t-52 153.5t14.5 208.5t92 264.5q92 199 217 338t258 216t259 93t223 -31q66 -31 76 -93t-15 -140t-76 -161t-111.5 -155.5t-121 -126 t-103.5 -69.5q-29 -10 -50 0t-33.5 26.5t-12.5 35t16 26.5q37 18 86.5 62t98.5 99.5t94 118t71.5 118t27.5 99.5t-33 64q-55 31 -152.5 3.5t-207 -104.5t-215 -198t-175.5 -276q-72 -156 -83 -269.5t19.5 -185.5t95 -104.5t146.5 -28.5q41 2 90 28.5t94.5 59.5t80 65.5 t46.5 51.5q12 18 34 19t39.5 -7t25.5 -25.5t-4 -36.5q-12 -18 -34 -41.5t-47.5 -50t-55 -53.5t-60.5 -49q-59 -45 -114.5 -63.5t-106.5 -22.5q-96 -4 -172 18q-18 -33 -25.5 -69.5t-12.5 -70.5t-12.5 -60.5t-27.5 -38.5q-27 -16 -54.5 -14.5t-52 13t-44 28t-25.5 30.5 q-10 20 -3 47z" />
<glyph unicode="&#xc8;" horiz-adv-x="731" d="M12 358q2 115 48 183.5t104 105.5q65 44 149 62q-35 61 -37 135q-2 63 27 148t121 188q84 92 172 147t172 77.5t163 15.5t146 -40q63 -31 74.5 -93t-13 -140t-75.5 -161t-112.5 -155.5t-122 -126t-103.5 -69.5q-27 -10 -49.5 0t-34.5 26.5t-12 35t16 26.5q37 18 86 62 t99.5 99.5t94.5 118t70.5 118t27.5 99.5t-34 64t-83 22.5t-104.5 -16t-118.5 -61.5t-126 -115q-59 -66 -91 -132.5t-39 -125.5t5 -110.5t41 -83.5q23 -29 9.5 -51.5t-36.5 -18.5q-41 10 -89 2t-91 -35t-73.5 -73t-36.5 -109q-6 -68 13 -118t56 -82t87 -46t106 -10 q41 2 90 28.5t94 59.5t80 65.5t49 51.5q12 18 33.5 19t39 -7t25 -25.5t-5.5 -36.5q-12 -18 -32.5 -41.5t-47 -50t-56.5 -53.5t-60 -49q-57 -45 -113.5 -63.5t-105.5 -22.5q-86 -4 -160 15.5t-126 64.5t-82 115.5t-28 166.5zM749.5 1589q0.5 23 17.5 43.5t46 31.5t57 5 q6 -2 39 -15.5t76 -29.5t88 -33.5t76 -25.5q33 -10 41 -22.5t-1 -24t-31.5 -18.5t-53.5 -7q-6 0 -55.5 7t-105.5 17.5t-105.5 20.5t-57.5 14q-31 14 -30.5 37z" />
<glyph unicode="&#xc9;" horiz-adv-x="731" d="M12 358q2 115 48 183.5t104 105.5q65 44 149 62q-35 61 -37 135q-2 63 27 148t121 188q84 92 172 147t172 77.5t163 15.5t146 -40q63 -31 74.5 -93t-13 -140t-75.5 -161t-112.5 -155.5t-122 -126t-103.5 -69.5q-27 -10 -49.5 0t-34.5 26.5t-12 35t16 26.5q37 18 86 62 t99.5 99.5t94.5 118t70.5 118t27.5 99.5t-34 64t-83 22.5t-104.5 -16t-118.5 -61.5t-126 -115q-59 -66 -91 -132.5t-39 -125.5t5 -110.5t41 -83.5q23 -29 9.5 -51.5t-36.5 -18.5q-41 10 -89 2t-91 -35t-73.5 -73t-36.5 -109q-6 -68 13 -118t56 -82t87 -46t106 -10 q41 2 90 28.5t94 59.5t80 65.5t49 51.5q12 18 33.5 19t39 -7t25 -25.5t-5.5 -36.5q-12 -18 -32.5 -41.5t-47 -50t-56.5 -53.5t-60 -49q-57 -45 -113.5 -63.5t-105.5 -22.5q-86 -4 -160 15.5t-126 64.5t-82 115.5t-28 166.5zM835.5 1530q8.5 12 41.5 22q31 8 75.5 25.5 t87.5 34t76 30t39 15.5q29 6 57.5 -5.5t46 -32t17.5 -43t-31 -36.5q-6 -2 -30.5 -8t-59.5 -12.5t-74 -13.5t-72.5 -13t-58 -9t-28.5 -3q-31 0 -53.5 7t-32 18.5t-1 23.5z" />
<glyph unicode="&#xca;" horiz-adv-x="731" d="M12 358q2 115 48 183.5t104 105.5q65 44 149 62q-35 61 -37 135q-2 63 27 148t121 188q84 92 172 147t172 77.5t163 15.5t146 -40q63 -31 74.5 -93t-13 -140t-75.5 -161t-112.5 -155.5t-122 -126t-103.5 -69.5q-27 -10 -49.5 0t-34.5 26.5t-12 35t16 26.5q37 18 86 62 t99.5 99.5t94.5 118t70.5 118t27.5 99.5t-34 64t-83 22.5t-104.5 -16t-118.5 -61.5t-126 -115q-59 -66 -91 -132.5t-39 -125.5t5 -110.5t41 -83.5q23 -29 9.5 -51.5t-36.5 -18.5q-41 10 -89 2t-91 -35t-73.5 -73t-36.5 -109q-6 -68 13 -118t56 -82t87 -46t106 -10 q41 2 90 28.5t94 59.5t80 65.5t49 51.5q12 18 33.5 19t39 -7t25 -25.5t-5.5 -36.5q-12 -18 -32.5 -41.5t-47 -50t-56.5 -53.5t-60 -49q-57 -45 -113.5 -63.5t-105.5 -22.5q-86 -4 -160 15.5t-126 64.5t-82 115.5t-28 166.5zM803 1503.5q-2 20.5 31 48.5q10 8 44.5 29 t74.5 41t77 36.5t51 18.5q31 4 52.5 -12t36 -41t20.5 -50.5t4 -39.5q-4 -25 -22.5 -43t-41 -24.5t-44 3t-29.5 39.5q0 14 -5 30.5t-22 33.5q-29 -25 -51.5 -51.5t-56.5 -44.5q-20 -12 -49 -12.5t-48.5 9t-21.5 30z" />
<glyph unicode="&#xcb;" horiz-adv-x="731" d="M12 358q2 115 48 183.5t104 105.5q65 44 149 62q-35 61 -37 135q-2 63 27 148t121 188q84 92 172 147t172 77.5t163 15.5t146 -40q63 -31 74.5 -93t-13 -140t-75.5 -161t-112.5 -155.5t-122 -126t-103.5 -69.5q-27 -10 -49.5 0t-34.5 26.5t-12 35t16 26.5q37 18 86 62 t99.5 99.5t94.5 118t70.5 118t27.5 99.5t-34 64t-83 22.5t-104.5 -16t-118.5 -61.5t-126 -115q-59 -66 -91 -132.5t-39 -125.5t5 -110.5t41 -83.5q23 -29 9.5 -51.5t-36.5 -18.5q-41 10 -89 2t-91 -35t-73.5 -73t-36.5 -109q-6 -68 13 -118t56 -82t87 -46t106 -10 q41 2 90 28.5t94 59.5t80 65.5t49 51.5q12 18 33.5 19t39 -7t25 -25.5t-5.5 -36.5q-12 -18 -32.5 -41.5t-47 -50t-56.5 -53.5t-60 -49q-57 -45 -113.5 -63.5t-105.5 -22.5q-86 -4 -160 15.5t-126 64.5t-82 115.5t-28 166.5zM814 1495q-7 16 11 45q6 12 18.5 31.5t22.5 36.5 q16 25 45 29.5t53.5 -3.5t36.5 -28.5t-4 -49.5q-10 -16 -26.5 -32.5t-26.5 -24.5q-27 -16 -55.5 -22.5t-48 -2t-26.5 20.5zM1019 1495q-7 16 11 45q6 12 18.5 31.5t22.5 36.5q16 25 45 29.5t53.5 -3.5t36.5 -28.5t-4 -49.5q-10 -16 -26.5 -32.5t-26.5 -24.5 q-27 -16 -55.5 -22.5t-48 -2t-26.5 20.5z" />
<glyph unicode="&#xcc;" horiz-adv-x="860" d="M14 250q6 88 47 134t91.5 65.5t100.5 16.5t79 -13q27 -12 38 -33t8 -39.5t-18.5 -28.5t-40.5 0q-41 16 -73.5 5t-54 -36.5t-27.5 -60.5t6 -66.5t44 -53t89 -21.5q59 0 113.5 37t103.5 101.5t95.5 150.5t91.5 184q-25 -18 -50 -31q-84 -45 -154.5 -46t-121.5 26.5t-79 78 t-23.5 111t42 122.5t119.5 114q68 43 152 84t171 86t171 97t149 118l21 28q20 27 49 34t50.5 -1t27.5 -29.5t-14 -52.5q-80 -113 -148 -256t-132.5 -291.5t-131 -290t-142 -251t-165.5 -177t-205 -67.5q-61 0 -114.5 19.5t-91.5 53t-57.5 80t-15.5 99.5zM425.5 771 q-13.5 -46 8 -79t71.5 -42t116 22q47 23 100 61.5t84 79.5q35 74 67.5 147.5t69.5 145.5q-61 -43 -124.5 -78t-121 -63.5t-108.5 -54t-88 -52.5q-61 -41 -74.5 -87zM950 1556.5q0 22.5 17.5 43t46 31.5t57.5 5q6 -2 39 -15t76 -29.5t88 -34t76 -25.5q33 -10 41 -22.5 t-1.5 -23.5t-32 -18.5t-52.5 -7.5q-6 0 -55.5 7.5t-106 17.5t-105.5 20.5t-57 14.5q-31 14 -31 36.5z" />
<glyph unicode="&#xcd;" horiz-adv-x="860" d="M14 250q6 88 47 134t91.5 65.5t100.5 16.5t79 -13q27 -12 38 -33t8 -39.5t-18.5 -28.5t-40.5 0q-41 16 -73.5 5t-54 -36.5t-27.5 -60.5t6 -66.5t44 -53t89 -21.5q59 0 113.5 37t103.5 101.5t95.5 150.5t91.5 184q-25 -18 -50 -31q-84 -45 -154.5 -46t-121.5 26.5t-79 78 t-23.5 111t42 122.5t119.5 114q68 43 152 84t171 86t171 97t149 118l21 28q20 27 49 34t50.5 -1t27.5 -29.5t-14 -52.5q-80 -113 -148 -256t-132.5 -291.5t-131 -290t-142 -251t-165.5 -177t-205 -67.5q-61 0 -114.5 19.5t-91.5 53t-57.5 80t-15.5 99.5zM425.5 771 q-13.5 -46 8 -79t71.5 -42t116 22q47 23 100 61.5t84 79.5q35 74 67.5 147.5t69.5 145.5q-61 -43 -124.5 -78t-121 -63.5t-108.5 -54t-88 -52.5q-61 -41 -74.5 -87zM1038.5 1523.5q8.5 12.5 40.5 22.5q31 8 76 25.5t88 34t76 30t39 15.5q29 6 57.5 -5.5t46 -32t17.5 -43 t-31 -36.5q-6 -4 -30.5 -9t-59.5 -11.5t-74 -13.5t-72.5 -13t-58.5 -9t-29 -3q-31 0 -53 7t-31.5 18t-1 23.5z" />
<glyph unicode="&#xce;" horiz-adv-x="860" d="M14 250q6 88 47 134t91.5 65.5t100.5 16.5t79 -13q27 -12 38 -33t8 -39.5t-18.5 -28.5t-40.5 0q-41 16 -73.5 5t-54 -36.5t-27.5 -60.5t6 -66.5t44 -53t89 -21.5q59 0 113.5 37t103.5 101.5t95.5 150.5t91.5 184q-25 -18 -50 -31q-84 -45 -154.5 -46t-121.5 26.5t-79 78 t-23.5 111t42 122.5t119.5 114q68 43 152 84t171 86t171 97t149 118l21 28q20 27 49 34t50.5 -1t27.5 -29.5t-14 -52.5q-80 -113 -148 -256t-132.5 -291.5t-131 -290t-142 -251t-165.5 -177t-205 -67.5q-61 0 -114.5 19.5t-91.5 53t-57.5 80t-15.5 99.5zM425.5 771 q-13.5 -46 8 -79t71.5 -42t116 22q47 23 100 61.5t84 79.5q35 74 67.5 147.5t69.5 145.5q-61 -43 -124.5 -78t-121 -63.5t-108.5 -54t-88 -52.5q-61 -41 -74.5 -87zM1038 1536q-2 20 31 49q10 8 45 28.5t75 41t77 37t51 18.5q31 4 52.5 -12.5t35.5 -41t20.5 -50t4.5 -39.5 q-4 -25 -22.5 -43.5t-41.5 -24.5t-44.5 3t-29.5 40q0 14 -5 30.5t-21 33.5q-29 -25 -51.5 -51.5t-57.5 -45.5q-20 -12 -49 -12t-48.5 9.5t-21.5 29.5z" />
<glyph unicode="&#xcf;" horiz-adv-x="860" d="M14 250q6 88 47 134t91.5 65.5t100.5 16.5t79 -13q27 -12 38 -33t8 -39.5t-18.5 -28.5t-40.5 0q-41 16 -73.5 5t-54 -36.5t-27.5 -60.5t6 -66.5t44 -53t89 -21.5q59 0 113.5 37t103.5 101.5t95.5 150.5t91.5 184q-25 -18 -50 -31q-84 -45 -154.5 -46t-121.5 26.5t-79 78 t-23.5 111t42 122.5t119.5 114q68 43 152 84t171 86t171 97t149 118l21 28q20 27 49 34t50.5 -1t27.5 -29.5t-14 -52.5q-80 -113 -148 -256t-132.5 -291.5t-131 -290t-142 -251t-165.5 -177t-205 -67.5q-61 0 -114.5 19.5t-91.5 53t-57.5 80t-15.5 99.5zM425.5 771 q-13.5 -46 8 -79t71.5 -42t116 22q47 23 100 61.5t84 79.5q35 74 67.5 147.5t69.5 145.5q-61 -43 -124.5 -78t-121 -63.5t-108.5 -54t-88 -52.5q-61 -41 -74.5 -87zM1056 1515.5q-7 16.5 11 45.5q6 12 18.5 31.5t22.5 35.5q16 25 45 30t53.5 -3t36.5 -28.5t-4 -49.5 q-10 -16 -26.5 -32.5t-26.5 -24.5q-27 -16 -55.5 -22.5t-48 -2.5t-26.5 20.5zM1260.5 1515.5q-7.5 16.5 11.5 45.5q6 12 18.5 31.5t22.5 35.5q16 25 44.5 30t53.5 -3t37 -28.5t-4 -49.5q-10 -16 -26.5 -32.5t-26.5 -24.5q-27 -16 -55.5 -22.5t-48 -2.5t-27 20.5z" />
<glyph unicode="&#xd0;" horiz-adv-x="1445" d="M16 250q6 88 44 136t86.5 71.5t97.5 26.5t80 -1q78 -10 141 -45t119 -86q29 47 54.5 99.5t53.5 109.5q-84 -49 -166 -66.5t-150.5 -4t-121.5 57.5t-80 118q-29 72 -11.5 160.5t75 178t153.5 169t225 135.5q125 53 251 68.5t235 -1.5l4 4q18 27 46 34t49.5 0t29.5 -27.5 t-8 -47.5q25 -8 46 -17t44 -19q86 -47 139 -124t69.5 -177.5t-4 -218t-79.5 -248.5q-53 -117 -130 -224.5t-168 -183.5t-189.5 -108.5t-196.5 -0.5q-59 18 -98.5 51t-67.5 76q-63 -70 -136 -108.5t-159 -38.5q-61 0 -113.5 19.5t-90.5 53t-57.5 80t-15.5 99.5zM163 245 q-7 -46 25.5 -86t116.5 -40q57 0 108.5 33.5t98.5 93.5q-33 35 -80 65.5t-113 40.5q-66 8 -107.5 -26.5t-48.5 -80.5zM313 821q-20 -88 0.5 -136t66.5 -65.5t107.5 -6t124.5 43.5q-33 0 -38 18.5t7.5 40t36 40t52.5 20.5h102q10 14 20.5 26.5t20.5 26.5q51 115 104.5 226.5 t112.5 210.5q-86 4 -197.5 -16.5t-217 -74t-189.5 -140.5t-113 -214zM676 258q23 -35 49.5 -69.5t73.5 -49.5q55 -18 118.5 6.5t128 83t128 146.5t116.5 198q109 219 91.5 380t-146.5 249q-16 10 -36.5 18.5t-41.5 14.5q-61 -104 -115.5 -221t-107.5 -238q41 0 79 -1t58 1 q31 0 37 -17.5t-4 -39t-32.5 -41t-49.5 -19.5h-139q-49 -111 -99.5 -213t-107.5 -188z" />
<glyph unicode="&#xd1;" horiz-adv-x="1409" d="M14 250q8 88 49 134t91.5 65.5t99.5 16.5t78 -13q27 -12 38 -33t9 -39.5t-17.5 -28.5t-39.5 0q-41 16 -74 5t-54.5 -36.5t-27.5 -60.5t6 -66.5t44 -53t87 -21.5q80 0 150.5 61.5t137 161.5t131 230t131.5 266.5t137.5 269.5t150.5 240q20 27 49 35t52.5 -0.5t34.5 -31 t-5 -55.5q-10 -23 -27.5 -82t-37 -141t-39 -179t-35 -198.5t-26.5 -198t-11 -175.5q57 100 117.5 212.5t126 224t136 216t149.5 191.5t165 147.5t184 85.5q41 8 65.5 -11.5t30 -47t-9 -55.5t-51.5 -34q-133 -23 -244.5 -134t-219 -279t-219.5 -375t-243 -422 q-35 -57 -69.5 -45t-42.5 67t-5 169t16 249t37.5 270.5t59.5 233.5q-55 -109 -109.5 -224.5t-110.5 -225t-116.5 -208t-130 -171t-148.5 -115.5t-171 -43q-61 0 -114.5 19.5t-91.5 53t-57.5 80t-15.5 99.5zM1362 1376.5q-10 16.5 6 38.5q39 53 88 89t98 28q20 -4 36 -17.5 t28 -29t24.5 -25.5t24.5 -6t21.5 13.5t17.5 19.5t17.5 19.5t23.5 13.5q31 8 52.5 5t34.5 -13.5t18.5 -22.5t0.5 -19q-10 -16 -26.5 -33.5t-35.5 -32.5t-37.5 -26.5t-31.5 -15.5q-31 -12 -52 -13t-36.5 6t-30 21.5t-32.5 36.5q-20 23 -39.5 10.5t-48.5 -47.5q-16 -18 -42 -23 t-47.5 1t-31.5 22.5z" />
<glyph unicode="&#xd2;" horiz-adv-x="1099" d="M42 452.5q11 141.5 91 311.5q82 178 188.5 311t224.5 217t237.5 116t228.5 5q14 -4 18 -14t2 -19q18 4 59 -11t76 -56q66 -80 71 -209t-35 -275.5t-119.5 -295t-184 -268.5t-228.5 -194.5t-253 -74.5q-125 0 -214 56.5t-131 157.5t-31 242.5zM185.5 474.5 q-9.5 -107.5 18 -186.5t87 -123t139.5 -44q86 0 173 57.5t167 150.5t146.5 209.5t110.5 236.5t58.5 229.5t-8.5 187.5q-10 37 -31.5 45t-44 5t-44 -12t-33.5 -9q-10 0 -16.5 9t-11.5 21.5t-7 25.5t-4 23q-74 -8 -161 -53t-173 -122.5t-164 -183t-135 -232.5t-66.5 -234.5z M780 1581q0 23 17.5 43.5t46 31.5t57.5 5q6 -2 39 -15.5t76 -30t88 -33.5t76 -26q33 -10 41 -22t-1.5 -23.5t-32 -18.5t-52.5 -7q-6 0 -55.5 7t-105.5 17.5t-105.5 20.5t-57.5 14q-31 14 -31 37z" />
</font>
</defs>
</svg>
